<ttFont>
<head>
    <!-- Most of this table will be recalculated by the compiler -->
    <tableVersion value="1.0"/>
    <fontRevision value="1.301"/>
    <checkSumAdjustment value="0xa8908036"/>
    <magicNumber value="0x5f0f3cf5"/>
    <flags value="00000000 00001011"/>
    <unitsPerEm value="1000"/>
    <created value="Mon May 10 23:53:19 2010"/>
    <modified value="Thu Mar  6 18:34:01 2014"/>
    <xMin value="-288"/>
    <yMin value="-288"/>
    <xMax value="1324"/>
    <yMax value="1129"/>
    <macStyle value="00000000 00000010"/>
    <lowestRecPPEM value="9"/>
    <fontDirectionHint value="2"/>
    <indexToLocFormat value="0"/>
    <glyphDataFormat value="0"/>
  </head>
    <TTGlyph name="A" xMin="-39" yMin="0" xMax="614" yMax="746">
      <contour>
        <pt x="529" y="0" on="1"/>
        <pt x="486" y="203" on="1"/>
        <pt x="170" y="203" on="1"/>
        <pt x="46" y="0" on="1"/>
        <pt x="-39" y="0" on="1"/>
        <pt x="426" y="746" on="1"/>
        <pt x="438" y="746" on="1"/>
        <pt x="614" y="0" on="1"/>
      </contour>
      <contour>
        <pt x="404" y="585" on="1"/>
        <pt x="211" y="270" on="1"/>
        <pt x="471" y="270" on="1"/>
      </contour>
    </TTGlyph>
    <TTGlyph name="AE" xMin="-39" yMin="0" xMax="1022" yMax="733">
      <contour>
        <pt x="1008" y="661" on="1"/>
        <pt x="677" y="661" on="1"/>
        <pt x="628" y="408" on="1"/>
        <pt x="924" y="408" on="1"/>
        <pt x="910" y="336" on="1"/>
        <pt x="614" y="336" on="1"/>
        <pt x="562" y="72" on="1"/>
        <pt x="894" y="72" on="1"/>
        <pt x="880" y="0" on="1"/>
        <pt x="469" y="0" on="1"/>
        <pt x="515" y="236" on="1"/>
        <pt x="262" y="236" on="1"/>
        <pt x="53" y="0" on="1"/>
        <pt x="-39" y="0" on="1"/>
        <pt x="612" y="733" on="1"/>
        <pt x="1022" y="733" on="1"/>
      </contour>
      <contour>
        <pt x="587" y="604" on="1"/>
        <pt x="321" y="303" on="1"/>
        <pt x="528" y="303" on="1"/>
      </contour>
    </TTGlyph>
    <TTGlyph name="AEacute" xMin="-39" yMin="0" xMax="1022" yMax="965">
      <component glyphName="AE" x="0" y="0" flags="0x204"/>
      <component glyphName="acute" x="525" y="320" flags="0x4"/>
    </TTGlyph>
    <TTGlyph name="Aacute" xMin="-39" yMin="0" xMax="614" yMax="965">
      <component glyphName="A" x="0" y="0" flags="0x204"/>
      <component glyphName="acute" x="224" y="320" flags="0x4"/>
    </TTGlyph>
    <TTGlyph name="Abreve" xMin="-39" yMin="0" xMax="614" yMax="949">
      <component glyphName="A" x="0" y="0" flags="0x204"/>
      <component glyphName="breve" x="175" y="320" flags="0x4"/>
    </TTGlyph>
    <TTGlyph name="Acircumflex" xMin="-39" yMin="0" xMax="614" yMax="965">
      <component glyphName="A" x="0" y="0" flags="0x204"/>
      <component glyphName="circumflex" x="171" y="320" flags="0x4"/>
    </TTGlyph>
    <TTGlyph name="Adieresis" xMin="-39" yMin="0" xMax="614" yMax="908">
      <component glyphName="A" x="0" y="0" flags="0x204"/>
      <component glyphName="dieresis" x="176" y="320" flags="0x4"/>
    </TTGlyph>
    <TTGlyph name="Agrave" xMin="-39" yMin="0" xMax="614" yMax="965">
      <component glyphName="A" x="0" y="0" flags="0x204"/>
      <component glyphName="grave" x="116" y="320" flags="0x4"/>
    </TTGlyph>
    <TTGlyph name="Amacron" xMin="-39" yMin="0" xMax="614" yMax="890">
      <component glyphName="A" x="0" y="0" flags="0x204"/>
      <component glyphName="macron" x="177" y="320" flags="0x4"/>
    </TTGlyph>
    <TTGlyph name="Aogonek" xMin="-39" yMin="-220" xMax="614" yMax="746">
      <contour>
        <pt x="603" y="-169" on="1"/>
        <pt x="578" y="-195" on="0"/>
        <pt x="533" y="-218" on="0"/>
        <pt x="505" y="-219" on="1"/>
        <pt x="471" y="-220" on="0"/>
        <pt x="434" y="-183" on="0"/>
        <pt x="434" y="-151" on="1"/>
        <pt x="434" y="-110" on="0"/>
        <pt x="486" y="-37" on="0"/>
        <pt x="529" y="0" on="1"/>
        <pt x="486" y="203" on="1"/>
        <pt x="170" y="203" on="1"/>
        <pt x="46" y="0" on="1"/>
        <pt x="-39" y="0" on="1"/>
        <pt x="426" y="746" on="1"/>
        <pt x="438" y="746" on="1"/>
        <pt x="614" y="0" on="1"/>
        <pt x="594" y="0" on="1"/>
        <pt x="582" y="-12" on="0"/>
        <pt x="549" y="-41" on="0"/>
        <pt x="520" y="-76" on="0"/>
        <pt x="500" y="-113" on="0"/>
        <pt x="500" y="-132" on="1"/>
        <pt x="500" y="-164" on="0"/>
        <pt x="526" y="-164" on="1"/>
        <pt x="537" y="-164" on="0"/>
        <pt x="559" y="-151" on="0"/>
        <pt x="576" y="-136" on="1"/>
      </contour>
      <contour>
        <pt x="404" y="585" on="1"/>
        <pt x="211" y="270" on="1"/>
        <pt x="471" y="270" on="1"/>
      </contour>
    </TTGlyph>
    <TTGlyph name="Aring" xMin="-39" yMin="0" xMax="614" yMax="912">
      <contour>
        <pt x="548" y="829" on="1"/>
        <pt x="548" y="809" on="0"/>
        <pt x="534" y="769" on="0"/>
        <pt x="507" y="736" on="0"/>
        <pt x="469" y="713" on="0"/>
        <pt x="446" y="710" on="1"/>
        <pt x="614" y="0" on="1"/>
        <pt x="529" y="0" on="1"/>
        <pt x="486" y="203" on="1"/>
        <pt x="170" y="203" on="1"/>
        <pt x="46" y="0" on="1"/>
        <pt x="-39" y="0" on="1"/>
        <pt x="405" y="712" on="1"/>
        <pt x="378" y="720" on="0"/>
        <pt x="345" y="764" on="0"/>
        <pt x="345" y="793" on="1"/>
        <pt x="345" y="815" on="0"/>
        <pt x="362" y="857" on="0"/>
        <pt x="392" y="891" on="0"/>
        <pt x="435" y="912" on="0"/>
        <pt x="462" y="912" on="1"/>
        <pt x="500" y="912" on="0"/>
        <pt x="548" y="864" on="0"/>
      </contour>
      <contour>
        <pt x="404" y="585" on="1"/>
        <pt x="211" y="270" on="1"/>
        <pt x="471" y="270" on="1"/>
      </contour>
      <contour>
        <pt x="494" y="823" on="1"/>
        <pt x="494" y="845" on="0"/>
        <pt x="473" y="869" on="0"/>
        <pt x="456" y="869" on="1"/>
        <pt x="434" y="869" on="0"/>
        <pt x="399" y="829" on="0"/>
        <pt x="399" y="799" on="1"/>
        <pt x="399" y="777" on="0"/>
        <pt x="420" y="753" on="0"/>
        <pt x="437" y="753" on="1"/>
        <pt x="459" y="753" on="0"/>
        <pt x="494" y="792" on="0"/>
      </contour>
    </TTGlyph>
    <TTGlyph name="Aringacute" xMin="-39" yMin="0" xMax="636" yMax="1129">
      <component glyphName="acute" x="257" y="484" flags="0x4"/>
      <component glyphName="Aring" x="0" y="0" flags="0x4"/>
    </TTGlyph>
    <TTGlyph name="Atilde" xMin="-39" yMin="0" xMax="614" yMax="920">
      <component glyphName="A" x="0" y="0" flags="0x204"/>
      <component glyphName="tilde" x="176" y="320" flags="0x4"/>
    </TTGlyph>
    <TTGlyph name="B" xMin="38" yMin="-6" xMax="545" yMax="738">
      <contour>
        <pt x="545" y="555" on="1"/>
        <pt x="545" y="527" on="0"/>
        <pt x="526" y="470" on="0"/>
        <pt x="489" y="419" on="0"/>
        <pt x="432" y="379" on="0"/>
        <pt x="395" y="369" on="1"/>
        <pt x="505" y="322" on="0"/>
        <pt x="505" y="222" on="1"/>
        <pt x="505" y="175" on="0"/>
        <pt x="471" y="92" on="0"/>
        <pt x="397" y="30" on="0"/>
        <pt x="278" y="-6" on="0"/>
        <pt x="194" y="-6" on="1"/>
        <pt x="152" y="-6" on="0"/>
        <pt x="76" y="4" on="0"/>
        <pt x="38" y="12" on="1"/>
        <pt x="178" y="728" on="1"/>
        <pt x="211" y="733" on="0"/>
        <pt x="279" y="738" on="0"/>
        <pt x="314" y="738" on="1"/>
        <pt x="372" y="738" on="0"/>
        <pt x="459" y="706" on="0"/>
        <pt x="517" y="655" on="0"/>
        <pt x="545" y="589" on="0"/>
      </contour>
      <contour>
        <pt x="463" y="547" on="1"/>
        <pt x="463" y="599" on="0"/>
        <pt x="387" y="670" on="0"/>
        <pt x="315" y="670" on="1"/>
        <pt x="279" y="670" on="0"/>
        <pt x="245" y="664" on="1"/>
        <pt x="195" y="409" on="1"/>
        <pt x="209" y="407" on="0"/>
        <pt x="258" y="406" on="0"/>
        <pt x="281" y="406" on="1"/>
        <pt x="329" y="406" on="0"/>
        <pt x="398" y="428" on="0"/>
        <pt x="442" y="467" on="0"/>
        <pt x="463" y="518" on="0"/>
      </contour>
      <contour>
        <pt x="424" y="210" on="1"/>
        <pt x="424" y="270" on="0"/>
        <pt x="335" y="344" on="0"/>
        <pt x="248" y="344" on="1"/>
        <pt x="207" y="344" on="0"/>
        <pt x="182" y="341" on="1"/>
        <pt x="129" y="71" on="1"/>
        <pt x="157" y="66" on="0"/>
        <pt x="204" y="63" on="0"/>
        <pt x="227" y="63" on="1"/>
        <pt x="270" y="63" on="0"/>
        <pt x="342" y="84" on="0"/>
        <pt x="394" y="122" on="0"/>
        <pt x="424" y="176" on="0"/>
      </contour>
    </TTGlyph>
    <TTGlyph name="C" xMin="71" yMin="-12" xMax="720" yMax="745">
      <contour>
        <pt x="680" y="607" on="1"/>
        <pt x="645" y="635" on="0"/>
        <pt x="540" y="673" on="0"/>
        <pt x="479" y="673" on="1"/>
        <pt x="409" y="673" on="0"/>
        <pt x="290" y="616" on="0"/>
        <pt x="203" y="520" on="0"/>
        <pt x="153" y="392" on="0"/>
        <pt x="153" y="322" on="1"/>
        <pt x="153" y="261" on="0"/>
        <pt x="192" y="164" on="0"/>
        <pt x="260" y="96" on="0"/>
        <pt x="351" y="59" on="0"/>
        <pt x="403" y="59" on="1"/>
        <pt x="461" y="59" on="0"/>
        <pt x="558" y="95" on="0"/>
        <pt x="603" y="121" on="1"/>
        <pt x="634" y="57" on="1"/>
        <pt x="578" y="22" on="0"/>
        <pt x="463" y="-12" on="0"/>
        <pt x="393" y="-12" on="1"/>
        <pt x="331" y="-12" on="0"/>
        <pt x="215" y="34" on="0"/>
        <pt x="125" y="119" on="0"/>
        <pt x="71" y="239" on="0"/>
        <pt x="71" y="314" on="1"/>
        <pt x="71" y="408" on="0"/>
        <pt x="143" y="566" on="0"/>
        <pt x="260" y="681" on="0"/>
        <pt x="411" y="745" on="0"/>
        <pt x="491" y="745" on="1"/>
        <pt x="525" y="745" on="0"/>
        <pt x="592" y="732" on="0"/>
        <pt x="651" y="711" on="0"/>
        <pt x="702" y="684" on="0"/>
        <pt x="720" y="670" on="1"/>
      </contour>
    </TTGlyph>
    <TTGlyph name="Cacute" xMin="71" yMin="-12" xMax="720" yMax="965">
      <component glyphName="C" x="0" y="0" flags="0x204"/>
      <component glyphName="acute" x="278" y="320" flags="0x4"/>
    </TTGlyph>
    <TTGlyph name="Ccaron" xMin="71" yMin="-12" xMax="720" yMax="965">
      <component glyphName="C" x="0" y="0" flags="0x204"/>
      <component glyphName="caron" x="234" y="320" flags="0x4"/>
    </TTGlyph>
    <TTGlyph name="Ccedilla" xMin="71" yMin="-237" xMax="720" yMax="745">
      <contour>
        <pt x="436" y="-138" on="1"/>
        <pt x="436" y="-180" on="0"/>
        <pt x="374" y="-237" on="0"/>
        <pt x="323" y="-237" on="1"/>
        <pt x="268" y="-237" on="0"/>
        <pt x="217" y="-203" on="1"/>
        <pt x="248" y="-157" on="1"/>
        <pt x="288" y="-184" on="0"/>
        <pt x="328" y="-184" on="1"/>
        <pt x="347" y="-184" on="0"/>
        <pt x="374" y="-162" on="0"/>
        <pt x="374" y="-142" on="1"/>
        <pt x="374" y="-128" on="0"/>
        <pt x="338" y="-99" on="0"/>
        <pt x="291" y="-96" on="1"/>
        <pt x="288" y="-88" on="1"/>
        <pt x="327" y="-5" on="1"/>
        <pt x="275" y="5" on="0"/>
        <pt x="182" y="59" on="0"/>
        <pt x="112" y="141" on="0"/>
        <pt x="71" y="249" on="0"/>
        <pt x="71" y="314" on="1"/>
        <pt x="71" y="408" on="0"/>
        <pt x="143" y="566" on="0"/>
        <pt x="260" y="681" on="0"/>
        <pt x="411" y="745" on="0"/>
        <pt x="491" y="745" on="1"/>
        <pt x="525" y="745" on="0"/>
        <pt x="592" y="732" on="0"/>
        <pt x="651" y="711" on="0"/>
        <pt x="702" y="684" on="0"/>
        <pt x="720" y="670" on="1"/>
        <pt x="680" y="607" on="1"/>
        <pt x="645" y="635" on="0"/>
        <pt x="540" y="673" on="0"/>
        <pt x="479" y="673" on="1"/>
        <pt x="409" y="673" on="0"/>
        <pt x="290" y="616" on="0"/>
        <pt x="203" y="520" on="0"/>
        <pt x="153" y="392" on="0"/>
        <pt x="153" y="322" on="1"/>
        <pt x="153" y="261" on="0"/>
        <pt x="192" y="164" on="0"/>
        <pt x="260" y="96" on="0"/>
        <pt x="351" y="59" on="0"/>
        <pt x="403" y="59" on="1"/>
        <pt x="461" y="59" on="0"/>
        <pt x="558" y="95" on="0"/>
        <pt x="603" y="121" on="1"/>
        <pt x="634" y="57" on="1"/>
        <pt x="578" y="22" on="0"/>
        <pt x="463" y="-12" on="0"/>
        <pt x="393" y="-12" on="1"/>
        <pt x="388" y="-12" on="0"/>
        <pt x="378" y="-12" on="0"/>
        <pt x="373" y="-11" on="1"/>
        <pt x="355" y="-56" on="1"/>
        <pt x="397" y="-68" on="0"/>
        <pt x="436" y="-111" on="0"/>
      </contour>
    </TTGlyph>
    <TTGlyph name="Cdotaccent" xMin="71" yMin="-12" xMax="720" yMax="908">
      <component glyphName="C" x="0" y="0" flags="0x204"/>
      <component glyphName="dotaccent" x="225" y="320" flags="0x4"/>
    </TTGlyph>
    <TTGlyph name="D" xMin="38" yMin="-6" xMax="691" yMax="738">
      <contour>
        <pt x="223" y="-6" on="1"/>
        <pt x="179" y="-6" on="0"/>
        <pt x="85" y="2" on="0"/>
        <pt x="38" y="9" on="1"/>
        <pt x="177" y="726" on="1"/>
        <pt x="197" y="729" on="0"/>
        <pt x="232" y="734" on="0"/>
        <pt x="268" y="737" on="0"/>
        <pt x="308" y="738" on="0"/>
        <pt x="334" y="738" on="1"/>
        <pt x="421" y="738" on="0"/>
        <pt x="554" y="684" on="0"/>
        <pt x="601" y="637" on="1"/>
        <pt x="648" y="590" on="0"/>
        <pt x="691" y="471" on="0"/>
        <pt x="691" y="409" on="1"/>
        <pt x="691" y="321" on="0"/>
        <pt x="627" y="170" on="0"/>
        <pt x="506" y="58" on="0"/>
        <pt x="332" y="-6" on="0"/>
      </contour>
      <contour>
        <pt x="337" y="670" on="1"/>
        <pt x="311" y="670" on="0"/>
        <pt x="267" y="667" on="0"/>
        <pt x="244" y="663" on="1"/>
        <pt x="129" y="70" on="1"/>
        <pt x="155" y="66" on="0"/>
        <pt x="217" y="63" on="0"/>
        <pt x="248" y="63" on="1"/>
        <pt x="326" y="63" on="0"/>
        <pt x="458" y="114" on="0"/>
        <pt x="555" y="204" on="0"/>
        <pt x="609" y="327" on="0"/>
        <pt x="609" y="399" on="1"/>
        <pt x="609" y="468" on="0"/>
        <pt x="567" y="566" on="0"/>
        <pt x="536" y="597" on="1"/>
        <pt x="503" y="630" on="0"/>
        <pt x="403" y="670" on="0"/>
      </contour>
    </TTGlyph>
    <TTGlyph name="Dcaron" xMin="38" yMin="-6" xMax="691" yMax="965">
      <component glyphName="D" x="0" y="0" flags="0x204"/>
      <component glyphName="caron" x="162" y="320" flags="0x4"/>
    </TTGlyph>
    <TTGlyph name="Dcroat" xMin="31" yMin="-6" xMax="711" yMax="738">
      <component glyphName="Eth" x="0" y="0" flags="0x204"/>
    </TTGlyph>
    <TTGlyph name="E" xMin="36" yMin="0" xMax="589" yMax="733">
      <contour>
        <pt x="575" y="661" on="1"/>
        <pt x="244" y="661" on="1"/>
        <pt x="195" y="408" on="1"/>
        <pt x="491" y="408" on="1"/>
        <pt x="477" y="336" on="1"/>
        <pt x="181" y="336" on="1"/>
        <pt x="129" y="72" on="1"/>
        <pt x="461" y="72" on="1"/>
        <pt x="447" y="0" on="1"/>
        <pt x="36" y="0" on="1"/>
        <pt x="179" y="733" on="1"/>
        <pt x="589" y="733" on="1"/>
      </contour>
    </TTGlyph>
    <TTGlyph name="Eacute" xMin="36" yMin="0" xMax="589" yMax="965">
      <component glyphName="E" x="0" y="0" flags="0x204"/>
      <component glyphName="acute" x="176" y="320" flags="0x4"/>
    </TTGlyph>
    <TTGlyph name="Ebreve" xMin="36" yMin="0" xMax="589" yMax="949">
      <component glyphName="E" x="0" y="0" flags="0x204"/>
      <component glyphName="breve" x="133" y="320" flags="0x4"/>
    </TTGlyph>
    <TTGlyph name="Ecaron" xMin="36" yMin="0" xMax="589" yMax="965">
      <component glyphName="E" x="0" y="0" flags="0x204"/>
      <component glyphName="caron" x="132" y="320" flags="0x4"/>
    </TTGlyph>
    <TTGlyph name="Ecircumflex" xMin="36" yMin="0" xMax="589" yMax="965">
      <component glyphName="E" x="0" y="0" flags="0x204"/>
      <component glyphName="circumflex" x="122" y="320" flags="0x4"/>
    </TTGlyph>
    <TTGlyph name="Edieresis" xMin="36" yMin="0" xMax="589" yMax="908">
      <component glyphName="E" x="0" y="0" flags="0x204"/>
      <component glyphName="dieresis" x="127" y="320" flags="0x4"/>
    </TTGlyph>
    <TTGlyph name="Edotaccent" xMin="36" yMin="0" xMax="589" yMax="908">
      <component glyphName="E" x="0" y="0" flags="0x204"/>
      <component glyphName="dotaccent" x="123" y="320" flags="0x4"/>
    </TTGlyph>
    <TTGlyph name="Egrave" xMin="36" yMin="0" xMax="589" yMax="965">
      <component glyphName="E" x="0" y="0" flags="0x204"/>
      <component glyphName="grave" x="68" y="320" flags="0x4"/>
    </TTGlyph>
    <TTGlyph name="Emacron" xMin="36" yMin="0" xMax="589" yMax="890">
      <component glyphName="E" x="0" y="0" flags="0x204"/>
      <component glyphName="macron" x="128" y="320" flags="0x4"/>
    </TTGlyph>
    <TTGlyph name="Eogonek" xMin="36" yMin="-220" xMax="589" yMax="733">
      <contour>
        <pt x="419" y="-169" on="1"/>
        <pt x="394" y="-195" on="0"/>
        <pt x="349" y="-218" on="0"/>
        <pt x="321" y="-219" on="1"/>
        <pt x="287" y="-220" on="0"/>
        <pt x="250" y="-183" on="0"/>
        <pt x="250" y="-151" on="1"/>
        <pt x="250" y="-110" on="0"/>
        <pt x="302" y="-37" on="0"/>
        <pt x="345" y="0" on="1"/>
        <pt x="36" y="0" on="1"/>
        <pt x="179" y="733" on="1"/>
        <pt x="589" y="733" on="1"/>
        <pt x="575" y="661" on="1"/>
        <pt x="244" y="661" on="1"/>
        <pt x="195" y="408" on="1"/>
        <pt x="491" y="408" on="1"/>
        <pt x="477" y="336" on="1"/>
        <pt x="181" y="336" on="1"/>
        <pt x="129" y="72" on="1"/>
        <pt x="461" y="72" on="1"/>
        <pt x="447" y="0" on="1"/>
        <pt x="410" y="0" on="1"/>
        <pt x="398" y="-12" on="0"/>
        <pt x="365" y="-41" on="0"/>
        <pt x="336" y="-76" on="0"/>
        <pt x="316" y="-113" on="0"/>
        <pt x="316" y="-132" on="1"/>
        <pt x="316" y="-164" on="0"/>
        <pt x="342" y="-164" on="1"/>
        <pt x="353" y="-164" on="0"/>
        <pt x="375" y="-151" on="0"/>
        <pt x="392" y="-136" on="1"/>
      </contour>
    </TTGlyph>
    <TTGlyph name="Eth" xMin="31" yMin="-6" xMax="711" yMax="738">
      <contour>
        <pt x="711" y="409" on="1"/>
        <pt x="711" y="321" on="0"/>
        <pt x="647" y="170" on="0"/>
        <pt x="526" y="58" on="0"/>
        <pt x="352" y="-6" on="0"/>
        <pt x="243" y="-6" on="1"/>
        <pt x="199" y="-6" on="0"/>
        <pt x="105" y="2" on="0"/>
        <pt x="58" y="9" on="1"/>
        <pt x="121" y="336" on="1"/>
        <pt x="31" y="336" on="1"/>
        <pt x="45" y="408" on="1"/>
        <pt x="135" y="408" on="1"/>
        <pt x="197" y="726" on="1"/>
        <pt x="217" y="729" on="0"/>
        <pt x="252" y="734" on="0"/>
        <pt x="288" y="737" on="0"/>
        <pt x="328" y="738" on="0"/>
        <pt x="354" y="738" on="1"/>
        <pt x="441" y="738" on="0"/>
        <pt x="574" y="684" on="0"/>
        <pt x="621" y="637" on="1"/>
        <pt x="668" y="590" on="0"/>
        <pt x="711" y="471" on="0"/>
      </contour>
      <contour>
        <pt x="629" y="399" on="1"/>
        <pt x="629" y="468" on="0"/>
        <pt x="587" y="566" on="0"/>
        <pt x="556" y="597" on="1"/>
        <pt x="523" y="630" on="0"/>
        <pt x="423" y="670" on="0"/>
        <pt x="357" y="670" on="1"/>
        <pt x="331" y="670" on="0"/>
        <pt x="287" y="667" on="0"/>
        <pt x="264" y="663" on="1"/>
        <pt x="214" y="408" on="1"/>
        <pt x="324" y="408" on="1"/>
        <pt x="310" y="336" on="1"/>
        <pt x="200" y="336" on="1"/>
        <pt x="149" y="70" on="1"/>
        <pt x="175" y="66" on="0"/>
        <pt x="237" y="63" on="0"/>
        <pt x="268" y="63" on="1"/>
        <pt x="346" y="63" on="0"/>
        <pt x="478" y="114" on="0"/>
        <pt x="575" y="204" on="0"/>
        <pt x="629" y="327" on="0"/>
      </contour>
    </TTGlyph>
    <TTGlyph name="Euro" xMin="24" yMin="-10" xMax="617" yMax="586">
      <contour>
        <pt x="102" y="249" on="1"/>
        <pt x="102" y="269" on="0"/>
        <pt x="107" y="307" on="0"/>
        <pt x="111" y="325" on="1"/>
        <pt x="51" y="325" on="1"/>
        <pt x="64" y="393" on="1"/>
        <pt x="135" y="393" on="1"/>
        <pt x="156" y="437" on="0"/>
        <pt x="221" y="509" on="0"/>
        <pt x="300" y="559" on="0"/>
        <pt x="390" y="586" on="0"/>
        <pt x="436" y="586" on="1"/>
        <pt x="491" y="586" on="0"/>
        <pt x="588" y="549" on="0"/>
        <pt x="617" y="527" on="1"/>
        <pt x="578" y="467" on="1"/>
        <pt x="551" y="487" on="0"/>
        <pt x="469" y="517" on="0"/>
        <pt x="423" y="517" on="1"/>
        <pt x="357" y="517" on="0"/>
        <pt x="250" y="448" on="0"/>
        <pt x="218" y="393" on="1"/>
        <pt x="506" y="393" on="1"/>
        <pt x="493" y="325" on="1"/>
        <pt x="190" y="325" on="1"/>
        <pt x="180" y="289" on="0"/>
        <pt x="180" y="249" on="1"/>
        <pt x="478" y="249" on="1"/>
        <pt x="465" y="183" on="1"/>
        <pt x="189" y="183" on="1"/>
        <pt x="208" y="121" on="0"/>
        <pt x="307" y="59" on="0"/>
        <pt x="371" y="59" on="1"/>
        <pt x="412" y="59" on="0"/>
        <pt x="485" y="82" on="0"/>
        <pt x="519" y="101" on="1"/>
        <pt x="541" y="38" on="1"/>
        <pt x="497" y="15" on="0"/>
        <pt x="410" y="-10" on="0"/>
        <pt x="358" y="-10" on="1"/>
        <pt x="316" y="-10" on="0"/>
        <pt x="235" y="16" on="0"/>
        <pt x="168" y="65" on="0"/>
        <pt x="119" y="137" on="0"/>
        <pt x="109" y="183" on="1"/>
        <pt x="24" y="183" on="1"/>
        <pt x="36" y="249" on="1"/>
      </contour>
    </TTGlyph>
    <TTGlyph name="Euro.lin" xMin="33" yMin="-12" xMax="782" yMax="745">
      <contour>
        <pt x="167" y="487" on="1"/>
        <pt x="193" y="545" on="0"/>
        <pt x="275" y="641" on="0"/>
        <pt x="377" y="708" on="0"/>
        <pt x="493" y="745" on="0"/>
        <pt x="552" y="745" on="1"/>
        <pt x="586" y="745" on="0"/>
        <pt x="653" y="732" on="0"/>
        <pt x="713" y="711" on="0"/>
        <pt x="764" y="683" on="0"/>
        <pt x="782" y="669" on="1"/>
        <pt x="741" y="604" on="1"/>
        <pt x="706" y="632" on="0"/>
        <pt x="600" y="669" on="0"/>
        <pt x="540" y="669" on="1"/>
        <pt x="491" y="669" on="0"/>
        <pt x="405" y="641" on="0"/>
        <pt x="333" y="592" on="0"/>
        <pt x="275" y="526" on="0"/>
        <pt x="256" y="487" on="1"/>
        <pt x="638" y="487" on="1"/>
        <pt x="625" y="419" on="1"/>
        <pt x="229" y="419" on="1"/>
        <pt x="217" y="372" on="0"/>
        <pt x="217" y="326" on="1"/>
        <pt x="217" y="314" on="1"/>
        <pt x="606" y="314" on="1"/>
        <pt x="593" y="246" on="1"/>
        <pt x="227" y="246" on="1"/>
        <pt x="238" y="204" on="0"/>
        <pt x="282" y="136" on="0"/>
        <pt x="344" y="88" on="0"/>
        <pt x="421" y="62" on="0"/>
        <pt x="465" y="62" on="1"/>
        <pt x="520" y="62" on="0"/>
        <pt x="620" y="97" on="0"/>
        <pt x="665" y="123" on="1"/>
        <pt x="697" y="57" on="1"/>
        <pt x="643" y="23" on="0"/>
        <pt x="524" y="-12" on="0"/>
        <pt x="455" y="-12" on="1"/>
        <pt x="402" y="-12" on="0"/>
        <pt x="298" y="22" on="0"/>
        <pt x="212" y="88" on="0"/>
        <pt x="150" y="184" on="0"/>
        <pt x="138" y="246" on="1"/>
        <pt x="33" y="246" on="1"/>
        <pt x="47" y="314" on="1"/>
        <pt x="131" y="314" on="1"/>
        <pt x="131" y="317" on="1"/>
        <pt x="131" y="369" on="0"/>
        <pt x="143" y="419" on="1"/>
        <pt x="65" y="419" on="1"/>
        <pt x="79" y="487" on="1"/>
      </contour>
    </TTGlyph>
    <TTGlyph name="F" xMin="36" yMin="0" xMax="589" yMax="733">
      <contour>
        <pt x="575" y="661" on="1"/>
        <pt x="244" y="661" on="1"/>
        <pt x="192" y="394" on="1"/>
        <pt x="489" y="394" on="1"/>
        <pt x="475" y="322" on="1"/>
        <pt x="178" y="322" on="1"/>
        <pt x="115" y="0" on="1"/>
        <pt x="36" y="0" on="1"/>
        <pt x="179" y="733" on="1"/>
        <pt x="589" y="733" on="1"/>
      </contour>
    </TTGlyph>
    <TTGlyph name="G" xMin="71" yMin="-12" xMax="729" yMax="745">
      <contour>
        <pt x="649" y="66" on="1"/>
        <pt x="619" y="46" on="0"/>
        <pt x="561" y="17" on="0"/>
        <pt x="500" y="-3" on="0"/>
        <pt x="433" y="-12" on="0"/>
        <pt x="393" y="-12" on="1"/>
        <pt x="331" y="-12" on="0"/>
        <pt x="215" y="34" on="0"/>
        <pt x="125" y="119" on="0"/>
        <pt x="71" y="239" on="0"/>
        <pt x="71" y="314" on="1"/>
        <pt x="71" y="408" on="0"/>
        <pt x="143" y="566" on="0"/>
        <pt x="260" y="681" on="0"/>
        <pt x="411" y="745" on="0"/>
        <pt x="490" y="745" on="1"/>
        <pt x="525" y="745" on="0"/>
        <pt x="594" y="732" on="0"/>
        <pt x="657" y="711" on="0"/>
        <pt x="711" y="684" on="0"/>
        <pt x="729" y="670" on="1"/>
        <pt x="689" y="607" on="1"/>
        <pt x="672" y="621" on="0"/>
        <pt x="624" y="645" on="0"/>
        <pt x="569" y="663" on="0"/>
        <pt x="508" y="673" on="0"/>
        <pt x="478" y="673" on="1"/>
        <pt x="409" y="673" on="0"/>
        <pt x="290" y="616" on="0"/>
        <pt x="203" y="520" on="0"/>
        <pt x="153" y="392" on="0"/>
        <pt x="153" y="322" on="1"/>
        <pt x="153" y="261" on="0"/>
        <pt x="192" y="164" on="0"/>
        <pt x="260" y="96" on="0"/>
        <pt x="351" y="59" on="0"/>
        <pt x="403" y="59" on="1"/>
        <pt x="462" y="59" on="0"/>
        <pt x="545" y="86" on="0"/>
        <pt x="578" y="107" on="1"/>
        <pt x="614" y="291" on="1"/>
        <pt x="419" y="291" on="1"/>
        <pt x="433" y="363" on="1"/>
        <pt x="707" y="363" on="1"/>
      </contour>
    </TTGlyph>
    <TTGlyph name="G.alt" xMin="72" yMin="-12" xMax="791" yMax="745">
      <contour>
        <pt x="791" y="344" on="1"/>
        <pt x="777" y="264" on="0"/>
        <pt x="714" y="133" on="0"/>
        <pt x="618" y="39" on="0"/>
        <pt x="490" y="-12" on="0"/>
        <pt x="411" y="-12" on="1"/>
        <pt x="343" y="-12" on="0"/>
        <pt x="220" y="36" on="0"/>
        <pt x="127" y="122" on="0"/>
        <pt x="72" y="243" on="0"/>
        <pt x="72" y="317" on="1"/>
        <pt x="72" y="411" on="0"/>
        <pt x="143" y="568" on="0"/>
        <pt x="261" y="682" on="0"/>
        <pt x="411" y="745" on="0"/>
        <pt x="491" y="745" on="1"/>
        <pt x="525" y="745" on="0"/>
        <pt x="595" y="732" on="0"/>
        <pt x="658" y="711" on="0"/>
        <pt x="711" y="684" on="0"/>
        <pt x="729" y="670" on="1"/>
        <pt x="689" y="607" on="1"/>
        <pt x="654" y="635" on="0"/>
        <pt x="540" y="673" on="0"/>
        <pt x="479" y="673" on="1"/>
        <pt x="409" y="673" on="0"/>
        <pt x="290" y="616" on="0"/>
        <pt x="203" y="518" on="0"/>
        <pt x="153" y="390" on="0"/>
        <pt x="153" y="320" on="1"/>
        <pt x="153" y="263" on="0"/>
        <pt x="191" y="167" on="0"/>
        <pt x="263" y="98" on="0"/>
        <pt x="364" y="59" on="0"/>
        <pt x="427" y="59" on="1"/>
        <pt x="474" y="59" on="0"/>
        <pt x="560" y="90" on="0"/>
        <pt x="630" y="146" on="0"/>
        <pt x="682" y="225" on="0"/>
        <pt x="696" y="273" on="1"/>
        <pt x="394" y="273" on="1"/>
        <pt x="408" y="344" on="1"/>
      </contour>
    </TTGlyph>
    <TTGlyph name="Gbreve" xMin="71" yMin="-12" xMax="729" yMax="949">
      <component glyphName="G" x="0" y="0" flags="0x204"/>
      <component glyphName="breve" x="239" y="320" flags="0x4"/>
    </TTGlyph>
    <TTGlyph name="Gbreve.alt" xMin="72" yMin="-12" xMax="791" yMax="949">
      <component glyphName="G.alt" x="0" y="0" flags="0x204"/>
      <component glyphName="breve" x="239" y="320" flags="0x4"/>
    </TTGlyph>
    <TTGlyph name="Gcommaaccent" xMin="71" yMin="-288" xMax="729" yMax="745">
      <component glyphName="G" x="0" y="0" flags="0x204"/>
      <component glyphName="commaaccent" x="193" y="0" flags="0x4"/>
    </TTGlyph>
    <TTGlyph name="Gcommaaccent.alt" xMin="72" yMin="-288" xMax="791" yMax="745">
      <component glyphName="G.alt" x="0" y="0" flags="0x204"/>
      <component glyphName="commaaccent" x="238" y="0" flags="0x4"/>
    </TTGlyph>
    <TTGlyph name="Gdotaccent" xMin="71" yMin="-12" xMax="729" yMax="908">
      <component glyphName="G" x="0" y="0" flags="0x204"/>
      <component glyphName="dotaccent" x="229" y="320" flags="0x4"/>
    </TTGlyph>
    <TTGlyph name="Gdotaccent.alt" xMin="72" yMin="-12" xMax="791" yMax="908">
      <component glyphName="G.alt" x="0" y="0" flags="0x204"/>
      <component glyphName="dotaccent" x="229" y="320" flags="0x4"/>
    </TTGlyph>
    <TTGlyph name="H" xMin="36" yMin="0" xMax="713" yMax="733">
      <contour>
        <pt x="570" y="0" on="1"/>
        <pt x="491" y="0" on="1"/>
        <pt x="556" y="336" on="1"/>
        <pt x="181" y="336" on="1"/>
        <pt x="115" y="0" on="1"/>
        <pt x="36" y="0" on="1"/>
        <pt x="179" y="733" on="1"/>
        <pt x="258" y="733" on="1"/>
        <pt x="195" y="408" on="1"/>
        <pt x="570" y="408" on="1"/>
        <pt x="634" y="733" on="1"/>
        <pt x="713" y="733" on="1"/>
      </contour>
    </TTGlyph>
    <TTGlyph name="Hbar" xMin="46" yMin="0" xMax="779" yMax="733">
      <contour>
        <pt x="699" y="611" on="1"/>
        <pt x="779" y="611" on="1"/>
        <pt x="766" y="543" on="1"/>
        <pt x="686" y="543" on="1"/>
        <pt x="580" y="0" on="1"/>
        <pt x="501" y="0" on="1"/>
        <pt x="566" y="336" on="1"/>
        <pt x="191" y="336" on="1"/>
        <pt x="125" y="0" on="1"/>
        <pt x="46" y="0" on="1"/>
        <pt x="152" y="543" on="1"/>
        <pt x="72" y="543" on="1"/>
        <pt x="85" y="611" on="1"/>
        <pt x="165" y="611" on="1"/>
        <pt x="189" y="733" on="1"/>
        <pt x="268" y="733" on="1"/>
        <pt x="244" y="611" on="1"/>
        <pt x="620" y="611" on="1"/>
        <pt x="644" y="733" on="1"/>
        <pt x="723" y="733" on="1"/>
      </contour>
      <contour>
        <pt x="580" y="408" on="1"/>
        <pt x="606" y="543" on="1"/>
        <pt x="231" y="543" on="1"/>
        <pt x="205" y="408" on="1"/>
      </contour>
    </TTGlyph>
    <TTGlyph name="I" xMin="42" yMin="0" xMax="264" yMax="733">
      <contour>
        <pt x="121" y="0" on="1"/>
        <pt x="42" y="0" on="1"/>
        <pt x="185" y="733" on="1"/>
        <pt x="264" y="733" on="1"/>
      </contour>
    </TTGlyph>
    <TTGlyph name="Iacute" xMin="42" yMin="0" xMax="396" yMax="965">
      <component glyphName="I" x="0" y="0" flags="0x204"/>
      <component glyphName="acute" x="17" y="320" flags="0x4"/>
    </TTGlyph>
    <TTGlyph name="Ibreve" xMin="42" yMin="0" xMax="405" yMax="949">
      <component glyphName="I" x="0" y="0" flags="0x204"/>
      <component glyphName="breve" x="-25" y="320" flags="0x4"/>
    </TTGlyph>
    <TTGlyph name="Icircumflex" xMin="42" yMin="0" xMax="381" yMax="965">
      <component glyphName="I" x="0" y="0" flags="0x204"/>
      <component glyphName="circumflex" x="-36" y="320" flags="0x4"/>
    </TTGlyph>
    <TTGlyph name="Idieresis" xMin="42" yMin="0" xMax="383" yMax="908">
      <component glyphName="I" x="0" y="0" flags="0x204"/>
      <component glyphName="dieresis" x="-31" y="320" flags="0x4"/>
    </TTGlyph>
    <TTGlyph name="Idotaccent" xMin="42" yMin="0" xMax="297" yMax="908">
      <component glyphName="I" x="0" y="0" flags="0x204"/>
      <component glyphName="dotaccent" x="-35" y="320" flags="0x4"/>
    </TTGlyph>
    <TTGlyph name="Igrave" xMin="42" yMin="0" xMax="292" yMax="965">
      <component glyphName="I" x="0" y="0" flags="0x204"/>
      <component glyphName="grave" x="-90" y="320" flags="0x4"/>
    </TTGlyph>
    <TTGlyph name="Imacron" xMin="42" yMin="0" xMax="395" yMax="890">
      <component glyphName="I" x="0" y="0" flags="0x204"/>
      <component glyphName="macron" x="-30" y="320" flags="0x4"/>
    </TTGlyph>
    <TTGlyph name="Iogonek" xMin="-44" yMin="-220" xMax="264" yMax="733">
      <contour>
        <pt x="121" y="0" on="1"/>
        <pt x="116" y="0" on="1"/>
        <pt x="104" y="-12" on="0"/>
        <pt x="71" y="-41" on="0"/>
        <pt x="42" y="-76" on="0"/>
        <pt x="22" y="-113" on="0"/>
        <pt x="22" y="-132" on="1"/>
        <pt x="22" y="-164" on="0"/>
        <pt x="48" y="-164" on="1"/>
        <pt x="59" y="-164" on="0"/>
        <pt x="81" y="-151" on="0"/>
        <pt x="98" y="-136" on="1"/>
        <pt x="125" y="-169" on="1"/>
        <pt x="100" y="-195" on="0"/>
        <pt x="55" y="-218" on="0"/>
        <pt x="27" y="-219" on="1"/>
        <pt x="-7" y="-220" on="0"/>
        <pt x="-44" y="-183" on="0"/>
        <pt x="-44" y="-151" on="1"/>
        <pt x="-44" y="-110" on="0"/>
        <pt x="9" y="-37" on="0"/>
        <pt x="51" y="0" on="1"/>
        <pt x="42" y="0" on="1"/>
        <pt x="185" y="733" on="1"/>
        <pt x="264" y="733" on="1"/>
      </contour>
    </TTGlyph>
    <TTGlyph name="J" xMin="-20" yMin="-12" xMax="464" yMax="733">
      <contour>
        <pt x="362" y="209" on="1"/>
        <pt x="352" y="159" on="0"/>
        <pt x="318" y="78" on="0"/>
        <pt x="264" y="20" on="0"/>
        <pt x="189" y="-12" on="0"/>
        <pt x="139" y="-12" on="1"/>
        <pt x="91" y="-12" on="0"/>
        <pt x="6" y="22" on="0"/>
        <pt x="-20" y="46" on="1"/>
        <pt x="28" y="103" on="1"/>
        <pt x="51" y="83" on="0"/>
        <pt x="108" y="61" on="0"/>
        <pt x="143" y="61" on="1"/>
        <pt x="207" y="61" on="0"/>
        <pt x="270" y="139" on="0"/>
        <pt x="285" y="219" on="1"/>
        <pt x="385" y="733" on="1"/>
        <pt x="464" y="733" on="1"/>
      </contour>
    </TTGlyph>
    <TTGlyph name="K" xMin="36" yMin="0" xMax="661" yMax="733">
      <contour>
        <pt x="267" y="373" on="1"/>
        <pt x="534" y="0" on="1"/>
        <pt x="434" y="0" on="1"/>
        <pt x="186" y="360" on="1"/>
        <pt x="115" y="0" on="1"/>
        <pt x="36" y="0" on="1"/>
        <pt x="179" y="733" on="1"/>
        <pt x="258" y="733" on="1"/>
        <pt x="192" y="392" on="1"/>
        <pt x="554" y="733" on="1"/>
        <pt x="661" y="733" on="1"/>
      </contour>
    </TTGlyph>
    <TTGlyph name="Kcommaaccent" xMin="36" yMin="-288" xMax="661" yMax="733">
      <component glyphName="K" x="0" y="0" flags="0x204"/>
      <component glyphName="commaaccent" x="113" y="0" flags="0x4"/>
    </TTGlyph>
    <TTGlyph name="L" xMin="36" yMin="0" xMax="460" yMax="733">
      <contour>
        <pt x="446" y="0" on="1"/>
        <pt x="36" y="0" on="1"/>
        <pt x="179" y="733" on="1"/>
        <pt x="258" y="733" on="1"/>
        <pt x="129" y="72" on="1"/>
        <pt x="460" y="72" on="1"/>
      </contour>
    </TTGlyph>
    <TTGlyph name="Lacute" xMin="36" yMin="0" xMax="460" yMax="965">
      <component glyphName="L" x="0" y="0" flags="0x204"/>
      <component glyphName="acute" x="40" y="320" flags="0x4"/>
    </TTGlyph>
    <TTGlyph name="Lcaron" xMin="36" yMin="0" xMax="460" yMax="733">
      <component glyphName="L" x="0" y="0" flags="0x204"/>
      <component glyphName="caron.alt" x="258" y="-15" flags="0x4"/>
    </TTGlyph>
    <TTGlyph name="Lcommaaccent" xMin="36" yMin="-288" xMax="460" yMax="733">
      <component glyphName="L" x="0" y="0" flags="0x204"/>
      <component glyphName="commaaccent" x="84" y="0" flags="0x4"/>
    </TTGlyph>
    <TTGlyph name="Ldot" xMin="36" yMin="0" xMax="460" yMax="733">
      <contour>
        <pt x="446" y="0" on="1"/>
        <pt x="36" y="0" on="1"/>
        <pt x="179" y="733" on="1"/>
        <pt x="258" y="733" on="1"/>
        <pt x="129" y="72" on="1"/>
        <pt x="460" y="72" on="1"/>
      </contour>
      <contour>
        <pt x="458" y="363" on="1"/>
        <pt x="458" y="343" on="0"/>
        <pt x="431" y="316" on="0"/>
        <pt x="411" y="316" on="1"/>
        <pt x="392" y="316" on="0"/>
        <pt x="365" y="343" on="0"/>
        <pt x="365" y="363" on="1"/>
        <pt x="365" y="383" on="0"/>
        <pt x="392" y="410" on="0"/>
        <pt x="411" y="410" on="1"/>
        <pt x="431" y="410" on="0"/>
        <pt x="458" y="383" on="0"/>
      </contour>
    </TTGlyph>
    <TTGlyph name="Lslash" xMin="48" yMin="0" xMax="475" yMax="733">
      <contour>
        <pt x="461" y="0" on="1"/>
        <pt x="51" y="0" on="1"/>
        <pt x="110" y="303" on="1"/>
        <pt x="48" y="277" on="1"/>
        <pt x="63" y="356" on="1"/>
        <pt x="125" y="382" on="1"/>
        <pt x="194" y="733" on="1"/>
        <pt x="273" y="733" on="1"/>
        <pt x="212" y="419" on="1"/>
        <pt x="308" y="458" on="1"/>
        <pt x="293" y="379" on="1"/>
        <pt x="196" y="339" on="1"/>
        <pt x="144" y="72" on="1"/>
        <pt x="475" y="72" on="1"/>
      </contour>
    </TTGlyph>
    <TTGlyph name="M" xMin="27" yMin="0" xMax="842" yMax="747">
      <contour>
        <pt x="725" y="0" on="1"/>
        <pt x="644" y="0" on="1"/>
        <pt x="734" y="510" on="1"/>
        <pt x="403" y="75" on="1"/>
        <pt x="393" y="75" on="1"/>
        <pt x="217" y="528" on="1"/>
        <pt x="108" y="0" on="1"/>
        <pt x="27" y="0" on="1"/>
        <pt x="199" y="745" on="1"/>
        <pt x="213" y="747" on="1"/>
        <pt x="418" y="195" on="1"/>
        <pt x="825" y="747" on="1"/>
        <pt x="842" y="745" on="1"/>
      </contour>
    </TTGlyph>
    <TTGlyph name="M.alt" xMin="27" yMin="0" xMax="842" yMax="747">
      <contour>
        <pt x="725" y="0" on="1"/>
        <pt x="644" y="0" on="1"/>
        <pt x="737" y="532" on="1"/>
        <pt x="418" y="155" on="1"/>
        <pt x="408" y="155" on="1"/>
        <pt x="222" y="550" on="1"/>
        <pt x="108" y="0" on="1"/>
        <pt x="27" y="0" on="1"/>
        <pt x="199" y="745" on="1"/>
        <pt x="213" y="747" on="1"/>
        <pt x="430" y="263" on="1"/>
        <pt x="825" y="747" on="1"/>
        <pt x="842" y="745" on="1"/>
      </contour>
    </TTGlyph>
    <TTGlyph name="N" xMin="36" yMin="-14" xMax="726" yMax="747">
      <contour>
        <pt x="581" y="-11" on="1"/>
        <pt x="570" y="-14" on="1"/>
        <pt x="225" y="561" on="1"/>
        <pt x="115" y="0" on="1"/>
        <pt x="36" y="0" on="1"/>
        <pt x="181" y="743" on="1"/>
        <pt x="197" y="747" on="1"/>
        <pt x="539" y="181" on="1"/>
        <pt x="647" y="733" on="1"/>
        <pt x="726" y="733" on="1"/>
      </contour>
    </TTGlyph>
    <TTGlyph name="Nacute" xMin="36" yMin="-14" xMax="726" yMax="950">
      <component glyphName="N" x="0" y="0" flags="0x204"/>
      <component glyphName="acute" x="242" y="305" flags="0x4"/>
    </TTGlyph>
    <TTGlyph name="Ncaron" xMin="36" yMin="-14" xMax="726" yMax="950">
      <component glyphName="N" x="0" y="0" flags="0x204"/>
      <component glyphName="caron" x="198" y="305" flags="0x4"/>
    </TTGlyph>
    <TTGlyph name="Ncommaaccent" xMin="36" yMin="-288" xMax="726" yMax="747">
      <component glyphName="N" x="0" y="0" flags="0x204"/>
      <component glyphName="commaaccent" x="156" y="0" flags="0x4"/>
    </TTGlyph>
    <TTGlyph name="Ntilde" xMin="36" yMin="-14" xMax="726" yMax="905">
      <component glyphName="N" x="0" y="0" flags="0x204"/>
      <component glyphName="tilde" x="194" y="305" flags="0x4"/>
    </TTGlyph>
    <TTGlyph name="O" xMin="72" yMin="-12" xMax="797" yMax="745">
      <contour>
        <pt x="797" y="414" on="1"/>
        <pt x="797" y="342" on="0"/>
        <pt x="743" y="191" on="0"/>
        <pt x="640" y="67" on="0"/>
        <pt x="491" y="-12" on="0"/>
        <pt x="397" y="-12" on="1"/>
        <pt x="326" y="-12" on="0"/>
        <pt x="207" y="35" on="0"/>
        <pt x="121" y="121" on="0"/>
        <pt x="72" y="243" on="0"/>
        <pt x="72" y="319" on="1"/>
        <pt x="72" y="391" on="0"/>
        <pt x="126" y="542" on="0"/>
        <pt x="229" y="666" on="0"/>
        <pt x="378" y="745" on="0"/>
        <pt x="472" y="745" on="1"/>
        <pt x="542" y="745" on="0"/>
        <pt x="662" y="698" on="0"/>
        <pt x="748" y="612" on="0"/>
        <pt x="797" y="489" on="0"/>
      </contour>
      <contour>
        <pt x="717" y="414" on="1"/>
        <pt x="717" y="471" on="0"/>
        <pt x="683" y="567" on="0"/>
        <pt x="619" y="635" on="0"/>
        <pt x="529" y="673" on="0"/>
        <pt x="473" y="673" on="1"/>
        <pt x="404" y="673" on="0"/>
        <pt x="286" y="617" on="0"/>
        <pt x="201" y="520" on="0"/>
        <pt x="153" y="391" on="0"/>
        <pt x="153" y="318" on="1"/>
        <pt x="153" y="261" on="0"/>
        <pt x="187" y="166" on="0"/>
        <pt x="250" y="97" on="0"/>
        <pt x="340" y="59" on="0"/>
        <pt x="396" y="59" on="1"/>
        <pt x="465" y="59" on="0"/>
        <pt x="583" y="115" on="0"/>
        <pt x="669" y="212" on="0"/>
        <pt x="717" y="341" on="0"/>
      </contour>
    </TTGlyph>
    <TTGlyph name="OE" xMin="74" yMin="-6" xMax="1060" yMax="738">
      <contour>
        <pt x="1046" y="661" on="1"/>
        <pt x="715" y="661" on="1"/>
        <pt x="666" y="408" on="1"/>
        <pt x="962" y="408" on="1"/>
        <pt x="948" y="336" on="1"/>
        <pt x="652" y="336" on="1"/>
        <pt x="600" y="72" on="1"/>
        <pt x="932" y="72" on="1"/>
        <pt x="918" y="0" on="1"/>
        <pt x="542" y="0" on="1"/>
        <pt x="517" y="0" on="0"/>
        <pt x="467" y="-6" on="0"/>
        <pt x="432" y="-6" on="1"/>
        <pt x="343" y="-6" on="0"/>
        <pt x="209" y="51" on="0"/>
        <pt x="119" y="144" on="0"/>
        <pt x="74" y="262" on="0"/>
        <pt x="74" y="324" on="1"/>
        <pt x="74" y="411" on="0"/>
        <pt x="138" y="563" on="0"/>
        <pt x="259" y="674" on="0"/>
        <pt x="433" y="738" on="0"/>
        <pt x="542" y="738" on="1"/>
        <pt x="568" y="738" on="0"/>
        <pt x="624" y="735" on="0"/>
        <pt x="651" y="733" on="1"/>
        <pt x="1060" y="733" on="1"/>
      </contour>
      <contour>
        <pt x="428" y="63" on="1"/>
        <pt x="453" y="63" on="0"/>
        <pt x="498" y="65" on="0"/>
        <pt x="521" y="70" on="1"/>
        <pt x="636" y="663" on="1"/>
        <pt x="609" y="667" on="0"/>
        <pt x="548" y="670" on="0"/>
        <pt x="517" y="670" on="1"/>
        <pt x="439" y="670" on="0"/>
        <pt x="307" y="619" on="0"/>
        <pt x="210" y="529" on="0"/>
        <pt x="156" y="406" on="0"/>
        <pt x="156" y="334" on="1"/>
        <pt x="156" y="265" on="0"/>
        <pt x="198" y="167" on="0"/>
        <pt x="229" y="136" on="1"/>
        <pt x="262" y="103" on="0"/>
        <pt x="362" y="63" on="0"/>
      </contour>
    </TTGlyph>
    <TTGlyph name="Oacute" xMin="72" yMin="-12" xMax="797" yMax="965">
      <component glyphName="O" x="0" y="0" flags="0x204"/>
      <component glyphName="acute" x="298" y="320" flags="0x4"/>
    </TTGlyph>
    <TTGlyph name="Obreve" xMin="72" yMin="-12" xMax="797" yMax="949">
      <component glyphName="O" x="0" y="0" flags="0x204"/>
      <component glyphName="breve" x="255" y="320" flags="0x4"/>
    </TTGlyph>
    <TTGlyph name="Ocircumflex" xMin="72" yMin="-12" xMax="797" yMax="965">
      <component glyphName="O" x="0" y="0" flags="0x204"/>
      <component glyphName="circumflex" x="244" y="320" flags="0x4"/>
    </TTGlyph>
    <TTGlyph name="Odieresis" xMin="72" yMin="-12" xMax="797" yMax="908">
      <component glyphName="O" x="0" y="0" flags="0x204"/>
      <component glyphName="dieresis" x="249" y="320" flags="0x4"/>
    </TTGlyph>
    <TTGlyph name="Ograve" xMin="72" yMin="-12" xMax="797" yMax="965">
      <component glyphName="O" x="0" y="0" flags="0x204"/>
      <component glyphName="grave" x="190" y="320" flags="0x4"/>
    </TTGlyph>
    <TTGlyph name="Ohungarumlaut" xMin="72" yMin="-12" xMax="797" yMax="998">
      <component glyphName="O" x="0" y="0" flags="0x204"/>
      <component glyphName="hungarumlaut" x="296" y="320" flags="0x4"/>
    </TTGlyph>
    <TTGlyph name="Omacron" xMin="72" yMin="-12" xMax="797" yMax="890">
      <component glyphName="O" x="0" y="0" flags="0x204"/>
      <component glyphName="macron" x="250" y="320" flags="0x4"/>
    </TTGlyph>
    <TTGlyph name="Oslash" xMin="49" yMin="-12" xMax="820" yMax="745">
      <contour>
        <pt x="797" y="414" on="1"/>
        <pt x="797" y="342" on="0"/>
        <pt x="743" y="191" on="0"/>
        <pt x="640" y="67" on="0"/>
        <pt x="491" y="-12" on="0"/>
        <pt x="397" y="-12" on="1"/>
        <pt x="329" y="-12" on="0"/>
        <pt x="216" y="30" on="0"/>
        <pt x="173" y="69" on="1"/>
        <pt x="93" y="-6" on="1"/>
        <pt x="49" y="46" on="1"/>
        <pt x="128" y="121" on="1"/>
        <pt x="102" y="161" on="0"/>
        <pt x="72" y="260" on="0"/>
        <pt x="72" y="319" on="1"/>
        <pt x="72" y="391" on="0"/>
        <pt x="126" y="542" on="0"/>
        <pt x="229" y="666" on="0"/>
        <pt x="378" y="745" on="0"/>
        <pt x="472" y="745" on="1"/>
        <pt x="540" y="745" on="0"/>
        <pt x="654" y="702" on="0"/>
        <pt x="697" y="662" on="1"/>
        <pt x="776" y="738" on="1"/>
        <pt x="820" y="686" on="1"/>
        <pt x="740" y="611" on="1"/>
        <pt x="767" y="571" on="0"/>
        <pt x="797" y="472" on="0"/>
      </contour>
      <contour>
        <pt x="717" y="414" on="1"/>
        <pt x="717" y="494" on="0"/>
        <pt x="683" y="556" on="1"/>
        <pt x="228" y="122" on="1"/>
        <pt x="259" y="92" on="0"/>
        <pt x="344" y="59" on="0"/>
        <pt x="396" y="59" on="1"/>
        <pt x="465" y="59" on="0"/>
        <pt x="583" y="115" on="0"/>
        <pt x="669" y="212" on="0"/>
        <pt x="717" y="341" on="0"/>
      </contour>
      <contour>
        <pt x="153" y="318" on="1"/>
        <pt x="153" y="277" on="0"/>
        <pt x="170" y="206" on="0"/>
        <pt x="186" y="176" on="1"/>
        <pt x="642" y="610" on="1"/>
        <pt x="610" y="640" on="0"/>
        <pt x="525" y="673" on="0"/>
        <pt x="473" y="673" on="1"/>
        <pt x="404" y="673" on="0"/>
        <pt x="286" y="617" on="0"/>
        <pt x="201" y="520" on="0"/>
        <pt x="153" y="391" on="0"/>
      </contour>
    </TTGlyph>
    <TTGlyph name="Oslashacute" xMin="49" yMin="-12" xMax="820" yMax="965">
      <component glyphName="Oslash" x="0" y="0" flags="0x204"/>
      <component glyphName="acute" x="298" y="320" flags="0x4"/>
    </TTGlyph>
    <TTGlyph name="Otilde" xMin="72" yMin="-12" xMax="797" yMax="920">
      <component glyphName="O" x="0" y="0" flags="0x204"/>
      <component glyphName="tilde" x="250" y="320" flags="0x4"/>
    </TTGlyph>
    <TTGlyph name="P" xMin="36" yMin="0" xMax="562" yMax="738">
      <contour>
        <pt x="562" y="516" on="1"/>
        <pt x="562" y="459" on="0"/>
        <pt x="522" y="363" on="0"/>
        <pt x="442" y="293" on="0"/>
        <pt x="325" y="253" on="0"/>
        <pt x="249" y="253" on="1"/>
        <pt x="232" y="253" on="0"/>
        <pt x="186" y="256" on="0"/>
        <pt x="166" y="259" on="1"/>
        <pt x="115" y="0" on="1"/>
        <pt x="36" y="0" on="1"/>
        <pt x="178" y="728" on="1"/>
        <pt x="205" y="733" on="0"/>
        <pt x="263" y="738" on="0"/>
        <pt x="295" y="738" on="1"/>
        <pt x="362" y="738" on="0"/>
        <pt x="462" y="703" on="0"/>
        <pt x="529" y="642" on="0"/>
        <pt x="562" y="561" on="0"/>
      </contour>
      <contour>
        <pt x="480" y="510" on="1"/>
        <pt x="480" y="541" on="0"/>
        <pt x="459" y="598" on="0"/>
        <pt x="416" y="641" on="0"/>
        <pt x="351" y="666" on="0"/>
        <pt x="308" y="666" on="1"/>
        <pt x="287" y="666" on="0"/>
        <pt x="258" y="663" on="0"/>
        <pt x="244" y="661" on="1"/>
        <pt x="180" y="331" on="1"/>
        <pt x="202" y="328" on="0"/>
        <pt x="240" y="325" on="0"/>
        <pt x="261" y="325" on="1"/>
        <pt x="316" y="325" on="0"/>
        <pt x="398" y="354" on="0"/>
        <pt x="453" y="404" on="0"/>
        <pt x="480" y="471" on="0"/>
      </contour>
    </TTGlyph>
    <TTGlyph name="Q" xMin="72" yMin="-25" xMax="797" yMax="745">
      <contour>
        <pt x="797" y="414" on="1"/>
        <pt x="797" y="373" on="0"/>
        <pt x="780" y="289" on="0"/>
        <pt x="746" y="208" on="0"/>
        <pt x="696" y="132" on="0"/>
        <pt x="664" y="100" on="1"/>
        <pt x="725" y="28" on="1"/>
        <pt x="667" y="-25" on="1"/>
        <pt x="604" y="50" on="1"/>
        <pt x="560" y="21" on="0"/>
        <pt x="457" y="-12" on="0"/>
        <pt x="397" y="-12" on="1"/>
        <pt x="326" y="-12" on="0"/>
        <pt x="207" y="35" on="0"/>
        <pt x="121" y="121" on="0"/>
        <pt x="72" y="243" on="0"/>
        <pt x="72" y="319" on="1"/>
        <pt x="72" y="391" on="0"/>
        <pt x="126" y="542" on="0"/>
        <pt x="229" y="666" on="0"/>
        <pt x="378" y="745" on="0"/>
        <pt x="472" y="745" on="1"/>
        <pt x="542" y="745" on="0"/>
        <pt x="662" y="698" on="0"/>
        <pt x="748" y="612" on="0"/>
        <pt x="797" y="489" on="0"/>
      </contour>
      <contour>
        <pt x="717" y="414" on="1"/>
        <pt x="717" y="471" on="0"/>
        <pt x="683" y="567" on="0"/>
        <pt x="619" y="635" on="0"/>
        <pt x="529" y="673" on="0"/>
        <pt x="473" y="673" on="1"/>
        <pt x="404" y="673" on="0"/>
        <pt x="286" y="617" on="0"/>
        <pt x="201" y="520" on="0"/>
        <pt x="153" y="391" on="0"/>
        <pt x="153" y="318" on="1"/>
        <pt x="153" y="261" on="0"/>
        <pt x="187" y="166" on="0"/>
        <pt x="250" y="97" on="0"/>
        <pt x="340" y="59" on="0"/>
        <pt x="396" y="59" on="1"/>
        <pt x="441" y="59" on="0"/>
        <pt x="521" y="83" on="0"/>
        <pt x="556" y="105" on="1"/>
        <pt x="445" y="236" on="1"/>
        <pt x="504" y="289" on="1"/>
        <pt x="617" y="155" on="1"/>
        <pt x="664" y="204" on="0"/>
        <pt x="717" y="337" on="0"/>
      </contour>
    </TTGlyph>
    <TTGlyph name="R" xMin="36" yMin="0" xMax="562" yMax="738">
      <contour>
        <pt x="562" y="530" on="1"/>
        <pt x="562" y="446" on="0"/>
        <pt x="459" y="321" on="0"/>
        <pt x="363" y="297" on="1"/>
        <pt x="521" y="0" on="1"/>
        <pt x="425" y="0" on="1"/>
        <pt x="280" y="285" on="1"/>
        <pt x="274" y="284" on="0"/>
        <pt x="261" y="284" on="0"/>
        <pt x="255" y="284" on="1"/>
        <pt x="236" y="284" on="0"/>
        <pt x="193" y="287" on="0"/>
        <pt x="172" y="289" on="1"/>
        <pt x="115" y="0" on="1"/>
        <pt x="36" y="0" on="1"/>
        <pt x="178" y="729" on="1"/>
        <pt x="206" y="734" on="0"/>
        <pt x="269" y="738" on="0"/>
        <pt x="310" y="738" on="1"/>
        <pt x="370" y="738" on="0"/>
        <pt x="464" y="706" on="0"/>
        <pt x="529" y="650" on="0"/>
        <pt x="562" y="574" on="0"/>
      </contour>
      <contour>
        <pt x="480" y="523" on="1"/>
        <pt x="480" y="586" on="0"/>
        <pt x="398" y="666" on="0"/>
        <pt x="317" y="666" on="1"/>
        <pt x="293" y="666" on="0"/>
        <pt x="261" y="664" on="0"/>
        <pt x="244" y="661" on="1"/>
        <pt x="186" y="359" on="1"/>
        <pt x="206" y="357" on="0"/>
        <pt x="247" y="355" on="0"/>
        <pt x="268" y="355" on="1"/>
        <pt x="322" y="355" on="0"/>
        <pt x="401" y="380" on="0"/>
        <pt x="454" y="425" on="0"/>
        <pt x="480" y="487" on="0"/>
      </contour>
    </TTGlyph>
    <TTGlyph name="Racute" xMin="36" yMin="0" xMax="562" yMax="965">
      <component glyphName="R" x="0" y="0" flags="0x204"/>
      <component glyphName="acute" x="162" y="320" flags="0x4"/>
    </TTGlyph>
    <TTGlyph name="Rcaron" xMin="36" yMin="0" xMax="565" yMax="965">
      <component glyphName="R" x="0" y="0" flags="0x204"/>
      <component glyphName="caron" x="118" y="320" flags="0x4"/>
    </TTGlyph>
    <TTGlyph name="Rcommaaccent" xMin="36" yMin="-288" xMax="562" yMax="738">
      <component glyphName="R" x="0" y="0" flags="0x204"/>
      <component glyphName="commaaccent" x="74" y="0" flags="0x4"/>
    </TTGlyph>
    <TTGlyph name="S" xMin="6" yMin="-12" xMax="516" yMax="745">
      <contour>
        <pt x="474" y="621" on="1"/>
        <pt x="413" y="670" on="0"/>
        <pt x="337" y="670" on="1"/>
        <pt x="304" y="670" on="0"/>
        <pt x="254" y="648" on="0"/>
        <pt x="220" y="612" on="0"/>
        <pt x="203" y="565" on="0"/>
        <pt x="203" y="539" on="1"/>
        <pt x="203" y="514" on="0"/>
        <pt x="221" y="475" on="0"/>
        <pt x="251" y="443" on="0"/>
        <pt x="290" y="415" on="0"/>
        <pt x="311" y="402" on="1"/>
        <pt x="336" y="385" on="0"/>
        <pt x="387" y="350" on="0"/>
        <pt x="428" y="304" on="0"/>
        <pt x="453" y="245" on="0"/>
        <pt x="453" y="205" on="1"/>
        <pt x="453" y="166" on="0"/>
        <pt x="426" y="88" on="0"/>
        <pt x="370" y="26" on="0"/>
        <pt x="283" y="-12" on="0"/>
        <pt x="223" y="-12" on="1"/>
        <pt x="164" y="-12" on="0"/>
        <pt x="49" y="32" on="0"/>
        <pt x="6" y="69" on="1"/>
        <pt x="49" y="133" on="1"/>
        <pt x="87" y="101" on="0"/>
        <pt x="177" y="63" on="0"/>
        <pt x="223" y="63" on="1"/>
        <pt x="262" y="63" on="0"/>
        <pt x="319" y="83" on="0"/>
        <pt x="355" y="119" on="0"/>
        <pt x="372" y="167" on="0"/>
        <pt x="372" y="195" on="1"/>
        <pt x="372" y="223" on="0"/>
        <pt x="351" y="266" on="0"/>
        <pt x="317" y="301" on="0"/>
        <pt x="274" y="332" on="0"/>
        <pt x="251" y="347" on="1"/>
        <pt x="227" y="363" on="0"/>
        <pt x="181" y="397" on="0"/>
        <pt x="144" y="440" on="0"/>
        <pt x="122" y="494" on="0"/>
        <pt x="122" y="529" on="1"/>
        <pt x="122" y="571" on="0"/>
        <pt x="154" y="649" on="0"/>
        <pt x="213" y="709" on="0"/>
        <pt x="296" y="745" on="0"/>
        <pt x="347" y="745" on="1"/>
        <pt x="394" y="745" on="0"/>
        <pt x="484" y="711" on="0"/>
        <pt x="516" y="685" on="1"/>
      </contour>
    </TTGlyph>
    <TTGlyph name="Sacute" xMin="6" yMin="-12" xMax="516" yMax="965">
      <component glyphName="S" x="0" y="0" flags="0x204"/>
      <component glyphName="acute" x="135" y="320" flags="0x4"/>
    </TTGlyph>
    <TTGlyph name="Scaron" xMin="6" yMin="-12" xMax="538" yMax="965">
      <component glyphName="S" x="0" y="0" flags="0x204"/>
      <component glyphName="caron" x="91" y="320" flags="0x4"/>
    </TTGlyph>
    <TTGlyph name="Scedilla" xMin="6" yMin="-237" xMax="516" yMax="745">
      <contour>
        <pt x="287" y="-138" on="1"/>
        <pt x="287" y="-180" on="0"/>
        <pt x="225" y="-237" on="0"/>
        <pt x="174" y="-237" on="1"/>
        <pt x="119" y="-237" on="0"/>
        <pt x="68" y="-203" on="1"/>
        <pt x="99" y="-157" on="1"/>
        <pt x="139" y="-184" on="0"/>
        <pt x="179" y="-184" on="1"/>
        <pt x="198" y="-184" on="0"/>
        <pt x="225" y="-162" on="0"/>
        <pt x="225" y="-142" on="1"/>
        <pt x="225" y="-128" on="0"/>
        <pt x="189" y="-99" on="0"/>
        <pt x="142" y="-96" on="1"/>
        <pt x="139" y="-88" on="1"/>
        <pt x="176" y="-8" on="1"/>
        <pt x="128" y="-1" on="0"/>
        <pt x="40" y="39" on="0"/>
        <pt x="6" y="69" on="1"/>
        <pt x="49" y="133" on="1"/>
        <pt x="87" y="101" on="0"/>
        <pt x="177" y="63" on="0"/>
        <pt x="223" y="63" on="1"/>
        <pt x="262" y="63" on="0"/>
        <pt x="319" y="83" on="0"/>
        <pt x="355" y="119" on="0"/>
        <pt x="372" y="167" on="0"/>
        <pt x="372" y="195" on="1"/>
        <pt x="372" y="223" on="0"/>
        <pt x="351" y="266" on="0"/>
        <pt x="317" y="301" on="0"/>
        <pt x="274" y="332" on="0"/>
        <pt x="251" y="347" on="1"/>
        <pt x="227" y="363" on="0"/>
        <pt x="181" y="397" on="0"/>
        <pt x="144" y="440" on="0"/>
        <pt x="122" y="494" on="0"/>
        <pt x="122" y="529" on="1"/>
        <pt x="122" y="571" on="0"/>
        <pt x="154" y="649" on="0"/>
        <pt x="213" y="709" on="0"/>
        <pt x="296" y="745" on="0"/>
        <pt x="347" y="745" on="1"/>
        <pt x="394" y="745" on="0"/>
        <pt x="484" y="711" on="0"/>
        <pt x="516" y="685" on="1"/>
        <pt x="474" y="621" on="1"/>
        <pt x="413" y="670" on="0"/>
        <pt x="337" y="670" on="1"/>
        <pt x="304" y="670" on="0"/>
        <pt x="254" y="648" on="0"/>
        <pt x="220" y="612" on="0"/>
        <pt x="203" y="565" on="0"/>
        <pt x="203" y="539" on="1"/>
        <pt x="203" y="514" on="0"/>
        <pt x="221" y="475" on="0"/>
        <pt x="251" y="443" on="0"/>
        <pt x="290" y="415" on="0"/>
        <pt x="311" y="402" on="1"/>
        <pt x="336" y="385" on="0"/>
        <pt x="387" y="350" on="0"/>
        <pt x="428" y="304" on="0"/>
        <pt x="453" y="245" on="0"/>
        <pt x="453" y="205" on="1"/>
        <pt x="453" y="166" on="0"/>
        <pt x="426" y="88" on="0"/>
        <pt x="370" y="27" on="0"/>
        <pt x="284" y="-12" on="0"/>
        <pt x="224" y="-12" on="1"/>
        <pt x="206" y="-56" on="1"/>
        <pt x="248" y="-68" on="0"/>
        <pt x="287" y="-111" on="0"/>
      </contour>
    </TTGlyph>
    <TTGlyph name="Scommaaccent" xMin="6" yMin="-288" xMax="516" yMax="745">
      <component glyphName="S" x="0" y="0" flags="0x204"/>
      <component glyphName="commaaccent" x="46" y="0" flags="0x4"/>
    </TTGlyph>
    <TTGlyph name="T" xMin="108" yMin="0" xMax="673" yMax="733">
      <contour>
        <pt x="659" y="661" on="1"/>
        <pt x="423" y="661" on="1"/>
        <pt x="294" y="0" on="1"/>
        <pt x="215" y="0" on="1"/>
        <pt x="344" y="661" on="1"/>
        <pt x="108" y="661" on="1"/>
        <pt x="122" y="733" on="1"/>
        <pt x="673" y="733" on="1"/>
      </contour>
    </TTGlyph>
    <TTGlyph name="Tcaron" xMin="108" yMin="0" xMax="673" yMax="965">
      <component glyphName="T" x="0" y="0" flags="0x204"/>
      <component glyphName="caron" x="147" y="320" flags="0x4"/>
    </TTGlyph>
    <TTGlyph name="Tcommaaccent" xMin="108" yMin="-288" xMax="673" yMax="733">
      <component glyphName="T" x="0" y="0" flags="0x204"/>
      <component glyphName="commaaccent" x="102" y="0" flags="0x4"/>
    </TTGlyph>
    <TTGlyph name="Thorn" xMin="36" yMin="0" xMax="536" yMax="733">
      <contour>
        <pt x="179" y="733" on="1"/>
        <pt x="258" y="733" on="1"/>
        <pt x="234" y="608" on="1"/>
        <pt x="242" y="609" on="0"/>
        <pt x="258" y="609" on="0"/>
        <pt x="269" y="609" on="1"/>
        <pt x="336" y="609" on="0"/>
        <pt x="436" y="574" on="0"/>
        <pt x="503" y="513" on="0"/>
        <pt x="536" y="432" on="0"/>
        <pt x="536" y="387" on="1"/>
        <pt x="536" y="330" on="0"/>
        <pt x="496" y="234" on="0"/>
        <pt x="416" y="163" on="0"/>
        <pt x="299" y="123" on="0"/>
        <pt x="223" y="123" on="1"/>
        <pt x="206" y="123" on="0"/>
        <pt x="161" y="127" on="0"/>
        <pt x="141" y="130" on="1"/>
        <pt x="115" y="0" on="1"/>
        <pt x="36" y="0" on="1"/>
      </contour>
      <contour>
        <pt x="454" y="381" on="1"/>
        <pt x="454" y="412" on="0"/>
        <pt x="433" y="469" on="0"/>
        <pt x="391" y="512" on="0"/>
        <pt x="326" y="537" on="0"/>
        <pt x="282" y="537" on="1"/>
        <pt x="261" y="537" on="0"/>
        <pt x="232" y="536" on="0"/>
        <pt x="219" y="534" on="1"/>
        <pt x="155" y="201" on="1"/>
        <pt x="176" y="199" on="0"/>
        <pt x="214" y="196" on="0"/>
        <pt x="235" y="196" on="1"/>
        <pt x="290" y="196" on="0"/>
        <pt x="372" y="225" on="0"/>
        <pt x="427" y="275" on="0"/>
        <pt x="454" y="342" on="0"/>
      </contour>
    </TTGlyph>
    <TTGlyph name="U" xMin="78" yMin="-12" xMax="705" yMax="733">
      <contour>
        <pt x="611" y="250" on="1"/>
        <pt x="586" y="122" on="0"/>
        <pt x="435" y="-12" on="0"/>
        <pt x="311" y="-12" on="1"/>
        <pt x="258" y="-12" on="0"/>
        <pt x="172" y="20" on="0"/>
        <pt x="111" y="79" on="0"/>
        <pt x="78" y="165" on="0"/>
        <pt x="78" y="219" on="1"/>
        <pt x="78" y="236" on="0"/>
        <pt x="82" y="274" on="0"/>
        <pt x="86" y="294" on="1"/>
        <pt x="171" y="733" on="1"/>
        <pt x="250" y="733" on="1"/>
        <pt x="163" y="283" on="1"/>
        <pt x="157" y="250" on="0"/>
        <pt x="157" y="221" on="1"/>
        <pt x="157" y="146" on="0"/>
        <pt x="241" y="59" on="0"/>
        <pt x="325" y="59" on="1"/>
        <pt x="411" y="59" on="0"/>
        <pt x="513" y="155" on="0"/>
        <pt x="534" y="265" on="1"/>
        <pt x="626" y="733" on="1"/>
        <pt x="705" y="733" on="1"/>
      </contour>
    </TTGlyph>
    <TTGlyph name="Uacute" xMin="78" yMin="-12" xMax="705" yMax="950">
      <component glyphName="U" x="0" y="0" flags="0x204"/>
      <component glyphName="acute" x="225" y="305" flags="0x4"/>
    </TTGlyph>
    <TTGlyph name="Ubreve" xMin="78" yMin="-12" xMax="705" yMax="934">
      <component glyphName="U" x="0" y="0" flags="0x204"/>
      <component glyphName="breve" x="182" y="305" flags="0x4"/>
    </TTGlyph>
    <TTGlyph name="Ucircumflex" xMin="78" yMin="-12" xMax="705" yMax="950">
      <component glyphName="U" x="0" y="0" flags="0x204"/>
      <component glyphName="circumflex" x="172" y="305" flags="0x4"/>
    </TTGlyph>
    <TTGlyph name="Udieresis" xMin="78" yMin="-12" xMax="705" yMax="893">
      <component glyphName="U" x="0" y="0" flags="0x204"/>
      <component glyphName="dieresis" x="176" y="305" flags="0x4"/>
    </TTGlyph>
    <TTGlyph name="Ugrave" xMin="78" yMin="-12" xMax="705" yMax="950">
      <component glyphName="U" x="0" y="0" flags="0x204"/>
      <component glyphName="grave" x="117" y="305" flags="0x4"/>
    </TTGlyph>
    <TTGlyph name="Uhungarumlaut" xMin="78" yMin="-12" xMax="705" yMax="983">
      <component glyphName="U" x="0" y="0" flags="0x204"/>
      <component glyphName="hungarumlaut" x="223" y="305" flags="0x4"/>
    </TTGlyph>
    <TTGlyph name="Umacron" xMin="78" yMin="-12" xMax="705" yMax="875">
      <component glyphName="U" x="0" y="0" flags="0x204"/>
      <component glyphName="macron" x="177" y="305" flags="0x4"/>
    </TTGlyph>
    <TTGlyph name="Uogonek" xMin="78" yMin="-220" xMax="705" yMax="733">
      <contour>
        <pt x="611" y="250" on="1"/>
        <pt x="588" y="131" on="0"/>
        <pt x="454" y="-2" on="0"/>
        <pt x="345" y="-10" on="1"/>
        <pt x="332" y="-22" on="0"/>
        <pt x="303" y="-50" on="0"/>
        <pt x="278" y="-82" on="0"/>
        <pt x="262" y="-115" on="0"/>
        <pt x="262" y="-132" on="1"/>
        <pt x="262" y="-164" on="0"/>
        <pt x="288" y="-164" on="1"/>
        <pt x="299" y="-164" on="0"/>
        <pt x="321" y="-151" on="0"/>
        <pt x="338" y="-136" on="1"/>
        <pt x="365" y="-169" on="1"/>
        <pt x="340" y="-195" on="0"/>
        <pt x="295" y="-218" on="0"/>
        <pt x="267" y="-219" on="1"/>
        <pt x="233" y="-220" on="0"/>
        <pt x="196" y="-183" on="0"/>
        <pt x="196" y="-151" on="1"/>
        <pt x="196" y="-113" on="0"/>
        <pt x="241" y="-45" on="0"/>
        <pt x="279" y="-10" on="1"/>
        <pt x="186" y="-1" on="0"/>
        <pt x="78" y="119" on="0"/>
        <pt x="78" y="219" on="1"/>
        <pt x="78" y="236" on="0"/>
        <pt x="82" y="274" on="0"/>
        <pt x="86" y="294" on="1"/>
        <pt x="171" y="733" on="1"/>
        <pt x="250" y="733" on="1"/>
        <pt x="163" y="283" on="1"/>
        <pt x="157" y="250" on="0"/>
        <pt x="157" y="221" on="1"/>
        <pt x="157" y="146" on="0"/>
        <pt x="241" y="59" on="0"/>
        <pt x="325" y="59" on="1"/>
        <pt x="411" y="59" on="0"/>
        <pt x="513" y="155" on="0"/>
        <pt x="534" y="265" on="1"/>
        <pt x="626" y="733" on="1"/>
        <pt x="705" y="733" on="1"/>
      </contour>
    </TTGlyph>
    <TTGlyph name="Uring" xMin="78" yMin="-12" xMax="705" yMax="990">
      <component glyphName="U" x="0" y="0" flags="0x204"/>
      <component glyphName="ring" x="179" y="305" flags="0x4"/>
    </TTGlyph>
    <TTGlyph name="V" xMin="104" yMin="-13" xMax="750" yMax="733">
      <contour>
        <pt x="288" y="-13" on="1"/>
        <pt x="275" y="-13" on="1"/>
        <pt x="104" y="733" on="1"/>
        <pt x="187" y="733" on="1"/>
        <pt x="313" y="150" on="1"/>
        <pt x="658" y="733" on="1"/>
        <pt x="750" y="733" on="1"/>
      </contour>
    </TTGlyph>
    <TTGlyph name="W" xMin="109" yMin="-14" xMax="987" yMax="739">
      <contour>
        <pt x="640" y="-12" on="1"/>
        <pt x="626" y="-14" on="1"/>
        <pt x="512" y="562" on="1"/>
        <pt x="184" y="-14" on="1"/>
        <pt x="166" y="-12" on="1"/>
        <pt x="109" y="733" on="1"/>
        <pt x="192" y="733" on="1"/>
        <pt x="230" y="200" on="1"/>
        <pt x="538" y="739" on="1"/>
        <pt x="549" y="739" on="1"/>
        <pt x="658" y="193" on="1"/>
        <pt x="896" y="733" on="1"/>
        <pt x="987" y="733" on="1"/>
      </contour>
    </TTGlyph>
    <TTGlyph name="Wacute" xMin="109" yMin="-14" xMax="987" yMax="965">
      <component glyphName="W" x="0" y="0" flags="0x204"/>
      <component glyphName="acute" x="336" y="320" flags="0x4"/>
    </TTGlyph>
    <TTGlyph name="Wcircumflex" xMin="109" yMin="-14" xMax="987" yMax="965">
      <component glyphName="W" x="0" y="0" flags="0x204"/>
      <component glyphName="circumflex" x="283" y="320" flags="0x4"/>
    </TTGlyph>
    <TTGlyph name="Wdieresis" xMin="109" yMin="-14" xMax="987" yMax="908">
      <component glyphName="W" x="0" y="0" flags="0x204"/>
      <component glyphName="dieresis" x="288" y="320" flags="0x4"/>
    </TTGlyph>
    <TTGlyph name="Wgrave" xMin="109" yMin="-14" xMax="987" yMax="965">
      <component glyphName="W" x="0" y="0" flags="0x204"/>
      <component glyphName="grave" x="228" y="320" flags="0x4"/>
    </TTGlyph>
    <TTGlyph name="X" xMin="-20" yMin="0" xMax="727" yMax="733">
      <contour>
        <pt x="399" y="363" on="1"/>
        <pt x="584" y="0" on="1"/>
        <pt x="497" y="0" on="1"/>
        <pt x="344" y="308" on="1"/>
        <pt x="78" y="0" on="1"/>
        <pt x="-20" y="0" on="1"/>
        <pt x="309" y="369" on="1"/>
        <pt x="123" y="733" on="1"/>
        <pt x="210" y="733" on="1"/>
        <pt x="363" y="424" on="1"/>
        <pt x="629" y="733" on="1"/>
        <pt x="727" y="733" on="1"/>
      </contour>
    </TTGlyph>
    <TTGlyph name="Y" xMin="105" yMin="0" xMax="681" yMax="733">
      <contour>
        <pt x="355" y="321" on="1"/>
        <pt x="292" y="0" on="1"/>
        <pt x="213" y="0" on="1"/>
        <pt x="276" y="324" on="1"/>
        <pt x="105" y="733" on="1"/>
        <pt x="185" y="733" on="1"/>
        <pt x="329" y="390" on="1"/>
        <pt x="590" y="733" on="1"/>
        <pt x="681" y="733" on="1"/>
      </contour>
    </TTGlyph>
    <TTGlyph name="Yacute" xMin="105" yMin="0" xMax="681" yMax="950">
      <component glyphName="Y" x="0" y="0" flags="0x204"/>
      <component glyphName="acute" x="185" y="305" flags="0x4"/>
    </TTGlyph>
    <TTGlyph name="Ycircumflex" xMin="105" yMin="0" xMax="681" yMax="950">
      <component glyphName="Y" x="0" y="0" flags="0x204"/>
      <component glyphName="circumflex" x="131" y="305" flags="0x4"/>
    </TTGlyph>
    <TTGlyph name="Ydieresis" xMin="105" yMin="0" xMax="681" yMax="893">
      <component glyphName="Y" x="0" y="0" flags="0x204"/>
      <component glyphName="dieresis" x="136" y="305" flags="0x4"/>
    </TTGlyph>
    <TTGlyph name="Ygrave" xMin="105" yMin="0" xMax="681" yMax="950">
      <component glyphName="Y" x="0" y="0" flags="0x204"/>
      <component glyphName="grave" x="77" y="305" flags="0x4"/>
    </TTGlyph>
    <TTGlyph name="Z" xMin="-1" yMin="0" xMax="659" yMax="733">
      <contour>
        <pt x="137" y="72" on="1"/>
        <pt x="528" y="72" on="1"/>
        <pt x="514" y="0" on="1"/>
        <pt x="2" y="0" on="1"/>
        <pt x="-1" y="11" on="1"/>
        <pt x="522" y="661" on="1"/>
        <pt x="151" y="661" on="1"/>
        <pt x="165" y="733" on="1"/>
        <pt x="657" y="733" on="1"/>
        <pt x="659" y="721" on="1"/>
      </contour>
    </TTGlyph>
    <TTGlyph name="Zacute" xMin="-1" yMin="0" xMax="659" yMax="965">
      <component glyphName="Z" x="0" y="0" flags="0x204"/>
      <component glyphName="acute" x="193" y="320" flags="0x4"/>
    </TTGlyph>
    <TTGlyph name="Zcaron" xMin="-1" yMin="0" xMax="659" yMax="965">
      <component glyphName="Z" x="0" y="0" flags="0x204"/>
      <component glyphName="caron" x="149" y="320" flags="0x4"/>
    </TTGlyph>
    <TTGlyph name="Zdotaccent" xMin="-1" yMin="0" xMax="659" yMax="908">
      <component glyphName="Z" x="0" y="0" flags="0x204"/>
      <component glyphName="dotaccent" x="140" y="320" flags="0x4"/>
    </TTGlyph>
    <TTGlyph name="a" xMin="17" yMin="-8" xMax="386" yMax="428">
      <contour>
        <pt x="386" y="293" on="1"/>
        <pt x="386" y="267" on="0"/>
        <pt x="380" y="236" on="1"/>
        <pt x="333" y="0" on="1"/>
        <pt x="260" y="0" on="1"/>
        <pt x="268" y="42" on="1"/>
        <pt x="242" y="19" on="0"/>
        <pt x="184" y="-8" on="0"/>
        <pt x="144" y="-8" on="1"/>
        <pt x="120" y="-8" on="0"/>
        <pt x="74" y="8" on="0"/>
        <pt x="38" y="40" on="0"/>
        <pt x="17" y="85" on="0"/>
        <pt x="17" y="115" on="1"/>
        <pt x="17" y="145" on="0"/>
        <pt x="41" y="197" on="0"/>
        <pt x="85" y="236" on="0"/>
        <pt x="148" y="258" on="0"/>
        <pt x="187" y="258" on="1"/>
        <pt x="224" y="258" on="0"/>
        <pt x="282" y="239" on="0"/>
        <pt x="300" y="226" on="1"/>
        <pt x="305" y="252" on="1"/>
        <pt x="306" y="257" on="0"/>
        <pt x="309" y="277" on="0"/>
        <pt x="309" y="285" on="1"/>
        <pt x="309" y="316" on="0"/>
        <pt x="269" y="358" on="0"/>
        <pt x="229" y="358" on="1"/>
        <pt x="206" y="358" on="0"/>
        <pt x="150" y="346" on="0"/>
        <pt x="121" y="335" on="1"/>
        <pt x="114" y="405" on="1"/>
        <pt x="144" y="415" on="0"/>
        <pt x="208" y="428" on="0"/>
        <pt x="240" y="428" on="1"/>
        <pt x="270" y="428" on="0"/>
        <pt x="323" y="414" on="0"/>
        <pt x="363" y="383" on="0"/>
        <pt x="386" y="331" on="0"/>
      </contour>
      <contour>
        <pt x="288" y="163" on="1"/>
        <pt x="271" y="178" on="0"/>
        <pt x="217" y="197" on="0"/>
        <pt x="185" y="197" on="1"/>
        <pt x="145" y="197" on="0"/>
        <pt x="91" y="155" on="0"/>
        <pt x="91" y="120" on="1"/>
        <pt x="91" y="91" on="0"/>
        <pt x="129" y="55" on="0"/>
        <pt x="167" y="55" on="1"/>
        <pt x="201" y="55" on="0"/>
        <pt x="253" y="84" on="0"/>
        <pt x="277" y="107" on="1"/>
      </contour>
    </TTGlyph>
    <TTGlyph name="aacute" xMin="17" yMin="-8" xMax="423" yMax="645">
      <component glyphName="a" x="0" y="0" flags="0x204"/>
      <component glyphName="acute" x="44" y="0" flags="0x4"/>
    </TTGlyph>
    <TTGlyph name="abreve" xMin="17" yMin="-8" xMax="431" yMax="629">
      <component glyphName="a" x="0" y="0" flags="0x204"/>
      <component glyphName="breve" x="1" y="0" flags="0x4"/>
    </TTGlyph>
    <TTGlyph name="acircumflex" xMin="17" yMin="-8" xMax="408" yMax="645">
      <component glyphName="a" x="0" y="0" flags="0x204"/>
      <component glyphName="circumflex" x="-9" y="0" flags="0x4"/>
    </TTGlyph>
    <TTGlyph name="acute" xMin="170" yMin="474" xMax="379" yMax="645">
      <contour>
        <pt x="189" y="474" on="1"/>
        <pt x="170" y="518" on="1"/>
        <pt x="341" y="645" on="1"/>
        <pt x="379" y="570" on="1"/>
      </contour>
    </TTGlyph>
    <TTGlyph name="adieresis" xMin="17" yMin="-8" xMax="410" yMax="588">
      <component glyphName="a" x="0" y="0" flags="0x204"/>
      <component glyphName="dieresis" x="-4" y="0" flags="0x4"/>
    </TTGlyph>
    <TTGlyph name="ae" xMin="17" yMin="-8" xMax="683" yMax="429">
      <contour>
        <pt x="156" y="-8" on="1"/>
        <pt x="127" y="-8" on="0"/>
        <pt x="76" y="8" on="0"/>
        <pt x="38" y="40" on="0"/>
        <pt x="17" y="85" on="0"/>
        <pt x="17" y="115" on="1"/>
        <pt x="17" y="145" on="0"/>
        <pt x="41" y="197" on="0"/>
        <pt x="85" y="236" on="0"/>
        <pt x="148" y="258" on="0"/>
        <pt x="187" y="258" on="1"/>
        <pt x="223" y="258" on="0"/>
        <pt x="282" y="239" on="0"/>
        <pt x="300" y="226" on="1"/>
        <pt x="306" y="257" on="1"/>
        <pt x="309" y="272" on="0"/>
        <pt x="309" y="284" on="1"/>
        <pt x="309" y="322" on="0"/>
        <pt x="267" y="359" on="0"/>
        <pt x="229" y="359" on="1"/>
        <pt x="206" y="359" on="0"/>
        <pt x="150" y="347" on="0"/>
        <pt x="121" y="336" on="1"/>
        <pt x="113" y="402" on="1"/>
        <pt x="144" y="414" on="0"/>
        <pt x="208" y="429" on="0"/>
        <pt x="240" y="429" on="1"/>
        <pt x="284" y="429" on="0"/>
        <pt x="352" y="394" on="0"/>
        <pt x="365" y="349" on="1"/>
        <pt x="396" y="384" on="0"/>
        <pt x="478" y="428" on="0"/>
        <pt x="529" y="428" on="1"/>
        <pt x="567" y="428" on="0"/>
        <pt x="625" y="401" on="0"/>
        <pt x="664" y="355" on="0"/>
        <pt x="683" y="295" on="0"/>
        <pt x="683" y="262" on="1"/>
        <pt x="683" y="245" on="0"/>
        <pt x="678" y="213" on="0"/>
        <pt x="673" y="196" on="1"/>
        <pt x="369" y="196" on="1"/>
        <pt x="368" y="191" on="0"/>
        <pt x="368" y="179" on="0"/>
        <pt x="368" y="171" on="1"/>
        <pt x="368" y="113" on="0"/>
        <pt x="434" y="59" on="0"/>
        <pt x="488" y="59" on="1"/>
        <pt x="535" y="59" on="0"/>
        <pt x="596" y="81" on="1"/>
        <pt x="609" y="17" on="1"/>
        <pt x="594" y="11" on="0"/>
        <pt x="566" y="2" on="0"/>
        <pt x="536" y="-5" on="0"/>
        <pt x="501" y="-8" on="0"/>
        <pt x="479" y="-8" on="1"/>
        <pt x="426" y="-8" on="0"/>
        <pt x="338" y="31" on="0"/>
        <pt x="315" y="76" on="1"/>
        <pt x="289" y="38" on="0"/>
        <pt x="205" y="-8" on="0"/>
      </contour>
      <contour>
        <pt x="167" y="55" on="1"/>
        <pt x="209" y="55" on="0"/>
        <pt x="277" y="112" on="0"/>
        <pt x="288" y="163" on="1"/>
        <pt x="271" y="178" on="0"/>
        <pt x="217" y="197" on="0"/>
        <pt x="185" y="197" on="1"/>
        <pt x="145" y="197" on="0"/>
        <pt x="91" y="155" on="0"/>
        <pt x="91" y="120" on="1"/>
        <pt x="91" y="91" on="0"/>
        <pt x="129" y="55" on="0"/>
      </contour>
      <contour>
        <pt x="607" y="255" on="1"/>
        <pt x="608" y="260" on="0"/>
        <pt x="608" y="269" on="0"/>
        <pt x="608" y="271" on="1"/>
        <pt x="608" y="310" on="0"/>
        <pt x="562" y="361" on="0"/>
        <pt x="522" y="361" on="1"/>
        <pt x="478" y="361" on="0"/>
        <pt x="405" y="301" on="0"/>
        <pt x="385" y="255" on="1"/>
      </contour>
    </TTGlyph>
    <TTGlyph name="aeacute" xMin="17" yMin="-8" xMax="683" yMax="645">
      <component glyphName="ae" x="0" y="0" flags="0x204"/>
      <component glyphName="acute" x="173" y="0" flags="0x4"/>
    </TTGlyph>
    <TTGlyph name="agrave" xMin="17" yMin="-8" xMax="386" yMax="645">
      <component glyphName="a" x="0" y="0" flags="0x204"/>
      <component glyphName="grave" x="-63" y="0" flags="0x4"/>
    </TTGlyph>
    <TTGlyph name="amacron" xMin="17" yMin="-8" xMax="422" yMax="570">
      <component glyphName="a" x="0" y="0" flags="0x204"/>
      <component glyphName="macron" x="-3" y="0" flags="0x4"/>
    </TTGlyph>
    <TTGlyph name="ampersand" xMin="39" yMin="-16" xMax="571" yMax="586">
      <contour>
        <pt x="571" y="230" on="1"/>
        <pt x="543" y="198" on="0"/>
        <pt x="481" y="135" on="0"/>
        <pt x="449" y="106" on="1"/>
        <pt x="464" y="89" on="0"/>
        <pt x="497" y="53" on="0"/>
        <pt x="516" y="35" on="1"/>
        <pt x="465" y="-16" on="1"/>
        <pt x="446" y="1" on="0"/>
        <pt x="409" y="39" on="0"/>
        <pt x="390" y="60" on="1"/>
        <pt x="345" y="28" on="0"/>
        <pt x="253" y="-10" on="0"/>
        <pt x="206" y="-10" on="1"/>
        <pt x="129" y="-10" on="0"/>
        <pt x="39" y="71" on="0"/>
        <pt x="39" y="140" on="1"/>
        <pt x="39" y="199" on="0"/>
        <pt x="131" y="297" on="0"/>
        <pt x="213" y="324" on="1"/>
        <pt x="205" y="344" on="0"/>
        <pt x="191" y="392" on="0"/>
        <pt x="191" y="417" on="1"/>
        <pt x="191" y="451" on="0"/>
        <pt x="220" y="512" on="0"/>
        <pt x="268" y="559" on="0"/>
        <pt x="333" y="586" on="0"/>
        <pt x="369" y="586" on="1"/>
        <pt x="399" y="586" on="0"/>
        <pt x="448" y="565" on="0"/>
        <pt x="482" y="531" on="0"/>
        <pt x="500" y="487" on="0"/>
        <pt x="500" y="464" on="1"/>
        <pt x="500" y="409" on="0"/>
        <pt x="410" y="311" on="0"/>
        <pt x="316" y="284" on="1"/>
        <pt x="334" y="255" on="0"/>
        <pt x="378" y="191" on="0"/>
        <pt x="406" y="156" on="1"/>
        <pt x="438" y="185" on="0"/>
        <pt x="497" y="248" on="0"/>
        <pt x="521" y="279" on="1"/>
      </contour>
      <contour>
        <pt x="348" y="110" on="1"/>
        <pt x="315" y="151" on="0"/>
        <pt x="260" y="231" on="0"/>
        <pt x="242" y="266" on="1"/>
        <pt x="182" y="250" on="0"/>
        <pt x="117" y="185" on="0"/>
        <pt x="117" y="144" on="1"/>
        <pt x="117" y="106" on="0"/>
        <pt x="163" y="59" on="0"/>
        <pt x="212" y="59" on="1"/>
        <pt x="245" y="59" on="0"/>
        <pt x="314" y="87" on="0"/>
      </contour>
      <contour>
        <pt x="425" y="456" on="1"/>
        <pt x="425" y="485" on="0"/>
        <pt x="391" y="523" on="0"/>
        <pt x="360" y="523" on="1"/>
        <pt x="341" y="523" on="0"/>
        <pt x="307" y="506" on="0"/>
        <pt x="281" y="477" on="0"/>
        <pt x="266" y="441" on="0"/>
        <pt x="266" y="422" on="1"/>
        <pt x="266" y="399" on="0"/>
        <pt x="276" y="361" on="0"/>
        <pt x="288" y="338" on="1"/>
        <pt x="359" y="358" on="0"/>
        <pt x="425" y="416" on="0"/>
      </contour>
    </TTGlyph>
    <TTGlyph name="ampersand.cap" xMin="38" yMin="-9" xMax="696" yMax="738">
      <contour>
        <pt x="696" y="292" on="1"/>
        <pt x="662" y="253" on="0"/>
        <pt x="575" y="165" on="0"/>
        <pt x="533" y="127" on="1"/>
        <pt x="556" y="104" on="0"/>
        <pt x="600" y="61" on="0"/>
        <pt x="623" y="43" on="1"/>
        <pt x="571" y="-9" on="1"/>
        <pt x="548" y="9" on="0"/>
        <pt x="499" y="56" on="0"/>
        <pt x="473" y="84" on="1"/>
        <pt x="414" y="42" on="0"/>
        <pt x="297" y="-5" on="0"/>
        <pt x="240" y="-5" on="1"/>
        <pt x="146" y="-5" on="0"/>
        <pt x="38" y="93" on="0"/>
        <pt x="38" y="178" on="1"/>
        <pt x="38" y="261" on="0"/>
        <pt x="155" y="377" on="0"/>
        <pt x="258" y="403" on="1"/>
        <pt x="247" y="428" on="0"/>
        <pt x="230" y="484" on="0"/>
        <pt x="230" y="522" on="1"/>
        <pt x="230" y="565" on="0"/>
        <pt x="261" y="644" on="0"/>
        <pt x="317" y="703" on="0"/>
        <pt x="394" y="738" on="0"/>
        <pt x="441" y="738" on="1"/>
        <pt x="483" y="738" on="0"/>
        <pt x="545" y="712" on="0"/>
        <pt x="587" y="668" on="0"/>
        <pt x="608" y="612" on="0"/>
        <pt x="608" y="582" on="1"/>
        <pt x="608" y="504" on="0"/>
        <pt x="479" y="388" on="0"/>
        <pt x="363" y="359" on="1"/>
        <pt x="387" y="316" on="0"/>
        <pt x="455" y="218" on="0"/>
        <pt x="490" y="176" on="1"/>
        <pt x="534" y="214" on="0"/>
        <pt x="617" y="303" on="0"/>
        <pt x="646" y="340" on="1"/>
      </contour>
      <contour>
        <pt x="431" y="131" on="1"/>
        <pt x="390" y="178" on="0"/>
        <pt x="313" y="289" on="0"/>
        <pt x="285" y="343" on="1"/>
        <pt x="204" y="322" on="0"/>
        <pt x="121" y="236" on="0"/>
        <pt x="121" y="183" on="1"/>
        <pt x="121" y="135" on="0"/>
        <pt x="183" y="67" on="0"/>
        <pt x="250" y="67" on="1"/>
        <pt x="292" y="67" on="0"/>
        <pt x="383" y="99" on="0"/>
      </contour>
      <contour>
        <pt x="336" y="418" on="1"/>
        <pt x="424" y="441" on="0"/>
        <pt x="530" y="521" on="0"/>
        <pt x="530" y="580" on="1"/>
        <pt x="530" y="621" on="0"/>
        <pt x="480" y="674" on="0"/>
        <pt x="441" y="674" on="1"/>
        <pt x="413" y="674" on="0"/>
        <pt x="365" y="650" on="0"/>
        <pt x="329" y="610" on="0"/>
        <pt x="308" y="557" on="0"/>
        <pt x="308" y="528" on="1"/>
        <pt x="308" y="495" on="0"/>
        <pt x="324" y="442" on="0"/>
      </contour>
    </TTGlyph>
    <TTGlyph name="aogonek" xMin="17" yMin="-220" xMax="386" yMax="428">
      <contour>
        <pt x="331" y="-169" on="1"/>
        <pt x="306" y="-195" on="0"/>
        <pt x="261" y="-218" on="0"/>
        <pt x="233" y="-219" on="1"/>
        <pt x="199" y="-220" on="0"/>
        <pt x="162" y="-183" on="0"/>
        <pt x="162" y="-151" on="1"/>
        <pt x="162" y="-109" on="0"/>
        <pt x="216" y="-34" on="0"/>
        <pt x="260" y="3" on="1"/>
        <pt x="268" y="42" on="1"/>
        <pt x="242" y="19" on="0"/>
        <pt x="184" y="-8" on="0"/>
        <pt x="144" y="-8" on="1"/>
        <pt x="120" y="-8" on="0"/>
        <pt x="74" y="8" on="0"/>
        <pt x="38" y="40" on="0"/>
        <pt x="17" y="85" on="0"/>
        <pt x="17" y="115" on="1"/>
        <pt x="17" y="145" on="0"/>
        <pt x="41" y="197" on="0"/>
        <pt x="85" y="236" on="0"/>
        <pt x="148" y="258" on="0"/>
        <pt x="187" y="258" on="1"/>
        <pt x="224" y="258" on="0"/>
        <pt x="282" y="239" on="0"/>
        <pt x="300" y="226" on="1"/>
        <pt x="305" y="252" on="1"/>
        <pt x="306" y="257" on="0"/>
        <pt x="309" y="277" on="0"/>
        <pt x="309" y="285" on="1"/>
        <pt x="309" y="316" on="0"/>
        <pt x="269" y="358" on="0"/>
        <pt x="229" y="358" on="1"/>
        <pt x="206" y="358" on="0"/>
        <pt x="150" y="346" on="0"/>
        <pt x="121" y="335" on="1"/>
        <pt x="114" y="405" on="1"/>
        <pt x="144" y="415" on="0"/>
        <pt x="208" y="428" on="0"/>
        <pt x="240" y="428" on="1"/>
        <pt x="270" y="428" on="0"/>
        <pt x="323" y="414" on="0"/>
        <pt x="363" y="383" on="0"/>
        <pt x="386" y="331" on="0"/>
        <pt x="386" y="293" on="1"/>
        <pt x="386" y="267" on="0"/>
        <pt x="380" y="236" on="1"/>
        <pt x="333" y="0" on="1"/>
        <pt x="322" y="0" on="1"/>
        <pt x="310" y="-12" on="0"/>
        <pt x="277" y="-41" on="0"/>
        <pt x="248" y="-76" on="0"/>
        <pt x="228" y="-113" on="0"/>
        <pt x="228" y="-132" on="1"/>
        <pt x="228" y="-164" on="0"/>
        <pt x="254" y="-164" on="1"/>
        <pt x="265" y="-164" on="0"/>
        <pt x="287" y="-151" on="0"/>
        <pt x="304" y="-136" on="1"/>
      </contour>
      <contour>
        <pt x="288" y="163" on="1"/>
        <pt x="271" y="178" on="0"/>
        <pt x="217" y="197" on="0"/>
        <pt x="185" y="197" on="1"/>
        <pt x="145" y="197" on="0"/>
        <pt x="91" y="155" on="0"/>
        <pt x="91" y="120" on="1"/>
        <pt x="91" y="91" on="0"/>
        <pt x="129" y="55" on="0"/>
        <pt x="167" y="55" on="1"/>
        <pt x="201" y="55" on="0"/>
        <pt x="253" y="84" on="0"/>
        <pt x="277" y="107" on="1"/>
      </contour>
    </TTGlyph>
    <TTGlyph name="aring" xMin="17" yMin="-8" xMax="388" yMax="685">
      <component glyphName="a" x="0" y="0" flags="0x204"/>
      <component glyphName="ring" x="-1" y="0" flags="0x4"/>
    </TTGlyph>
    <TTGlyph name="aringacute" xMin="17" yMin="-8" xMax="475" yMax="902">
      <component glyphName="acute" x="96" y="257" flags="0x4"/>
      <component glyphName="a" x="0" y="0" flags="0x4"/>
      <component glyphName="ring" x="-1" y="0" flags="0x4"/>
    </TTGlyph>
    <TTGlyph name="arrowleft" xMin="37" yMin="-1" xMax="673" yMax="485">
      <contour>
        <pt x="161" y="208" on="1"/>
        <pt x="326" y="46" on="1"/>
        <pt x="277" y="-1" on="1"/>
        <pt x="37" y="236" on="1"/>
        <pt x="40" y="248" on="1"/>
        <pt x="372" y="485" on="1"/>
        <pt x="407" y="431" on="1"/>
        <pt x="185" y="276" on="1"/>
        <pt x="673" y="276" on="1"/>
        <pt x="660" y="208" on="1"/>
      </contour>
    </TTGlyph>
    <TTGlyph name="arrowleft.cap" xMin="61" yMin="128" xMax="697" yMax="614">
      <component glyphName="arrowleft" x="24" y="129" flags="0x204"/>
    </TTGlyph>
    <TTGlyph name="arrowright" xMin="49" yMin="-1" xMax="685" yMax="485">
      <contour>
        <pt x="561" y="276" on="1"/>
        <pt x="396" y="438" on="1"/>
        <pt x="445" y="485" on="1"/>
        <pt x="685" y="248" on="1"/>
        <pt x="682" y="236" on="1"/>
        <pt x="350" y="-1" on="1"/>
        <pt x="315" y="53" on="1"/>
        <pt x="537" y="208" on="1"/>
        <pt x="49" y="208" on="1"/>
        <pt x="62" y="276" on="1"/>
      </contour>
    </TTGlyph>
    <TTGlyph name="arrowright.cap" xMin="74" yMin="128" xMax="710" yMax="614">
      <component glyphName="arrowright" x="25" y="129" flags="0x204"/>
    </TTGlyph>
    <TTGlyph name="asciicircum" xMin="121" yMin="485" xMax="415" yMax="645">
      <contour>
        <pt x="339" y="485" on="1"/>
        <pt x="289" y="568" on="1"/>
        <pt x="205" y="485" on="1"/>
        <pt x="121" y="485" on="1"/>
        <pt x="286" y="645" on="1"/>
        <pt x="317" y="645" on="1"/>
        <pt x="415" y="485" on="1"/>
      </contour>
    </TTGlyph>
    <TTGlyph name="asciitilde" xMin="101" yMin="317" xMax="403" yMax="418">
      <contour>
        <pt x="403" y="378" on="1"/>
        <pt x="348" y="317" on="0"/>
        <pt x="296" y="317" on="1"/>
        <pt x="276" y="317" on="0"/>
        <pt x="249" y="331" on="0"/>
        <pt x="236" y="339" on="1"/>
        <pt x="226" y="346" on="0"/>
        <pt x="205" y="356" on="0"/>
        <pt x="191" y="356" on="1"/>
        <pt x="175" y="356" on="0"/>
        <pt x="150" y="339" on="0"/>
        <pt x="133" y="322" on="1"/>
        <pt x="101" y="363" on="1"/>
        <pt x="149" y="417" on="0"/>
        <pt x="201" y="417" on="1"/>
        <pt x="218" y="417" on="0"/>
        <pt x="244" y="405" on="0"/>
        <pt x="256" y="397" on="1"/>
        <pt x="268" y="389" on="0"/>
        <pt x="292" y="377" on="0"/>
        <pt x="306" y="377" on="1"/>
        <pt x="323" y="377" on="0"/>
        <pt x="349" y="397" on="0"/>
        <pt x="370" y="418" on="1"/>
      </contour>
    </TTGlyph>
    <TTGlyph name="asterisk" xMin="115" yMin="435" xMax="415" yMax="733">
      <contour>
        <pt x="304" y="560" on="1"/>
        <pt x="356" y="462" on="1"/>
        <pt x="296" y="435" on="1"/>
        <pt x="253" y="537" on="1"/>
        <pt x="175" y="459" on="1"/>
        <pt x="130" y="506" on="1"/>
        <pt x="215" y="577" on="1"/>
        <pt x="115" y="626" on="1"/>
        <pt x="147" y="682" on="1"/>
        <pt x="242" y="624" on="1"/>
        <pt x="258" y="733" on="1"/>
        <pt x="322" y="720" on="1"/>
        <pt x="296" y="614" on="1"/>
        <pt x="406" y="632" on="1"/>
        <pt x="415" y="567" on="1"/>
      </contour>
    </TTGlyph>
    <TTGlyph name="at" xMin="64" yMin="-12" xMax="656" yMax="584">
      <contour>
        <pt x="656" y="338" on="1"/>
        <pt x="656" y="300" on="0"/>
        <pt x="631" y="230" on="0"/>
        <pt x="589" y="176" on="0"/>
        <pt x="533" y="143" on="0"/>
        <pt x="502" y="143" on="1"/>
        <pt x="444" y="143" on="0"/>
        <pt x="428" y="186" on="1"/>
        <pt x="407" y="166" on="0"/>
        <pt x="361" y="143" on="0"/>
        <pt x="332" y="143" on="1"/>
        <pt x="285" y="143" on="0"/>
        <pt x="237" y="189" on="0"/>
        <pt x="237" y="218" on="1"/>
        <pt x="237" y="253" on="0"/>
        <pt x="288" y="305" on="0"/>
        <pt x="334" y="305" on="1"/>
        <pt x="365" y="305" on="0"/>
        <pt x="401" y="292" on="0"/>
        <pt x="415" y="283" on="1"/>
        <pt x="417" y="289" on="0"/>
        <pt x="419" y="307" on="0"/>
        <pt x="419" y="311" on="1"/>
        <pt x="419" y="358" on="0"/>
        <pt x="348" y="358" on="1"/>
        <pt x="336" y="358" on="0"/>
        <pt x="313" y="356" on="0"/>
        <pt x="296" y="353" on="1"/>
        <pt x="298" y="403" on="1"/>
        <pt x="318" y="407" on="0"/>
        <pt x="348" y="409" on="0"/>
        <pt x="365" y="409" on="1"/>
        <pt x="426" y="409" on="0"/>
        <pt x="482" y="356" on="0"/>
        <pt x="482" y="313" on="1"/>
        <pt x="482" y="307" on="0"/>
        <pt x="480" y="288" on="0"/>
        <pt x="478" y="278" on="1"/>
        <pt x="469" y="231" on="1"/>
        <pt x="465" y="213" on="0"/>
        <pt x="486" y="190" on="0"/>
        <pt x="505" y="190" on="1"/>
        <pt x="524" y="190" on="0"/>
        <pt x="558" y="215" on="0"/>
        <pt x="582" y="255" on="0"/>
        <pt x="596" y="305" on="0"/>
        <pt x="596" y="330" on="1"/>
        <pt x="596" y="371" on="0"/>
        <pt x="568" y="444" on="0"/>
        <pt x="515" y="499" on="0"/>
        <pt x="437" y="531" on="0"/>
        <pt x="387" y="531" on="1"/>
        <pt x="327" y="531" on="0"/>
        <pt x="230" y="486" on="0"/>
        <pt x="162" y="411" on="0"/>
        <pt x="125" y="313" on="0"/>
        <pt x="125" y="260" on="1"/>
        <pt x="125" y="218" on="0"/>
        <pt x="154" y="140" on="0"/>
        <pt x="215" y="78" on="0"/>
        <pt x="308" y="41" on="0"/>
        <pt x="373" y="41" on="1"/>
        <pt x="397" y="41" on="0"/>
        <pt x="438" y="46" on="0"/>
        <pt x="469" y="53" on="1"/>
        <pt x="473" y="-1" on="1"/>
        <pt x="454" y="-4" on="0"/>
        <pt x="425" y="-9" on="0"/>
        <pt x="398" y="-11" on="0"/>
        <pt x="373" y="-12" on="0"/>
        <pt x="359" y="-12" on="1"/>
        <pt x="282" y="-12" on="0"/>
        <pt x="170" y="38" on="0"/>
        <pt x="98" y="115" on="0"/>
        <pt x="64" y="208" on="0"/>
        <pt x="64" y="250" on="1"/>
        <pt x="64" y="317" on="0"/>
        <pt x="111" y="439" on="0"/>
        <pt x="197" y="530" on="0"/>
        <pt x="315" y="584" on="0"/>
        <pt x="387" y="584" on="1"/>
        <pt x="450" y="584" on="0"/>
        <pt x="549" y="543" on="0"/>
        <pt x="619" y="474" on="0"/>
        <pt x="656" y="386" on="0"/>
      </contour>
      <contour>
        <pt x="408" y="244" on="1"/>
        <pt x="394" y="252" on="0"/>
        <pt x="362" y="262" on="0"/>
        <pt x="344" y="262" on="1"/>
        <pt x="321" y="262" on="0"/>
        <pt x="295" y="241" on="0"/>
        <pt x="295" y="223" on="1"/>
        <pt x="295" y="207" on="0"/>
        <pt x="321" y="186" on="0"/>
        <pt x="344" y="186" on="1"/>
        <pt x="360" y="186" on="0"/>
        <pt x="388" y="201" on="0"/>
        <pt x="402" y="215" on="1"/>
      </contour>
    </TTGlyph>
    <TTGlyph name="at.cap" xMin="94" yMin="-12" xMax="850" yMax="745">
      <contour>
        <pt x="617" y="-1" on="1"/>
        <pt x="584" y="-6" on="0"/>
        <pt x="523" y="-12" on="0"/>
        <pt x="502" y="-12" on="1"/>
        <pt x="415" y="-12" on="0"/>
        <pt x="266" y="33" on="0"/>
        <pt x="157" y="120" on="0"/>
        <pt x="94" y="247" on="0"/>
        <pt x="94" y="328" on="1"/>
        <pt x="94" y="414" on="0"/>
        <pt x="157" y="566" on="0"/>
        <pt x="268" y="679" on="0"/>
        <pt x="419" y="745" on="0"/>
        <pt x="506" y="745" on="1"/>
        <pt x="575" y="745" on="0"/>
        <pt x="700" y="701" on="0"/>
        <pt x="795" y="619" on="0"/>
        <pt x="850" y="500" on="0"/>
        <pt x="850" y="425" on="1"/>
        <pt x="850" y="376" on="0"/>
        <pt x="826" y="286" on="0"/>
        <pt x="778" y="217" on="0"/>
        <pt x="705" y="176" on="0"/>
        <pt x="657" y="176" on="1"/>
        <pt x="617" y="176" on="0"/>
        <pt x="566" y="209" on="0"/>
        <pt x="555" y="237" on="1"/>
        <pt x="533" y="214" on="0"/>
        <pt x="472" y="184" on="0"/>
        <pt x="434" y="184" on="1"/>
        <pt x="378" y="184" on="0"/>
        <pt x="308" y="235" on="0"/>
        <pt x="308" y="283" on="1"/>
        <pt x="308" y="309" on="0"/>
        <pt x="328" y="349" on="0"/>
        <pt x="362" y="377" on="0"/>
        <pt x="406" y="392" on="0"/>
        <pt x="430" y="392" on="1"/>
        <pt x="459" y="392" on="0"/>
        <pt x="518" y="376" on="0"/>
        <pt x="543" y="359" on="1"/>
        <pt x="545" y="370" on="0"/>
        <pt x="549" y="390" on="0"/>
        <pt x="549" y="401" on="1"/>
        <pt x="549" y="421" on="0"/>
        <pt x="529" y="445" on="0"/>
        <pt x="498" y="457" on="0"/>
        <pt x="462" y="461" on="0"/>
        <pt x="446" y="461" on="1"/>
        <pt x="417" y="461" on="0"/>
        <pt x="387" y="455" on="1"/>
        <pt x="389" y="518" on="1"/>
        <pt x="426" y="524" on="0"/>
        <pt x="464" y="524" on="1"/>
        <pt x="542" y="524" on="0"/>
        <pt x="625" y="466" on="0"/>
        <pt x="625" y="409" on="1"/>
        <pt x="625" y="389" on="0"/>
        <pt x="620" y="366" on="1"/>
        <pt x="607" y="302" on="1"/>
        <pt x="602" y="275" on="0"/>
        <pt x="628" y="237" on="0"/>
        <pt x="661" y="237" on="1"/>
        <pt x="694" y="237" on="0"/>
        <pt x="740" y="273" on="0"/>
        <pt x="769" y="328" on="0"/>
        <pt x="781" y="393" on="0"/>
        <pt x="781" y="423" on="1"/>
        <pt x="781" y="486" on="0"/>
        <pt x="737" y="582" on="0"/>
        <pt x="660" y="647" on="0"/>
        <pt x="557" y="681" on="0"/>
        <pt x="498" y="681" on="1"/>
        <pt x="427" y="681" on="0"/>
        <pt x="306" y="625" on="0"/>
        <pt x="217" y="528" on="0"/>
        <pt x="166" y="400" on="0"/>
        <pt x="166" y="328" on="1"/>
        <pt x="166" y="260" on="0"/>
        <pt x="220" y="156" on="0"/>
        <pt x="311" y="87" on="0"/>
        <pt x="431" y="52" on="0"/>
        <pt x="498" y="52" on="1"/>
        <pt x="524" y="52" on="0"/>
        <pt x="582" y="58" on="0"/>
        <pt x="612" y="64" on="1"/>
      </contour>
      <contour>
        <pt x="532" y="303" on="1"/>
        <pt x="494" y="336" on="0"/>
        <pt x="445" y="336" on="1"/>
        <pt x="417" y="336" on="0"/>
        <pt x="384" y="310" on="0"/>
        <pt x="384" y="286" on="1"/>
        <pt x="384" y="262" on="0"/>
        <pt x="421" y="237" on="0"/>
        <pt x="448" y="237" on="1"/>
        <pt x="471" y="237" on="0"/>
        <pt x="515" y="265" on="0"/>
        <pt x="529" y="290" on="1"/>
      </contour>
    </TTGlyph>
    <TTGlyph name="atilde" xMin="17" yMin="-8" xMax="430" yMax="600">
      <component glyphName="a" x="0" y="0" flags="0x204"/>
      <component glyphName="tilde" x="-3" y="0" flags="0x4"/>
    </TTGlyph>
    <TTGlyph name="b" xMin="16" yMin="-8" xMax="441" yMax="733">
      <contour>
        <pt x="441" y="256" on="1"/>
        <pt x="441" y="203" on="0"/>
        <pt x="405" y="107" on="0"/>
        <pt x="342" y="35" on="0"/>
        <pt x="258" y="-8" on="0"/>
        <pt x="210" y="-8" on="1"/>
        <pt x="177" y="-8" on="0"/>
        <pt x="121" y="13" on="0"/>
        <pt x="98" y="31" on="1"/>
        <pt x="92" y="0" on="1"/>
        <pt x="16" y="0" on="1"/>
        <pt x="158" y="733" on="1"/>
        <pt x="237" y="733" on="1"/>
        <pt x="171" y="391" on="1"/>
        <pt x="194" y="408" on="0"/>
        <pt x="252" y="428" on="0"/>
        <pt x="287" y="428" on="1"/>
        <pt x="323" y="428" on="0"/>
        <pt x="381" y="400" on="0"/>
        <pt x="420" y="352" on="0"/>
        <pt x="441" y="290" on="0"/>
      </contour>
      <contour>
        <pt x="364" y="244" on="1"/>
        <pt x="364" y="297" on="0"/>
        <pt x="307" y="360" on="0"/>
        <pt x="258" y="360" on="1"/>
        <pt x="230" y="360" on="0"/>
        <pt x="177" y="337" on="0"/>
        <pt x="157" y="319" on="1"/>
        <pt x="113" y="92" on="1"/>
        <pt x="150" y="58" on="0"/>
        <pt x="207" y="58" on="1"/>
        <pt x="240" y="58" on="0"/>
        <pt x="297" y="86" on="0"/>
        <pt x="340" y="136" on="0"/>
        <pt x="364" y="204" on="0"/>
      </contour>
    </TTGlyph>
    <TTGlyph name="backslash" xMin="86" yMin="-216" xMax="242" yMax="733">
      <contour>
        <pt x="174" y="-216" on="1"/>
        <pt x="86" y="733" on="1"/>
        <pt x="153" y="733" on="1"/>
        <pt x="242" y="-216" on="1"/>
      </contour>
    </TTGlyph>
    <TTGlyph name="backslash.cap" xMin="118" yMin="-110" xMax="274" yMax="839">
      <component glyphName="backslash" x="32" y="106" flags="0x204"/>
    </TTGlyph>
    <TTGlyph name="bar" xMin="9" yMin="-216" xMax="262" yMax="733">
      <contour>
        <pt x="9" y="-216" on="1"/>
        <pt x="194" y="733" on="1"/>
        <pt x="262" y="733" on="1"/>
        <pt x="77" y="-216" on="1"/>
      </contour>
    </TTGlyph>
    <TTGlyph name="bar.cap" xMin="26" yMin="-110" xMax="279" yMax="839">
      <component glyphName="bar" x="17" y="106" flags="0x204"/>
    </TTGlyph>
    <TTGlyph name="braceleft" xMin="28" yMin="-223" xMax="378" yMax="739">
      <contour>
        <pt x="365" y="670" on="1"/>
        <pt x="347" y="670" on="1"/>
        <pt x="310" y="670" on="0"/>
        <pt x="261" y="629" on="0"/>
        <pt x="252" y="580" on="1"/>
        <pt x="212" y="371" on="1"/>
        <pt x="207" y="347" on="0"/>
        <pt x="195" y="313" on="0"/>
        <pt x="175" y="288" on="0"/>
        <pt x="145" y="268" on="0"/>
        <pt x="122" y="258" on="1"/>
        <pt x="150" y="246" on="0"/>
        <pt x="174" y="214" on="0"/>
        <pt x="174" y="188" on="1"/>
        <pt x="174" y="182" on="0"/>
        <pt x="171" y="159" on="0"/>
        <pt x="168" y="145" on="1"/>
        <pt x="130" y="-47" on="1"/>
        <pt x="128" y="-57" on="0"/>
        <pt x="126" y="-77" on="0"/>
        <pt x="126" y="-83" on="1"/>
        <pt x="126" y="-155" on="0"/>
        <pt x="208" y="-155" on="1"/>
        <pt x="195" y="-223" on="1"/>
        <pt x="123" y="-223" on="0"/>
        <pt x="56" y="-154" on="0"/>
        <pt x="56" y="-91" on="1"/>
        <pt x="56" y="-83" on="0"/>
        <pt x="59" y="-51" on="0"/>
        <pt x="62" y="-37" on="1"/>
        <pt x="101" y="166" on="1"/>
        <pt x="103" y="174" on="0"/>
        <pt x="104" y="189" on="0"/>
        <pt x="104" y="191" on="1"/>
        <pt x="104" y="211" on="0"/>
        <pt x="81" y="231" on="0"/>
        <pt x="52" y="231" on="1"/>
        <pt x="28" y="231" on="1"/>
        <pt x="41" y="294" on="1"/>
        <pt x="64" y="294" on="1"/>
        <pt x="101" y="294" on="0"/>
        <pt x="133" y="327" on="0"/>
        <pt x="139" y="359" on="1"/>
        <pt x="183" y="583" on="1"/>
        <pt x="213" y="739" on="0"/>
        <pt x="351" y="739" on="1"/>
        <pt x="378" y="739" on="1"/>
      </contour>
    </TTGlyph>
    <TTGlyph name="braceleft.cap" xMin="49" yMin="-117" xMax="399" yMax="845">
      <component glyphName="braceleft" x="21" y="106" flags="0x204"/>
    </TTGlyph>
    <TTGlyph name="braceright" xMin="-64" yMin="-223" xMax="286" yMax="739">
      <contour>
        <pt x="-51" y="-154" on="1"/>
        <pt x="-33" y="-154" on="1"/>
        <pt x="4" y="-154" on="0"/>
        <pt x="53" y="-113" on="0"/>
        <pt x="62" y="-64" on="1"/>
        <pt x="102" y="145" on="1"/>
        <pt x="106" y="169" on="0"/>
        <pt x="119" y="203" on="0"/>
        <pt x="139" y="228" on="0"/>
        <pt x="169" y="248" on="0"/>
        <pt x="192" y="258" on="1"/>
        <pt x="164" y="270" on="0"/>
        <pt x="140" y="302" on="0"/>
        <pt x="140" y="328" on="1"/>
        <pt x="140" y="342" on="0"/>
        <pt x="146" y="371" on="1"/>
        <pt x="184" y="563" on="1"/>
        <pt x="186" y="573" on="0"/>
        <pt x="188" y="593" on="0"/>
        <pt x="188" y="599" on="1"/>
        <pt x="188" y="671" on="0"/>
        <pt x="106" y="671" on="1"/>
        <pt x="119" y="739" on="1"/>
        <pt x="191" y="739" on="0"/>
        <pt x="258" y="670" on="0"/>
        <pt x="258" y="607" on="1"/>
        <pt x="258" y="599" on="0"/>
        <pt x="255" y="567" on="0"/>
        <pt x="252" y="553" on="1"/>
        <pt x="213" y="350" on="1"/>
        <pt x="211" y="342" on="0"/>
        <pt x="210" y="327" on="0"/>
        <pt x="210" y="325" on="1"/>
        <pt x="210" y="305" on="0"/>
        <pt x="233" y="285" on="0"/>
        <pt x="262" y="285" on="1"/>
        <pt x="286" y="285" on="1"/>
        <pt x="273" y="222" on="1"/>
        <pt x="250" y="222" on="1"/>
        <pt x="213" y="222" on="0"/>
        <pt x="181" y="189" on="0"/>
        <pt x="175" y="157" on="1"/>
        <pt x="131" y="-67" on="1"/>
        <pt x="101" y="-223" on="0"/>
        <pt x="-37" y="-223" on="1"/>
        <pt x="-64" y="-223" on="1"/>
      </contour>
    </TTGlyph>
    <TTGlyph name="braceright.cap" xMin="-43" yMin="-117" xMax="307" yMax="845">
      <component glyphName="braceright" x="21" y="106" flags="0x204"/>
    </TTGlyph>
    <TTGlyph name="bracketleft" xMin="-3" yMin="-216" xMax="372" yMax="733">
      <contour>
        <pt x="360" y="669" on="1"/>
        <pt x="239" y="669" on="1"/>
        <pt x="79" y="-153" on="1"/>
        <pt x="200" y="-153" on="1"/>
        <pt x="188" y="-216" on="1"/>
        <pt x="-3" y="-216" on="1"/>
        <pt x="181" y="733" on="1"/>
        <pt x="372" y="733" on="1"/>
      </contour>
    </TTGlyph>
    <TTGlyph name="bracketleft.cap" xMin="18" yMin="-110" xMax="393" yMax="839">
      <component glyphName="bracketleft" x="21" y="106" flags="0x204"/>
    </TTGlyph>
    <TTGlyph name="bracketright" xMin="-58" yMin="-216" xMax="317" yMax="733">
      <contour>
        <pt x="133" y="-216" on="1"/>
        <pt x="-58" y="-216" on="1"/>
        <pt x="-46" y="-152" on="1"/>
        <pt x="75" y="-152" on="1"/>
        <pt x="235" y="670" on="1"/>
        <pt x="114" y="670" on="1"/>
        <pt x="126" y="733" on="1"/>
        <pt x="317" y="733" on="1"/>
      </contour>
    </TTGlyph>
    <TTGlyph name="bracketright.cap" xMin="-38" yMin="-110" xMax="337" yMax="839">
      <component glyphName="bracketright" x="20" y="106" flags="0x4"/>
    </TTGlyph>
    <TTGlyph name="breve" xMin="149" yMin="478" xMax="430" yMax="629">
      <contour>
        <pt x="430" y="624" on="1"/>
        <pt x="424" y="593" on="0"/>
        <pt x="401" y="539" on="0"/>
        <pt x="363" y="500" on="0"/>
        <pt x="309" y="478" on="0"/>
        <pt x="273" y="478" on="1"/>
        <pt x="214" y="478" on="0"/>
        <pt x="149" y="541" on="0"/>
        <pt x="149" y="592" on="1"/>
        <pt x="149" y="600" on="0"/>
        <pt x="149" y="616" on="0"/>
        <pt x="151" y="624" on="1"/>
        <pt x="218" y="629" on="1"/>
        <pt x="216" y="621" on="0"/>
        <pt x="216" y="606" on="0"/>
        <pt x="216" y="598" on="1"/>
        <pt x="216" y="566" on="0"/>
        <pt x="251" y="535" on="0"/>
        <pt x="280" y="535" on="1"/>
        <pt x="347" y="535" on="0"/>
        <pt x="362" y="629" on="1"/>
      </contour>
    </TTGlyph>
    <TTGlyph name="bullet" xMin="85" yMin="227" xMax="357" yMax="505">
      <contour>
        <pt x="357" y="366" on="1"/>
        <pt x="357" y="337" on="0"/>
        <pt x="336" y="286" on="0"/>
        <pt x="299" y="249" on="0"/>
        <pt x="249" y="227" on="0"/>
        <pt x="221" y="227" on="1"/>
        <pt x="193" y="227" on="0"/>
        <pt x="143" y="249" on="0"/>
        <pt x="106" y="286" on="0"/>
        <pt x="85" y="337" on="0"/>
        <pt x="85" y="366" on="1"/>
        <pt x="85" y="395" on="0"/>
        <pt x="106" y="446" on="0"/>
        <pt x="143" y="483" on="0"/>
        <pt x="193" y="505" on="0"/>
        <pt x="221" y="505" on="1"/>
        <pt x="249" y="505" on="0"/>
        <pt x="299" y="483" on="0"/>
        <pt x="336" y="446" on="0"/>
        <pt x="357" y="395" on="0"/>
      </contour>
    </TTGlyph>
    <TTGlyph name="c" xMin="38" yMin="-8" xMax="418" yMax="428">
      <contour>
        <pt x="381" y="327" on="1"/>
        <pt x="358" y="342" on="0"/>
        <pt x="304" y="361" on="0"/>
        <pt x="272" y="361" on="1"/>
        <pt x="238" y="361" on="0"/>
        <pt x="180" y="332" on="0"/>
        <pt x="137" y="282" on="0"/>
        <pt x="113" y="217" on="0"/>
        <pt x="113" y="181" on="1"/>
        <pt x="113" y="151" on="0"/>
        <pt x="134" y="105" on="0"/>
        <pt x="170" y="74" on="0"/>
        <pt x="217" y="59" on="0"/>
        <pt x="243" y="59" on="1"/>
        <pt x="268" y="59" on="0"/>
        <pt x="319" y="70" on="0"/>
        <pt x="340" y="81" on="1"/>
        <pt x="353" y="19" on="1"/>
        <pt x="321" y="6" on="0"/>
        <pt x="263" y="-8" on="0"/>
        <pt x="226" y="-8" on="1"/>
        <pt x="192" y="-8" on="0"/>
        <pt x="125" y="15" on="0"/>
        <pt x="71" y="61" on="0"/>
        <pt x="38" y="131" on="0"/>
        <pt x="38" y="178" on="1"/>
        <pt x="38" y="225" on="0"/>
        <pt x="74" y="315" on="0"/>
        <pt x="140" y="385" on="0"/>
        <pt x="231" y="428" on="0"/>
        <pt x="285" y="428" on="1"/>
        <pt x="324" y="428" on="0"/>
        <pt x="392" y="402" on="0"/>
        <pt x="418" y="384" on="1"/>
      </contour>
    </TTGlyph>
    <TTGlyph name="cacute" xMin="38" yMin="-8" xMax="446" yMax="645">
      <component glyphName="c" x="0" y="0" flags="0x204"/>
      <component glyphName="acute" x="67" y="0" flags="0x4"/>
    </TTGlyph>
    <TTGlyph name="caron" xMin="153" yMin="484" xMax="447" yMax="645">
      <contour>
        <pt x="282" y="484" on="1"/>
        <pt x="252" y="484" on="1"/>
        <pt x="153" y="645" on="1"/>
        <pt x="230" y="645" on="1"/>
        <pt x="280" y="561" on="1"/>
        <pt x="363" y="645" on="1"/>
        <pt x="447" y="645" on="1"/>
      </contour>
    </TTGlyph>
    <TTGlyph name="caron.alt" xMin="31" yMin="536" xMax="193" yMax="739">
      <contour>
        <pt x="193" y="725" on="1"/>
        <pt x="182" y="660" on="0"/>
        <pt x="115" y="568" on="0"/>
        <pt x="65" y="536" on="1"/>
        <pt x="31" y="567" on="1"/>
        <pt x="65" y="599" on="0"/>
        <pt x="107" y="681" on="0"/>
        <pt x="118" y="739" on="1"/>
      </contour>
    </TTGlyph>
    <TTGlyph name="ccaron" xMin="38" yMin="-8" xMax="470" yMax="645">
      <component glyphName="c" x="0" y="0" flags="0x204"/>
      <component glyphName="caron" x="23" y="0" flags="0x4"/>
    </TTGlyph>
    <TTGlyph name="ccedilla" xMin="38" yMin="-237" xMax="418" yMax="428">
      <contour>
        <pt x="274" y="-138" on="1"/>
        <pt x="274" y="-180" on="0"/>
        <pt x="212" y="-237" on="0"/>
        <pt x="161" y="-237" on="1"/>
        <pt x="106" y="-237" on="0"/>
        <pt x="55" y="-203" on="1"/>
        <pt x="86" y="-157" on="1"/>
        <pt x="126" y="-184" on="0"/>
        <pt x="166" y="-184" on="1"/>
        <pt x="185" y="-184" on="0"/>
        <pt x="212" y="-162" on="0"/>
        <pt x="212" y="-142" on="1"/>
        <pt x="212" y="-128" on="0"/>
        <pt x="176" y="-99" on="0"/>
        <pt x="129" y="-96" on="1"/>
        <pt x="126" y="-88" on="1"/>
        <pt x="167" y="0" on="1"/>
        <pt x="141" y="8" on="0"/>
        <pt x="94" y="38" on="0"/>
        <pt x="59" y="82" on="0"/>
        <pt x="38" y="141" on="0"/>
        <pt x="38" y="178" on="1"/>
        <pt x="38" y="225" on="0"/>
        <pt x="74" y="315" on="0"/>
        <pt x="140" y="385" on="0"/>
        <pt x="231" y="428" on="0"/>
        <pt x="285" y="428" on="1"/>
        <pt x="324" y="428" on="0"/>
        <pt x="392" y="402" on="0"/>
        <pt x="418" y="384" on="1"/>
        <pt x="381" y="327" on="1"/>
        <pt x="358" y="342" on="0"/>
        <pt x="304" y="361" on="0"/>
        <pt x="272" y="361" on="1"/>
        <pt x="238" y="361" on="0"/>
        <pt x="180" y="332" on="0"/>
        <pt x="137" y="282" on="0"/>
        <pt x="113" y="217" on="0"/>
        <pt x="113" y="181" on="1"/>
        <pt x="113" y="151" on="0"/>
        <pt x="134" y="105" on="0"/>
        <pt x="170" y="74" on="0"/>
        <pt x="217" y="59" on="0"/>
        <pt x="243" y="59" on="1"/>
        <pt x="268" y="59" on="0"/>
        <pt x="319" y="70" on="0"/>
        <pt x="340" y="81" on="1"/>
        <pt x="353" y="19" on="1"/>
        <pt x="321" y="6" on="0"/>
        <pt x="263" y="-8" on="0"/>
        <pt x="226" y="-8" on="1"/>
        <pt x="217" y="-8" on="0"/>
        <pt x="213" y="-7" on="1"/>
        <pt x="193" y="-56" on="1"/>
        <pt x="235" y="-68" on="0"/>
        <pt x="274" y="-111" on="0"/>
      </contour>
    </TTGlyph>
    <TTGlyph name="cdotaccent" xMin="38" yMin="-8" xMax="418" yMax="588">
      <component glyphName="c" x="0" y="0" flags="0x204"/>
      <component glyphName="dotaccent" x="14" y="0" flags="0x4"/>
    </TTGlyph>
    <TTGlyph name="cedilla" xMin="52" yMin="-237" xMax="271" yMax="14">
      <contour>
        <pt x="271" y="-138" on="1"/>
        <pt x="271" y="-180" on="0"/>
        <pt x="209" y="-237" on="0"/>
        <pt x="158" y="-237" on="1"/>
        <pt x="103" y="-237" on="0"/>
        <pt x="52" y="-203" on="1"/>
        <pt x="83" y="-157" on="1"/>
        <pt x="123" y="-184" on="0"/>
        <pt x="163" y="-184" on="1"/>
        <pt x="182" y="-184" on="0"/>
        <pt x="209" y="-162" on="0"/>
        <pt x="209" y="-142" on="1"/>
        <pt x="209" y="-128" on="0"/>
        <pt x="173" y="-99" on="0"/>
        <pt x="126" y="-96" on="1"/>
        <pt x="123" y="-88" on="1"/>
        <pt x="171" y="14" on="1"/>
        <pt x="214" y="2" on="1"/>
        <pt x="190" y="-56" on="1"/>
        <pt x="232" y="-68" on="0"/>
        <pt x="271" y="-111" on="0"/>
      </contour>
    </TTGlyph>
    <TTGlyph name="cent" xMin="38" yMin="-77" xMax="418" yMax="497">
      <contour>
        <pt x="322" y="424" on="1"/>
        <pt x="352" y="419" on="0"/>
        <pt x="402" y="395" on="0"/>
        <pt x="418" y="384" on="1"/>
        <pt x="381" y="327" on="1"/>
        <pt x="364" y="338" on="0"/>
        <pt x="328" y="353" on="0"/>
        <pt x="306" y="357" on="1"/>
        <pt x="233" y="59" on="1"/>
        <pt x="243" y="59" on="1"/>
        <pt x="268" y="59" on="0"/>
        <pt x="319" y="70" on="0"/>
        <pt x="340" y="81" on="1"/>
        <pt x="353" y="19" on="1"/>
        <pt x="321" y="6" on="0"/>
        <pt x="263" y="-8" on="0"/>
        <pt x="226" y="-8" on="1"/>
        <pt x="217" y="-8" on="1"/>
        <pt x="200" y="-77" on="1"/>
        <pt x="132" y="-72" on="1"/>
        <pt x="151" y="6" on="1"/>
        <pt x="104" y="24" on="0"/>
        <pt x="38" y="110" on="0"/>
        <pt x="38" y="178" on="1"/>
        <pt x="38" y="223" on="0"/>
        <pt x="69" y="306" on="0"/>
        <pt x="125" y="373" on="0"/>
        <pt x="204" y="419" on="0"/>
        <pt x="253" y="425" on="1"/>
        <pt x="271" y="497" on="1"/>
        <pt x="339" y="492" on="1"/>
      </contour>
      <contour>
        <pt x="112" y="181" on="1"/>
        <pt x="112" y="143" on="0"/>
        <pt x="142" y="91" on="0"/>
        <pt x="168" y="77" on="1"/>
        <pt x="236" y="355" on="1"/>
        <pt x="207" y="348" on="0"/>
        <pt x="161" y="314" on="0"/>
        <pt x="129" y="267" on="0"/>
        <pt x="112" y="210" on="0"/>
      </contour>
    </TTGlyph>
    <TTGlyph name="cent.lin" xMin="70" yMin="84" xMax="450" yMax="658">
      <component glyphName="cent" x="32" y="161" flags="0x204"/>
    </TTGlyph>
    <TTGlyph name="circumflex" xMin="123" yMin="485" xMax="417" yMax="645">
      <contour>
        <pt x="341" y="485" on="1"/>
        <pt x="291" y="568" on="1"/>
        <pt x="207" y="485" on="1"/>
        <pt x="123" y="485" on="1"/>
        <pt x="288" y="645" on="1"/>
        <pt x="319" y="645" on="1"/>
        <pt x="417" y="485" on="1"/>
      </contour>
    </TTGlyph>
    <TTGlyph name="colon" xMin="31" yMin="-8" xMax="183" yMax="369">
      <contour>
        <pt x="183" y="320" on="1"/>
        <pt x="183" y="300" on="0"/>
        <pt x="154" y="271" on="0"/>
        <pt x="133" y="271" on="1"/>
        <pt x="113" y="271" on="0"/>
        <pt x="84" y="300" on="0"/>
        <pt x="84" y="320" on="1"/>
        <pt x="84" y="340" on="0"/>
        <pt x="113" y="369" on="0"/>
        <pt x="133" y="369" on="1"/>
        <pt x="154" y="369" on="0"/>
        <pt x="183" y="340" on="0"/>
      </contour>
      <contour>
        <pt x="129" y="41" on="1"/>
        <pt x="129" y="21" on="0"/>
        <pt x="100" y="-8" on="0"/>
        <pt x="80" y="-8" on="1"/>
        <pt x="60" y="-8" on="0"/>
        <pt x="31" y="21" on="0"/>
        <pt x="31" y="41" on="1"/>
        <pt x="31" y="61" on="0"/>
        <pt x="60" y="90" on="0"/>
        <pt x="80" y="90" on="1"/>
        <pt x="100" y="90" on="0"/>
        <pt x="129" y="61" on="0"/>
      </contour>
    </TTGlyph>
    <TTGlyph name="comma" xMin="-11" yMin="-125" xMax="129" yMax="90">
      <contour>
        <pt x="129" y="35" on="1"/>
        <pt x="129" y="-9" on="0"/>
        <pt x="57" y="-91" on="0"/>
        <pt x="0" y="-125" on="1"/>
        <pt x="-11" y="-109" on="1"/>
        <pt x="28" y="-77" on="0"/>
        <pt x="63" y="-31" on="0"/>
        <pt x="73" y="-10" on="1"/>
        <pt x="53" y="-5" on="0"/>
        <pt x="31" y="24" on="0"/>
        <pt x="31" y="41" on="1"/>
        <pt x="31" y="61" on="0"/>
        <pt x="60" y="90" on="0"/>
        <pt x="80" y="90" on="1"/>
        <pt x="100" y="90" on="0"/>
        <pt x="129" y="59" on="0"/>
      </contour>
    </TTGlyph>
    <TTGlyph name="commaaccent" xMin="44" yMin="-288" xMax="184" yMax="-73">
      <contour>
        <pt x="184" y="-128" on="1"/>
        <pt x="184" y="-172" on="0"/>
        <pt x="112" y="-254" on="0"/>
        <pt x="55" y="-288" on="1"/>
        <pt x="44" y="-272" on="1"/>
        <pt x="83" y="-240" on="0"/>
        <pt x="118" y="-194" on="0"/>
        <pt x="128" y="-173" on="1"/>
        <pt x="108" y="-168" on="0"/>
        <pt x="86" y="-139" on="0"/>
        <pt x="86" y="-122" on="1"/>
        <pt x="86" y="-102" on="0"/>
        <pt x="115" y="-73" on="0"/>
        <pt x="135" y="-73" on="1"/>
        <pt x="155" y="-73" on="0"/>
        <pt x="184" y="-104" on="0"/>
      </contour>
    </TTGlyph>
    <TTGlyph name="copyright" xMin="78" yMin="-13" xMax="829" yMax="746">
      <contour>
        <pt x="567" y="210" on="1"/>
        <pt x="539" y="194" on="0"/>
        <pt x="476" y="176" on="0"/>
        <pt x="438" y="176" on="1"/>
        <pt x="401" y="176" on="0"/>
        <pt x="339" y="198" on="0"/>
        <pt x="293" y="240" on="0"/>
        <pt x="268" y="302" on="0"/>
        <pt x="268" y="342" on="1"/>
        <pt x="268" y="385" on="0"/>
        <pt x="303" y="464" on="0"/>
        <pt x="364" y="524" on="0"/>
        <pt x="446" y="559" on="0"/>
        <pt x="494" y="559" on="1"/>
        <pt x="536" y="559" on="0"/>
        <pt x="600" y="536" on="0"/>
        <pt x="625" y="518" on="1"/>
        <pt x="593" y="466" on="1"/>
        <pt x="573" y="480" on="0"/>
        <pt x="523" y="499" on="0"/>
        <pt x="493" y="499" on="1"/>
        <pt x="460" y="499" on="0"/>
        <pt x="403" y="476" on="0"/>
        <pt x="362" y="435" on="0"/>
        <pt x="338" y="380" on="0"/>
        <pt x="338" y="347" on="1"/>
        <pt x="338" y="293" on="0"/>
        <pt x="399" y="236" on="0"/>
        <pt x="452" y="236" on="1"/>
        <pt x="479" y="236" on="0"/>
        <pt x="530" y="251" on="0"/>
        <pt x="553" y="265" on="1"/>
      </contour>
      <contour>
        <pt x="771" y="415" on="1"/>
        <pt x="771" y="479" on="0"/>
        <pt x="731" y="583" on="0"/>
        <pt x="658" y="657" on="0"/>
        <pt x="557" y="696" on="0"/>
        <pt x="496" y="696" on="1"/>
        <pt x="418" y="696" on="0"/>
        <pt x="286" y="636" on="0"/>
        <pt x="190" y="533" on="0"/>
        <pt x="136" y="395" on="0"/>
        <pt x="136" y="318" on="1"/>
        <pt x="136" y="253" on="0"/>
        <pt x="177" y="149" on="0"/>
        <pt x="250" y="76" on="0"/>
        <pt x="351" y="36" on="0"/>
        <pt x="411" y="36" on="1"/>
        <pt x="489" y="36" on="0"/>
        <pt x="621" y="97" on="0"/>
        <pt x="717" y="201" on="0"/>
        <pt x="771" y="338" on="0"/>
      </contour>
      <contour>
        <pt x="829" y="415" on="1"/>
        <pt x="829" y="331" on="0"/>
        <pt x="767" y="177" on="0"/>
        <pt x="656" y="58" on="0"/>
        <pt x="502" y="-13" on="0"/>
        <pt x="409" y="-13" on="1"/>
        <pt x="335" y="-13" on="0"/>
        <pt x="213" y="35" on="0"/>
        <pt x="126" y="122" on="0"/>
        <pt x="78" y="244" on="0"/>
        <pt x="78" y="317" on="1"/>
        <pt x="78" y="401" on="0"/>
        <pt x="140" y="557" on="0"/>
        <pt x="251" y="675" on="0"/>
        <pt x="406" y="746" on="0"/>
        <pt x="499" y="746" on="1"/>
        <pt x="573" y="746" on="0"/>
        <pt x="694" y="698" on="0"/>
        <pt x="781" y="610" on="0"/>
        <pt x="829" y="488" on="0"/>
      </contour>
    </TTGlyph>
    <TTGlyph name="d" xMin="33" yMin="-8" xMax="517" yMax="733">
      <contour>
        <pt x="375" y="0" on="1"/>
        <pt x="301" y="0" on="1"/>
        <pt x="307" y="31" on="1"/>
        <pt x="284" y="14" on="0"/>
        <pt x="229" y="-8" on="0"/>
        <pt x="194" y="-8" on="1"/>
        <pt x="162" y="-8" on="0"/>
        <pt x="104" y="19" on="0"/>
        <pt x="60" y="66" on="0"/>
        <pt x="33" y="131" on="0"/>
        <pt x="33" y="169" on="1"/>
        <pt x="33" y="221" on="0"/>
        <pt x="68" y="315" on="0"/>
        <pt x="131" y="386" on="0"/>
        <pt x="218" y="428" on="0"/>
        <pt x="270" y="428" on="1"/>
        <pt x="302" y="428" on="0"/>
        <pt x="356" y="409" on="0"/>
        <pt x="374" y="397" on="1"/>
        <pt x="438" y="733" on="1"/>
        <pt x="517" y="733" on="1"/>
      </contour>
      <contour>
        <pt x="361" y="330" on="1"/>
        <pt x="342" y="345" on="0"/>
        <pt x="295" y="362" on="0"/>
        <pt x="267" y="362" on="1"/>
        <pt x="234" y="362" on="0"/>
        <pt x="176" y="336" on="0"/>
        <pt x="134" y="289" on="0"/>
        <pt x="110" y="223" on="0"/>
        <pt x="110" y="183" on="1"/>
        <pt x="110" y="124" on="0"/>
        <pt x="169" y="60" on="0"/>
        <pt x="220" y="60" on="1"/>
        <pt x="250" y="60" on="0"/>
        <pt x="294" y="77" on="0"/>
        <pt x="315" y="95" on="1"/>
      </contour>
    </TTGlyph>
    <TTGlyph name="dagger" xMin="85" yMin="156" xMax="456" yMax="733">
      <contour>
        <pt x="442" y="492" on="1"/>
        <pt x="303" y="492" on="1"/>
        <pt x="238" y="156" on="1"/>
        <pt x="163" y="156" on="1"/>
        <pt x="228" y="492" on="1"/>
        <pt x="85" y="492" on="1"/>
        <pt x="98" y="560" on="1"/>
        <pt x="241" y="560" on="1"/>
        <pt x="275" y="733" on="1"/>
        <pt x="350" y="733" on="1"/>
        <pt x="316" y="560" on="1"/>
        <pt x="456" y="560" on="1"/>
      </contour>
    </TTGlyph>
    <TTGlyph name="daggerdbl" xMin="52" yMin="156" xMax="461" yMax="733">
      <contour>
        <pt x="448" y="520" on="1"/>
        <pt x="308" y="520" on="1"/>
        <pt x="279" y="369" on="1"/>
        <pt x="424" y="369" on="1"/>
        <pt x="410" y="301" on="1"/>
        <pt x="266" y="301" on="1"/>
        <pt x="238" y="156" on="1"/>
        <pt x="163" y="156" on="1"/>
        <pt x="191" y="301" on="1"/>
        <pt x="52" y="301" on="1"/>
        <pt x="66" y="369" on="1"/>
        <pt x="204" y="369" on="1"/>
        <pt x="234" y="520" on="1"/>
        <pt x="90" y="520" on="1"/>
        <pt x="103" y="588" on="1"/>
        <pt x="247" y="588" on="1"/>
        <pt x="276" y="733" on="1"/>
        <pt x="350" y="733" on="1"/>
        <pt x="322" y="588" on="1"/>
        <pt x="461" y="588" on="1"/>
      </contour>
    </TTGlyph>
    <TTGlyph name="dcaron" xMin="33" yMin="-8" xMax="683" yMax="734">
      <component glyphName="d" x="0" y="0" flags="0x4"/>
      <component glyphName="caron.alt" x="490" y="-5" flags="0x4"/>
    </TTGlyph>
    <TTGlyph name="dcroat" xMin="33" yMin="-8" xMax="557" yMax="733">
      <contour>
        <pt x="496" y="626" on="1"/>
        <pt x="557" y="626" on="1"/>
        <pt x="544" y="561" on="1"/>
        <pt x="484" y="561" on="1"/>
        <pt x="375" y="0" on="1"/>
        <pt x="301" y="0" on="1"/>
        <pt x="307" y="31" on="1"/>
        <pt x="284" y="14" on="0"/>
        <pt x="229" y="-8" on="0"/>
        <pt x="194" y="-8" on="1"/>
        <pt x="162" y="-8" on="0"/>
        <pt x="104" y="19" on="0"/>
        <pt x="60" y="66" on="0"/>
        <pt x="33" y="131" on="0"/>
        <pt x="33" y="169" on="1"/>
        <pt x="33" y="221" on="0"/>
        <pt x="68" y="315" on="0"/>
        <pt x="131" y="386" on="0"/>
        <pt x="218" y="428" on="0"/>
        <pt x="270" y="428" on="1"/>
        <pt x="302" y="428" on="0"/>
        <pt x="356" y="409" on="0"/>
        <pt x="374" y="397" on="1"/>
        <pt x="405" y="561" on="1"/>
        <pt x="265" y="561" on="1"/>
        <pt x="278" y="626" on="1"/>
        <pt x="417" y="626" on="1"/>
        <pt x="438" y="733" on="1"/>
        <pt x="517" y="733" on="1"/>
      </contour>
      <contour>
        <pt x="361" y="330" on="1"/>
        <pt x="342" y="345" on="0"/>
        <pt x="295" y="362" on="0"/>
        <pt x="267" y="362" on="1"/>
        <pt x="234" y="362" on="0"/>
        <pt x="176" y="336" on="0"/>
        <pt x="134" y="289" on="0"/>
        <pt x="110" y="223" on="0"/>
        <pt x="110" y="183" on="1"/>
        <pt x="110" y="124" on="0"/>
        <pt x="169" y="60" on="0"/>
        <pt x="220" y="60" on="1"/>
        <pt x="250" y="60" on="0"/>
        <pt x="294" y="77" on="0"/>
        <pt x="315" y="95" on="1"/>
      </contour>
    </TTGlyph>
    <TTGlyph name="degree" xMin="126" yMin="482" xMax="329" yMax="685">
      <contour>
        <pt x="329" y="602" on="1"/>
        <pt x="329" y="580" on="0"/>
        <pt x="312" y="537" on="0"/>
        <pt x="282" y="503" on="0"/>
        <pt x="239" y="482" on="0"/>
        <pt x="212" y="482" on="1"/>
        <pt x="174" y="482" on="0"/>
        <pt x="126" y="531" on="0"/>
        <pt x="126" y="566" on="1"/>
        <pt x="126" y="588" on="0"/>
        <pt x="143" y="630" on="0"/>
        <pt x="173" y="664" on="0"/>
        <pt x="216" y="685" on="0"/>
        <pt x="243" y="685" on="1"/>
        <pt x="281" y="685" on="0"/>
        <pt x="329" y="637" on="0"/>
      </contour>
      <contour>
        <pt x="275" y="596" on="1"/>
        <pt x="275" y="618" on="0"/>
        <pt x="254" y="642" on="0"/>
        <pt x="237" y="642" on="1"/>
        <pt x="215" y="642" on="0"/>
        <pt x="180" y="602" on="0"/>
        <pt x="180" y="572" on="1"/>
        <pt x="180" y="550" on="0"/>
        <pt x="201" y="526" on="0"/>
        <pt x="218" y="526" on="1"/>
        <pt x="240" y="526" on="0"/>
        <pt x="275" y="565" on="0"/>
      </contour>
    </TTGlyph>
    <TTGlyph name="degree.lin" xMin="123" yMin="482" xMax="378" yMax="745">
      <contour>
        <pt x="378" y="637" on="1"/>
        <pt x="378" y="609" on="0"/>
        <pt x="357" y="553" on="0"/>
        <pt x="318" y="509" on="0"/>
        <pt x="264" y="482" on="0"/>
        <pt x="230" y="482" on="1"/>
        <pt x="182" y="482" on="0"/>
        <pt x="123" y="545" on="0"/>
        <pt x="123" y="590" on="1"/>
        <pt x="123" y="618" on="0"/>
        <pt x="144" y="674" on="0"/>
        <pt x="183" y="718" on="0"/>
        <pt x="237" y="745" on="0"/>
        <pt x="271" y="745" on="1"/>
        <pt x="319" y="745" on="0"/>
        <pt x="378" y="683" on="0"/>
      </contour>
      <contour>
        <pt x="315" y="633" on="1"/>
        <pt x="315" y="661" on="0"/>
        <pt x="288" y="693" on="0"/>
        <pt x="263" y="693" on="1"/>
        <pt x="247" y="693" on="0"/>
        <pt x="219" y="677" on="0"/>
        <pt x="198" y="650" on="0"/>
        <pt x="185" y="614" on="0"/>
        <pt x="185" y="595" on="1"/>
        <pt x="185" y="566" on="0"/>
        <pt x="213" y="534" on="0"/>
        <pt x="238" y="534" on="1"/>
        <pt x="254" y="534" on="0"/>
        <pt x="282" y="550" on="0"/>
        <pt x="303" y="577" on="0"/>
        <pt x="315" y="613" on="0"/>
      </contour>
    </TTGlyph>
    <TTGlyph name="dieresis" xMin="148" yMin="494" xMax="414" yMax="588">
      <contour>
        <pt x="241" y="541" on="1"/>
        <pt x="241" y="521" on="0"/>
        <pt x="214" y="494" on="0"/>
        <pt x="194" y="494" on="1"/>
        <pt x="175" y="494" on="0"/>
        <pt x="148" y="521" on="0"/>
        <pt x="148" y="541" on="1"/>
        <pt x="148" y="561" on="0"/>
        <pt x="175" y="588" on="0"/>
        <pt x="194" y="588" on="1"/>
        <pt x="214" y="588" on="0"/>
        <pt x="241" y="561" on="0"/>
      </contour>
      <contour>
        <pt x="414" y="541" on="1"/>
        <pt x="414" y="521" on="0"/>
        <pt x="387" y="494" on="0"/>
        <pt x="368" y="494" on="1"/>
        <pt x="348" y="494" on="0"/>
        <pt x="321" y="521" on="0"/>
        <pt x="321" y="541" on="1"/>
        <pt x="321" y="561" on="0"/>
        <pt x="348" y="588" on="0"/>
        <pt x="368" y="588" on="1"/>
        <pt x="387" y="588" on="0"/>
        <pt x="414" y="561" on="0"/>
      </contour>
    </TTGlyph>
    <TTGlyph name="divide" xMin="48" yMin="102" xMax="401" yMax="474">
      <contour>
        <pt x="247" y="151" on="1"/>
        <pt x="247" y="131" on="0"/>
        <pt x="218" y="102" on="0"/>
        <pt x="198" y="102" on="1"/>
        <pt x="177" y="102" on="0"/>
        <pt x="148" y="131" on="0"/>
        <pt x="148" y="151" on="1"/>
        <pt x="148" y="171" on="0"/>
        <pt x="177" y="201" on="0"/>
        <pt x="198" y="201" on="1"/>
        <pt x="218" y="201" on="0"/>
        <pt x="247" y="171" on="0"/>
      </contour>
      <contour>
        <pt x="61" y="322" on="1"/>
        <pt x="401" y="322" on="1"/>
        <pt x="388" y="254" on="1"/>
        <pt x="48" y="254" on="1"/>
      </contour>
      <contour>
        <pt x="301" y="424" on="1"/>
        <pt x="301" y="404" on="0"/>
        <pt x="272" y="375" on="0"/>
        <pt x="252" y="375" on="1"/>
        <pt x="231" y="375" on="0"/>
        <pt x="202" y="404" on="0"/>
        <pt x="202" y="424" on="1"/>
        <pt x="202" y="444" on="0"/>
        <pt x="231" y="474" on="0"/>
        <pt x="252" y="474" on="1"/>
        <pt x="272" y="474" on="0"/>
        <pt x="301" y="444" on="0"/>
      </contour>
    </TTGlyph>
    <TTGlyph name="divide.lin" xMin="85" yMin="185" xMax="438" yMax="557">
      <component glyphName="divide" x="37" y="83" flags="0x4"/>
    </TTGlyph>
    <TTGlyph name="dollar" xMin="10" yMin="-75" xMax="434" yMax="651">
      <contour>
        <pt x="340" y="580" on="1"/>
        <pt x="372" y="573" on="0"/>
        <pt x="420" y="547" on="0"/>
        <pt x="434" y="536" on="1"/>
        <pt x="392" y="476" on="1"/>
        <pt x="376" y="487" on="0"/>
        <pt x="343" y="506" on="0"/>
        <pt x="324" y="512" on="1"/>
        <pt x="277" y="314" on="1"/>
        <pt x="302" y="298" on="0"/>
        <pt x="342" y="268" on="0"/>
        <pt x="368" y="234" on="0"/>
        <pt x="382" y="193" on="0"/>
        <pt x="382" y="168" on="1"/>
        <pt x="382" y="127" on="0"/>
        <pt x="352" y="62" on="0"/>
        <pt x="302" y="17" on="0"/>
        <pt x="236" y="-9" on="0"/>
        <pt x="201" y="-10" on="1"/>
        <pt x="185" y="-75" on="1"/>
        <pt x="124" y="-70" on="1"/>
        <pt x="139" y="-5" on="1"/>
        <pt x="101" y="3" on="0"/>
        <pt x="39" y="36" on="0"/>
        <pt x="10" y="58" on="1"/>
        <pt x="55" y="117" on="1"/>
        <pt x="77" y="98" on="0"/>
        <pt x="127" y="69" on="0"/>
        <pt x="156" y="63" on="1"/>
        <pt x="206" y="269" on="1"/>
        <pt x="156" y="300" on="0"/>
        <pt x="101" y="363" on="0"/>
        <pt x="101" y="413" on="1"/>
        <pt x="101" y="446" on="0"/>
        <pt x="126" y="507" on="0"/>
        <pt x="172" y="553" on="0"/>
        <pt x="237" y="583" on="0"/>
        <pt x="278" y="585" on="1"/>
        <pt x="294" y="651" on="1"/>
        <pt x="356" y="646" on="1"/>
      </contour>
      <contour>
        <pt x="307" y="158" on="1"/>
        <pt x="307" y="179" on="0"/>
        <pt x="286" y="215" on="0"/>
        <pt x="260" y="235" on="1"/>
        <pt x="218" y="60" on="1"/>
        <pt x="256" y="65" on="0"/>
        <pt x="307" y="112" on="0"/>
      </contour>
      <contour>
        <pt x="176" y="422" on="1"/>
        <pt x="176" y="400" on="0"/>
        <pt x="197" y="365" on="0"/>
        <pt x="222" y="348" on="1"/>
        <pt x="262" y="517" on="1"/>
        <pt x="220" y="512" on="0"/>
        <pt x="176" y="459" on="0"/>
      </contour>
    </TTGlyph>
    <TTGlyph name="dollar.lin" xMin="9" yMin="-90" xMax="506" yMax="820">
      <contour>
        <pt x="397" y="738" on="1"/>
        <pt x="428" y="730" on="0"/>
        <pt x="483" y="704" on="0"/>
        <pt x="506" y="687" on="1"/>
        <pt x="466" y="625" on="1"/>
        <pt x="425" y="656" on="0"/>
        <pt x="380" y="668" on="1"/>
        <pt x="315" y="393" on="1"/>
        <pt x="340" y="377" on="0"/>
        <pt x="389" y="341" on="0"/>
        <pt x="428" y="295" on="0"/>
        <pt x="451" y="237" on="0"/>
        <pt x="451" y="199" on="1"/>
        <pt x="451" y="160" on="0"/>
        <pt x="420" y="85" on="0"/>
        <pt x="360" y="25" on="0"/>
        <pt x="274" y="-12" on="0"/>
        <pt x="219" y="-12" on="1"/>
        <pt x="201" y="-90" on="1"/>
        <pt x="140" y="-84" on="1"/>
        <pt x="158" y="-5" on="1"/>
        <pt x="117" y="3" on="0"/>
        <pt x="40" y="41" on="0"/>
        <pt x="9" y="67" on="1"/>
        <pt x="49" y="129" on="1"/>
        <pt x="107" y="79" on="0"/>
        <pt x="174" y="63" on="1"/>
        <pt x="241" y="347" on="1"/>
        <pt x="216" y="363" on="0"/>
        <pt x="168" y="399" on="0"/>
        <pt x="131" y="443" on="0"/>
        <pt x="108" y="499" on="0"/>
        <pt x="108" y="535" on="1"/>
        <pt x="108" y="576" on="0"/>
        <pt x="141" y="651" on="0"/>
        <pt x="200" y="709" on="0"/>
        <pt x="284" y="744" on="0"/>
        <pt x="335" y="745" on="1"/>
        <pt x="353" y="820" on="1"/>
        <pt x="415" y="815" on="1"/>
      </contour>
      <contour>
        <pt x="374" y="189" on="1"/>
        <pt x="374" y="231" on="0"/>
        <pt x="329" y="288" on="0"/>
        <pt x="296" y="311" on="1"/>
        <pt x="236" y="58" on="1"/>
        <pt x="270" y="61" on="0"/>
        <pt x="322" y="86" on="0"/>
        <pt x="357" y="122" on="0"/>
        <pt x="374" y="166" on="0"/>
      </contour>
      <contour>
        <pt x="185" y="545" on="1"/>
        <pt x="185" y="505" on="0"/>
        <pt x="228" y="451" on="0"/>
        <pt x="260" y="428" on="1"/>
        <pt x="318" y="674" on="1"/>
        <pt x="254" y="671" on="0"/>
        <pt x="185" y="596" on="0"/>
      </contour>
    </TTGlyph>
    <TTGlyph name="dotaccent" xMin="239" yMin="494" xMax="332" yMax="588">
      <contour>
        <pt x="332" y="541" on="1"/>
        <pt x="332" y="521" on="0"/>
        <pt x="305" y="494" on="0"/>
        <pt x="285" y="494" on="1"/>
        <pt x="266" y="494" on="0"/>
        <pt x="239" y="521" on="0"/>
        <pt x="239" y="541" on="1"/>
        <pt x="239" y="561" on="0"/>
        <pt x="266" y="588" on="0"/>
        <pt x="285" y="588" on="1"/>
        <pt x="305" y="588" on="0"/>
        <pt x="332" y="561" on="0"/>
      </contour>
    </TTGlyph>
    <TTGlyph name="dotlessi" xMin="21" yMin="0" xMax="182" yMax="420">
      <contour>
        <pt x="100" y="0" on="1"/>
        <pt x="21" y="0" on="1"/>
        <pt x="103" y="420" on="1"/>
        <pt x="182" y="420" on="1"/>
      </contour>
    </TTGlyph>
    <TTGlyph name="e" xMin="36" yMin="-8" xMax="425" yMax="428">
      <contour>
        <pt x="221" y="-8" on="1"/>
        <pt x="184" y="-8" on="0"/>
        <pt x="117" y="11" on="0"/>
        <pt x="66" y="52" on="0"/>
        <pt x="36" y="117" on="0"/>
        <pt x="36" y="164" on="1"/>
        <pt x="36" y="211" on="0"/>
        <pt x="71" y="306" on="0"/>
        <pt x="133" y="381" on="0"/>
        <pt x="219" y="428" on="0"/>
        <pt x="271" y="428" on="1"/>
        <pt x="309" y="428" on="0"/>
        <pt x="367" y="401" on="0"/>
        <pt x="406" y="355" on="0"/>
        <pt x="425" y="295" on="0"/>
        <pt x="425" y="262" on="1"/>
        <pt x="425" y="245" on="0"/>
        <pt x="420" y="213" on="0"/>
        <pt x="415" y="196" on="1"/>
        <pt x="112" y="196" on="1"/>
        <pt x="111" y="191" on="0"/>
        <pt x="111" y="179" on="0"/>
        <pt x="111" y="171" on="1"/>
        <pt x="111" y="113" on="0"/>
        <pt x="176" y="59" on="0"/>
        <pt x="230" y="59" on="1"/>
        <pt x="277" y="59" on="0"/>
        <pt x="338" y="81" on="1"/>
        <pt x="351" y="17" on="1"/>
        <pt x="321" y="5" on="0"/>
        <pt x="266" y="-8" on="0"/>
      </contour>
      <contour>
        <pt x="349" y="255" on="1"/>
        <pt x="350" y="260" on="0"/>
        <pt x="350" y="270" on="0"/>
        <pt x="350" y="275" on="1"/>
        <pt x="349" y="313" on="0"/>
        <pt x="304" y="361" on="0"/>
        <pt x="264" y="361" on="1"/>
        <pt x="220" y="361" on="0"/>
        <pt x="148" y="302" on="0"/>
        <pt x="128" y="255" on="1"/>
      </contour>
    </TTGlyph>
    <TTGlyph name="eacute" xMin="36" yMin="-8" xMax="451" yMax="645">
      <component glyphName="e" x="0" y="0" flags="0x204"/>
      <component glyphName="acute" x="72" y="0" flags="0x4"/>
    </TTGlyph>
    <TTGlyph name="ebreve" xMin="36" yMin="-8" xMax="459" yMax="629">
      <component glyphName="e" x="0" y="0" flags="0x204"/>
      <component glyphName="breve" x="29" y="0" flags="0x4"/>
    </TTGlyph>
    <TTGlyph name="ecaron" xMin="36" yMin="-8" xMax="475" yMax="645">
      <component glyphName="e" x="0" y="0" flags="0x204"/>
      <component glyphName="caron" x="28" y="0" flags="0x4"/>
    </TTGlyph>
    <TTGlyph name="ecircumflex" xMin="36" yMin="-8" xMax="435" yMax="645">
      <component glyphName="e" x="0" y="0" flags="0x204"/>
      <component glyphName="circumflex" x="18" y="0" flags="0x4"/>
    </TTGlyph>
    <TTGlyph name="edieresis" xMin="36" yMin="-8" xMax="437" yMax="588">
      <component glyphName="e" x="0" y="0" flags="0x204"/>
      <component glyphName="dieresis" x="23" y="0" flags="0x4"/>
    </TTGlyph>
    <TTGlyph name="edotaccent" xMin="36" yMin="-8" xMax="425" yMax="588">
      <component glyphName="e" x="0" y="0" flags="0x204"/>
      <component glyphName="dotaccent" x="19" y="0" flags="0x4"/>
    </TTGlyph>
    <TTGlyph name="egrave" xMin="36" yMin="-8" xMax="425" yMax="645">
      <component glyphName="e" x="0" y="0" flags="0x204"/>
      <component glyphName="grave" x="-35" y="0" flags="0x4"/>
    </TTGlyph>
    <TTGlyph name="eight" xMin="49" yMin="-10" xMax="462" yMax="586">
      <contour>
        <pt x="462" y="441" on="1"/>
        <pt x="462" y="393" on="0"/>
        <pt x="411" y="313" on="0"/>
        <pt x="354" y="290" on="1"/>
        <pt x="386" y="269" on="0"/>
        <pt x="421" y="204" on="0"/>
        <pt x="421" y="166" on="1"/>
        <pt x="421" y="131" on="0"/>
        <pt x="392" y="67" on="0"/>
        <pt x="341" y="19" on="0"/>
        <pt x="268" y="-10" on="0"/>
        <pt x="225" y="-10" on="1"/>
        <pt x="186" y="-10" on="0"/>
        <pt x="121" y="11" on="0"/>
        <pt x="75" y="51" on="0"/>
        <pt x="49" y="108" on="0"/>
        <pt x="49" y="143" on="1"/>
        <pt x="49" y="195" on="0"/>
        <pt x="114" y="284" on="0"/>
        <pt x="172" y="302" on="1"/>
        <pt x="143" y="322" on="0"/>
        <pt x="114" y="380" on="0"/>
        <pt x="114" y="413" on="1"/>
        <pt x="114" y="444" on="0"/>
        <pt x="141" y="506" on="0"/>
        <pt x="190" y="555" on="0"/>
        <pt x="259" y="586" on="0"/>
        <pt x="301" y="586" on="1"/>
        <pt x="338" y="586" on="0"/>
        <pt x="397" y="563" on="0"/>
        <pt x="439" y="524" on="0"/>
        <pt x="462" y="471" on="0"/>
      </contour>
      <contour>
        <pt x="386" y="433" on="1"/>
        <pt x="386" y="449" on="0"/>
        <pt x="376" y="480" on="0"/>
        <pt x="354" y="505" on="0"/>
        <pt x="321" y="521" on="0"/>
        <pt x="298" y="521" on="1"/>
        <pt x="274" y="521" on="0"/>
        <pt x="234" y="503" on="0"/>
        <pt x="206" y="473" on="0"/>
        <pt x="190" y="435" on="0"/>
        <pt x="190" y="415" on="1"/>
        <pt x="190" y="375" on="0"/>
        <pt x="238" y="325" on="0"/>
        <pt x="279" y="325" on="1"/>
        <pt x="303" y="325" on="0"/>
        <pt x="342" y="344" on="0"/>
        <pt x="370" y="374" on="0"/>
        <pt x="386" y="413" on="0"/>
      </contour>
      <contour>
        <pt x="342" y="169" on="1"/>
        <pt x="342" y="187" on="0"/>
        <pt x="330" y="220" on="0"/>
        <pt x="306" y="246" on="0"/>
        <pt x="269" y="262" on="0"/>
        <pt x="245" y="262" on="1"/>
        <pt x="218" y="262" on="0"/>
        <pt x="175" y="244" on="0"/>
        <pt x="145" y="212" on="0"/>
        <pt x="129" y="171" on="0"/>
        <pt x="129" y="148" on="1"/>
        <pt x="129" y="107" on="0"/>
        <pt x="183" y="55" on="0"/>
        <pt x="230" y="55" on="1"/>
        <pt x="258" y="55" on="0"/>
        <pt x="300" y="74" on="0"/>
        <pt x="328" y="105" on="0"/>
        <pt x="342" y="146" on="0"/>
      </contour>
    </TTGlyph>
    <TTGlyph name="eight.den" xMin="7" yMin="-8" xMax="334" yMax="393">
      <contour>
        <pt x="158" y="-8" on="1"/>
        <pt x="87" y="-8" on="0"/>
        <pt x="7" y="52" on="0"/>
        <pt x="7" y="98" on="1"/>
        <pt x="7" y="133" on="0"/>
        <pt x="49" y="188" on="0"/>
        <pt x="91" y="202" on="1"/>
        <pt x="71" y="214" on="0"/>
        <pt x="50" y="254" on="0"/>
        <pt x="50" y="277" on="1"/>
        <pt x="50" y="329" on="0"/>
        <pt x="130" y="393" on="0"/>
        <pt x="193" y="393" on="1"/>
        <pt x="258" y="393" on="0"/>
        <pt x="334" y="334" on="0"/>
        <pt x="334" y="290" on="1"/>
        <pt x="334" y="257" on="0"/>
        <pt x="294" y="202" on="0"/>
        <pt x="261" y="188" on="1"/>
        <pt x="285" y="174" on="0"/>
        <pt x="307" y="133" on="0"/>
        <pt x="307" y="110" on="1"/>
        <pt x="307" y="84" on="0"/>
        <pt x="284" y="40" on="0"/>
        <pt x="244" y="9" on="0"/>
        <pt x="190" y="-8" on="0"/>
      </contour>
      <contour>
        <pt x="191" y="222" on="1"/>
        <pt x="222" y="222" on="0"/>
        <pt x="265" y="253" on="0"/>
        <pt x="265" y="282" on="1"/>
        <pt x="265" y="305" on="0"/>
        <pt x="224" y="335" on="0"/>
        <pt x="189" y="335" on="1"/>
        <pt x="158" y="335" on="0"/>
        <pt x="115" y="304" on="0"/>
        <pt x="115" y="275" on="1"/>
        <pt x="115" y="252" on="0"/>
        <pt x="156" y="222" on="0"/>
      </contour>
      <contour>
        <pt x="158" y="50" on="1"/>
        <pt x="190" y="50" on="0"/>
        <pt x="237" y="81" on="0"/>
        <pt x="237" y="111" on="1"/>
        <pt x="237" y="126" on="0"/>
        <pt x="222" y="148" on="0"/>
        <pt x="198" y="162" on="0"/>
        <pt x="169" y="168" on="0"/>
        <pt x="156" y="168" on="1"/>
        <pt x="124" y="168" on="0"/>
        <pt x="77" y="137" on="0"/>
        <pt x="77" y="107" on="1"/>
        <pt x="77" y="92" on="0"/>
        <pt x="92" y="70" on="0"/>
        <pt x="116" y="56" on="0"/>
        <pt x="144" y="50" on="0"/>
      </contour>
    </TTGlyph>
    <TTGlyph name="eight.lin" xMin="55" yMin="-12" xMax="572" yMax="745">
      <contour>
        <pt x="280" y="-12" on="1"/>
        <pt x="227" y="-12" on="0"/>
        <pt x="144" y="19" on="0"/>
        <pt x="86" y="71" on="0"/>
        <pt x="55" y="142" on="0"/>
        <pt x="55" y="181" on="1"/>
        <pt x="55" y="217" on="0"/>
        <pt x="79" y="281" on="0"/>
        <pt x="120" y="333" on="0"/>
        <pt x="177" y="373" on="0"/>
        <pt x="210" y="385" on="1"/>
        <pt x="175" y="411" on="0"/>
        <pt x="137" y="482" on="0"/>
        <pt x="137" y="524" on="1"/>
        <pt x="137" y="570" on="0"/>
        <pt x="173" y="651" on="0"/>
        <pt x="235" y="711" on="0"/>
        <pt x="319" y="745" on="0"/>
        <pt x="366" y="745" on="1"/>
        <pt x="412" y="745" on="0"/>
        <pt x="488" y="716" on="0"/>
        <pt x="542" y="666" on="0"/>
        <pt x="572" y="598" on="0"/>
        <pt x="572" y="558" on="1"/>
        <pt x="572" y="526" on="0"/>
        <pt x="553" y="465" on="0"/>
        <pt x="517" y="411" on="0"/>
        <pt x="466" y="368" on="0"/>
        <pt x="434" y="355" on="1"/>
        <pt x="474" y="329" on="0"/>
        <pt x="519" y="257" on="0"/>
        <pt x="519" y="209" on="1"/>
        <pt x="519" y="164" on="0"/>
        <pt x="484" y="83" on="0"/>
        <pt x="420" y="23" on="0"/>
        <pt x="332" y="-12" on="0"/>
      </contour>
      <contour>
        <pt x="438" y="214" on="1"/>
        <pt x="438" y="242" on="0"/>
        <pt x="416" y="288" on="0"/>
        <pt x="377" y="322" on="0"/>
        <pt x="324" y="341" on="0"/>
        <pt x="293" y="341" on="1"/>
        <pt x="259" y="341" on="0"/>
        <pt x="202" y="314" on="0"/>
        <pt x="162" y="270" on="0"/>
        <pt x="139" y="214" on="0"/>
        <pt x="139" y="186" on="1"/>
        <pt x="139" y="159" on="0"/>
        <pt x="158" y="112" on="0"/>
        <pt x="194" y="77" on="0"/>
        <pt x="247" y="56" on="0"/>
        <pt x="282" y="56" on="1"/>
        <pt x="316" y="56" on="0"/>
        <pt x="374" y="81" on="0"/>
        <pt x="415" y="125" on="0"/>
        <pt x="438" y="182" on="0"/>
      </contour>
      <contour>
        <pt x="493" y="553" on="1"/>
        <pt x="493" y="581" on="0"/>
        <pt x="473" y="627" on="0"/>
        <pt x="437" y="660" on="0"/>
        <pt x="389" y="677" on="0"/>
        <pt x="361" y="677" on="1"/>
        <pt x="326" y="677" on="0"/>
        <pt x="271" y="652" on="0"/>
        <pt x="234" y="609" on="0"/>
        <pt x="215" y="553" on="0"/>
        <pt x="215" y="522" on="1"/>
        <pt x="215" y="471" on="0"/>
        <pt x="286" y="402" on="0"/>
        <pt x="348" y="402" on="1"/>
        <pt x="382" y="402" on="0"/>
        <pt x="435" y="427" on="0"/>
        <pt x="473" y="468" on="0"/>
        <pt x="493" y="523" on="0"/>
      </contour>
    </TTGlyph>
    <TTGlyph name="eight.num" xMin="75" yMin="340" xMax="402" yMax="741">
      <contour>
        <pt x="226" y="340" on="1"/>
        <pt x="155" y="340" on="0"/>
        <pt x="75" y="400" on="0"/>
        <pt x="75" y="446" on="1"/>
        <pt x="75" y="481" on="0"/>
        <pt x="117" y="536" on="0"/>
        <pt x="159" y="550" on="1"/>
        <pt x="139" y="562" on="0"/>
        <pt x="118" y="602" on="0"/>
        <pt x="118" y="625" on="1"/>
        <pt x="118" y="677" on="0"/>
        <pt x="198" y="741" on="0"/>
        <pt x="261" y="741" on="1"/>
        <pt x="326" y="741" on="0"/>
        <pt x="402" y="682" on="0"/>
        <pt x="402" y="638" on="1"/>
        <pt x="402" y="605" on="0"/>
        <pt x="362" y="550" on="0"/>
        <pt x="329" y="536" on="1"/>
        <pt x="353" y="522" on="0"/>
        <pt x="375" y="481" on="0"/>
        <pt x="375" y="458" on="1"/>
        <pt x="375" y="432" on="0"/>
        <pt x="352" y="388" on="0"/>
        <pt x="312" y="357" on="0"/>
        <pt x="258" y="340" on="0"/>
      </contour>
      <contour>
        <pt x="259" y="570" on="1"/>
        <pt x="290" y="570" on="0"/>
        <pt x="333" y="601" on="0"/>
        <pt x="333" y="630" on="1"/>
        <pt x="333" y="653" on="0"/>
        <pt x="292" y="683" on="0"/>
        <pt x="257" y="683" on="1"/>
        <pt x="226" y="683" on="0"/>
        <pt x="183" y="652" on="0"/>
        <pt x="183" y="623" on="1"/>
        <pt x="183" y="600" on="0"/>
        <pt x="224" y="570" on="0"/>
      </contour>
      <contour>
        <pt x="226" y="398" on="1"/>
        <pt x="258" y="398" on="0"/>
        <pt x="305" y="429" on="0"/>
        <pt x="305" y="459" on="1"/>
        <pt x="305" y="474" on="0"/>
        <pt x="290" y="496" on="0"/>
        <pt x="266" y="510" on="0"/>
        <pt x="237" y="516" on="0"/>
        <pt x="224" y="516" on="1"/>
        <pt x="192" y="516" on="0"/>
        <pt x="145" y="485" on="0"/>
        <pt x="145" y="455" on="1"/>
        <pt x="145" y="440" on="0"/>
        <pt x="160" y="418" on="0"/>
        <pt x="184" y="404" on="0"/>
        <pt x="212" y="398" on="0"/>
      </contour>
    </TTGlyph>
    <TTGlyph name="elevensixteenths" xMin="132" yMin="-15" xMax="1248" yMax="748">
      <component glyphName="one.num" x="15" y="0" flags="0x4"/>
      <component glyphName="one.num" x="289" y="0" flags="0x4"/>
      <component glyphName="fraction" x="563" y="0" flags="0x4"/>
      <component glyphName="one.den" x="658" y="0" flags="0x4"/>
      <component glyphName="six.den" x="932" y="0" flags="0x4"/>
    </TTGlyph>
    <TTGlyph name="ellipsis" xMin="39" yMin="-8" xMax="597" yMax="90">
      <contour>
        <pt x="137" y="41" on="1"/>
        <pt x="137" y="21" on="0"/>
        <pt x="108" y="-8" on="0"/>
        <pt x="88" y="-8" on="1"/>
        <pt x="68" y="-8" on="0"/>
        <pt x="39" y="21" on="0"/>
        <pt x="39" y="41" on="1"/>
        <pt x="39" y="61" on="0"/>
        <pt x="68" y="90" on="0"/>
        <pt x="88" y="90" on="1"/>
        <pt x="108" y="90" on="0"/>
        <pt x="137" y="61" on="0"/>
      </contour>
      <contour>
        <pt x="367" y="41" on="1"/>
        <pt x="367" y="21" on="0"/>
        <pt x="338" y="-8" on="0"/>
        <pt x="318" y="-8" on="1"/>
        <pt x="298" y="-8" on="0"/>
        <pt x="269" y="21" on="0"/>
        <pt x="269" y="41" on="1"/>
        <pt x="269" y="61" on="0"/>
        <pt x="298" y="90" on="0"/>
        <pt x="318" y="90" on="1"/>
        <pt x="338" y="90" on="0"/>
        <pt x="367" y="61" on="0"/>
      </contour>
      <contour>
        <pt x="597" y="41" on="1"/>
        <pt x="597" y="21" on="0"/>
        <pt x="568" y="-8" on="0"/>
        <pt x="548" y="-8" on="1"/>
        <pt x="528" y="-8" on="0"/>
        <pt x="499" y="21" on="0"/>
        <pt x="499" y="41" on="1"/>
        <pt x="499" y="61" on="0"/>
        <pt x="528" y="90" on="0"/>
        <pt x="548" y="90" on="1"/>
        <pt x="568" y="90" on="0"/>
        <pt x="597" y="61" on="0"/>
      </contour>
    </TTGlyph>
    <TTGlyph name="emacron" xMin="36" yMin="-8" xMax="449" yMax="570">
      <component glyphName="e" x="0" y="0" flags="0x204"/>
      <component glyphName="macron" x="24" y="0" flags="0x4"/>
    </TTGlyph>
    <TTGlyph name="emdash" xMin="49" yMin="208" xMax="684" yMax="276">
      <contour>
        <pt x="671" y="208" on="1"/>
        <pt x="49" y="208" on="1"/>
        <pt x="63" y="276" on="1"/>
        <pt x="684" y="276" on="1"/>
      </contour>
    </TTGlyph>
    <TTGlyph name="emdash.cap" xMin="75" yMin="337" xMax="710" yMax="405">
      <component glyphName="emdash" x="26" y="129" flags="0x204"/>
    </TTGlyph>
    <TTGlyph name="endash" xMin="49" yMin="208" xMax="434" yMax="276">
      <contour>
        <pt x="421" y="208" on="1"/>
        <pt x="49" y="208" on="1"/>
        <pt x="63" y="276" on="1"/>
        <pt x="434" y="276" on="1"/>
      </contour>
    </TTGlyph>
    <TTGlyph name="endash.cap" xMin="75" yMin="337" xMax="460" yMax="405">
      <component glyphName="endash" x="26" y="129" flags="0x204"/>
    </TTGlyph>
    <TTGlyph name="eogonek" xMin="36" yMin="-220" xMax="425" yMax="428">
      <contour>
        <pt x="221" y="-8" on="1"/>
        <pt x="184" y="-8" on="0"/>
        <pt x="117" y="11" on="0"/>
        <pt x="66" y="52" on="0"/>
        <pt x="36" y="117" on="0"/>
        <pt x="36" y="164" on="1"/>
        <pt x="36" y="211" on="0"/>
        <pt x="71" y="306" on="0"/>
        <pt x="133" y="381" on="0"/>
        <pt x="219" y="428" on="0"/>
        <pt x="271" y="428" on="1"/>
        <pt x="309" y="428" on="0"/>
        <pt x="367" y="401" on="0"/>
        <pt x="406" y="355" on="0"/>
        <pt x="425" y="295" on="0"/>
        <pt x="425" y="262" on="1"/>
        <pt x="425" y="245" on="0"/>
        <pt x="420" y="213" on="0"/>
        <pt x="415" y="196" on="1"/>
        <pt x="112" y="196" on="1"/>
        <pt x="111" y="191" on="0"/>
        <pt x="111" y="179" on="0"/>
        <pt x="111" y="171" on="1"/>
        <pt x="111" y="113" on="0"/>
        <pt x="176" y="59" on="0"/>
        <pt x="230" y="59" on="1"/>
        <pt x="277" y="59" on="0"/>
        <pt x="338" y="81" on="1"/>
        <pt x="351" y="17" on="1"/>
        <pt x="331" y="0" on="0"/>
        <pt x="293" y="-36" on="0"/>
        <pt x="261" y="-75" on="0"/>
        <pt x="242" y="-113" on="0"/>
        <pt x="242" y="-131" on="1"/>
        <pt x="242" y="-164" on="0"/>
        <pt x="269" y="-164" on="1"/>
        <pt x="280" y="-164" on="0"/>
        <pt x="301" y="-151" on="0"/>
        <pt x="318" y="-136" on="1"/>
        <pt x="345" y="-169" on="1"/>
        <pt x="320" y="-195" on="0"/>
        <pt x="275" y="-218" on="0"/>
        <pt x="247" y="-219" on="1"/>
        <pt x="213" y="-220" on="0"/>
        <pt x="176" y="-183" on="0"/>
        <pt x="176" y="-151" on="1"/>
        <pt x="176" y="-116" on="0"/>
        <pt x="224" y="-41" on="0"/>
        <pt x="262" y="-6" on="1"/>
        <pt x="253" y="-7" on="0"/>
        <pt x="232" y="-8" on="0"/>
      </contour>
      <contour>
        <pt x="349" y="255" on="1"/>
        <pt x="350" y="260" on="0"/>
        <pt x="350" y="270" on="0"/>
        <pt x="350" y="275" on="1"/>
        <pt x="349" y="313" on="0"/>
        <pt x="304" y="361" on="0"/>
        <pt x="264" y="361" on="1"/>
        <pt x="220" y="361" on="0"/>
        <pt x="148" y="302" on="0"/>
        <pt x="128" y="255" on="1"/>
      </contour>
    </TTGlyph>
    <TTGlyph name="equal" xMin="48" yMin="182" xMax="382" yMax="394">
      <contour>
        <pt x="341" y="182" on="1"/>
        <pt x="48" y="182" on="1"/>
        <pt x="61" y="250" on="1"/>
        <pt x="354" y="250" on="1"/>
      </contour>
      <contour>
        <pt x="369" y="326" on="1"/>
        <pt x="76" y="326" on="1"/>
        <pt x="89" y="394" on="1"/>
        <pt x="382" y="394" on="1"/>
      </contour>
    </TTGlyph>
    <TTGlyph name="equal.lin" xMin="61" yMin="265" xMax="395" yMax="477">
      <component glyphName="equal" x="13" y="83" flags="0x4"/>
    </TTGlyph>
    <TTGlyph name="eth" xMin="35" yMin="-8" xMax="440" yMax="734">
      <contour>
        <pt x="325" y="608" on="1"/>
        <pt x="376" y="548" on="0"/>
        <pt x="440" y="387" on="0"/>
        <pt x="440" y="281" on="1"/>
        <pt x="440" y="222" on="0"/>
        <pt x="406" y="117" on="0"/>
        <pt x="344" y="38" on="0"/>
        <pt x="256" y="-8" on="0"/>
        <pt x="202" y="-8" on="1"/>
        <pt x="166" y="-8" on="0"/>
        <pt x="104" y="17" on="0"/>
        <pt x="60" y="63" on="0"/>
        <pt x="35" y="128" on="0"/>
        <pt x="35" y="167" on="1"/>
        <pt x="35" y="215" on="0"/>
        <pt x="70" y="308" on="0"/>
        <pt x="133" y="381" on="0"/>
        <pt x="220" y="427" on="0"/>
        <pt x="271" y="427" on="1"/>
        <pt x="295" y="427" on="0"/>
        <pt x="340" y="412" on="0"/>
        <pt x="354" y="395" on="1"/>
        <pt x="346" y="445" on="0"/>
        <pt x="297" y="532" on="0"/>
        <pt x="264" y="569" on="1"/>
        <pt x="166" y="505" on="1"/>
        <pt x="131" y="560" on="1"/>
        <pt x="215" y="615" on="1"/>
        <pt x="194" y="633" on="0"/>
        <pt x="151" y="663" on="0"/>
        <pt x="130" y="675" on="1"/>
        <pt x="169" y="734" on="1"/>
        <pt x="198" y="718" on="0"/>
        <pt x="252" y="680" on="0"/>
        <pt x="278" y="657" on="1"/>
        <pt x="362" y="712" on="1"/>
        <pt x="398" y="656" on="1"/>
      </contour>
      <contour>
        <pt x="362" y="249" on="1"/>
        <pt x="362" y="300" on="0"/>
        <pt x="313" y="360" on="0"/>
        <pt x="264" y="360" on="1"/>
        <pt x="233" y="360" on="0"/>
        <pt x="178" y="329" on="0"/>
        <pt x="136" y="277" on="0"/>
        <pt x="112" y="209" on="0"/>
        <pt x="112" y="172" on="1"/>
        <pt x="112" y="120" on="0"/>
        <pt x="163" y="59" on="0"/>
        <pt x="210" y="59" on="1"/>
        <pt x="241" y="59" on="0"/>
        <pt x="296" y="90" on="0"/>
        <pt x="338" y="143" on="0"/>
        <pt x="362" y="211" on="0"/>
      </contour>
    </TTGlyph>
    <TTGlyph name="exclam" xMin="27" yMin="-8" xMax="258" yMax="733">
      <contour>
        <pt x="130" y="175" on="1"/>
        <pt x="75" y="181" on="1"/>
        <pt x="168" y="733" on="1"/>
        <pt x="258" y="733" on="1"/>
      </contour>
      <contour>
        <pt x="125" y="41" on="1"/>
        <pt x="125" y="21" on="0"/>
        <pt x="96" y="-8" on="0"/>
        <pt x="76" y="-8" on="1"/>
        <pt x="56" y="-8" on="0"/>
        <pt x="27" y="21" on="0"/>
        <pt x="27" y="41" on="1"/>
        <pt x="27" y="61" on="0"/>
        <pt x="56" y="90" on="0"/>
        <pt x="76" y="90" on="1"/>
        <pt x="96" y="90" on="0"/>
        <pt x="125" y="61" on="0"/>
      </contour>
    </TTGlyph>
    <TTGlyph name="exclamdown" xMin="20" yMin="0" xMax="251" yMax="741">
      <contour>
        <pt x="251" y="692" on="1"/>
        <pt x="251" y="672" on="0"/>
        <pt x="222" y="643" on="0"/>
        <pt x="202" y="643" on="1"/>
        <pt x="182" y="643" on="0"/>
        <pt x="153" y="672" on="0"/>
        <pt x="153" y="692" on="1"/>
        <pt x="153" y="712" on="0"/>
        <pt x="182" y="741" on="0"/>
        <pt x="202" y="741" on="1"/>
        <pt x="222" y="741" on="0"/>
        <pt x="251" y="712" on="0"/>
      </contour>
      <contour>
        <pt x="110" y="0" on="1"/>
        <pt x="20" y="0" on="1"/>
        <pt x="148" y="558" on="1"/>
        <pt x="203" y="552" on="1"/>
      </contour>
    </TTGlyph>
    <TTGlyph name="f" xMin="3" yMin="-216" xMax="386" yMax="737">
      <contour>
        <pt x="358" y="658" on="1"/>
        <pt x="338" y="663" on="0"/>
        <pt x="320" y="663" on="1"/>
        <pt x="296" y="663" on="0"/>
        <pt x="267" y="653" on="0"/>
        <pt x="248" y="628" on="0"/>
        <pt x="235" y="582" on="0"/>
        <pt x="228" y="546" on="1"/>
        <pt x="203" y="420" on="1"/>
        <pt x="308" y="420" on="1"/>
        <pt x="294" y="352" on="1"/>
        <pt x="190" y="352" on="1"/>
        <pt x="80" y="-216" on="1"/>
        <pt x="3" y="-216" on="1"/>
        <pt x="114" y="352" on="1"/>
        <pt x="37" y="352" on="1"/>
        <pt x="37" y="359" on="1"/>
        <pt x="128" y="428" on="1"/>
        <pt x="150" y="536" on="1"/>
        <pt x="160" y="589" on="0"/>
        <pt x="189" y="665" on="0"/>
        <pt x="229" y="714" on="0"/>
        <pt x="285" y="737" on="0"/>
        <pt x="323" y="737" on="1"/>
        <pt x="342" y="737" on="0"/>
        <pt x="369" y="733" on="0"/>
        <pt x="386" y="728" on="1"/>
      </contour>
    </TTGlyph>
    <TTGlyph name="f_f" xMin="3" yMin="-216" xMax="662" yMax="737">
      <contour>
        <pt x="634" y="658" on="1"/>
        <pt x="614" y="663" on="0"/>
        <pt x="596" y="663" on="1"/>
        <pt x="572" y="663" on="0"/>
        <pt x="543" y="653" on="0"/>
        <pt x="524" y="628" on="0"/>
        <pt x="511" y="582" on="0"/>
        <pt x="504" y="546" on="1"/>
        <pt x="479" y="420" on="1"/>
        <pt x="584" y="420" on="1"/>
        <pt x="570" y="352" on="1"/>
        <pt x="466" y="352" on="1"/>
        <pt x="356" y="-216" on="1"/>
        <pt x="279" y="-216" on="1"/>
        <pt x="390" y="352" on="1"/>
        <pt x="313" y="352" on="1"/>
        <pt x="313" y="359" on="1"/>
        <pt x="404" y="428" on="1"/>
        <pt x="426" y="536" on="1"/>
        <pt x="436" y="589" on="0"/>
        <pt x="465" y="665" on="0"/>
        <pt x="505" y="714" on="0"/>
        <pt x="561" y="737" on="0"/>
        <pt x="599" y="737" on="1"/>
        <pt x="618" y="737" on="0"/>
        <pt x="645" y="733" on="0"/>
        <pt x="662" y="728" on="1"/>
      </contour>
      <contour>
        <pt x="358" y="658" on="1"/>
        <pt x="338" y="663" on="0"/>
        <pt x="320" y="663" on="1"/>
        <pt x="296" y="663" on="0"/>
        <pt x="267" y="653" on="0"/>
        <pt x="248" y="628" on="0"/>
        <pt x="235" y="582" on="0"/>
        <pt x="228" y="546" on="1"/>
        <pt x="203" y="420" on="1"/>
        <pt x="308" y="420" on="1"/>
        <pt x="294" y="352" on="1"/>
        <pt x="190" y="352" on="1"/>
        <pt x="80" y="-216" on="1"/>
        <pt x="3" y="-216" on="1"/>
        <pt x="114" y="352" on="1"/>
        <pt x="37" y="352" on="1"/>
        <pt x="37" y="359" on="1"/>
        <pt x="128" y="428" on="1"/>
        <pt x="150" y="536" on="1"/>
        <pt x="160" y="589" on="0"/>
        <pt x="189" y="665" on="0"/>
        <pt x="229" y="714" on="0"/>
        <pt x="285" y="737" on="0"/>
        <pt x="323" y="737" on="1"/>
        <pt x="342" y="737" on="0"/>
        <pt x="369" y="733" on="0"/>
        <pt x="386" y="728" on="1"/>
      </contour>
    </TTGlyph>
    <TTGlyph name="f_f_i" xMin="3" yMin="-216" xMax="772" yMax="737">
      <contour>
        <pt x="358" y="658" on="1"/>
        <pt x="338" y="663" on="0"/>
        <pt x="320" y="663" on="1"/>
        <pt x="296" y="663" on="0"/>
        <pt x="267" y="653" on="0"/>
        <pt x="248" y="628" on="0"/>
        <pt x="235" y="582" on="0"/>
        <pt x="228" y="546" on="1"/>
        <pt x="203" y="420" on="1"/>
        <pt x="308" y="420" on="1"/>
        <pt x="294" y="352" on="1"/>
        <pt x="190" y="352" on="1"/>
        <pt x="80" y="-216" on="1"/>
        <pt x="3" y="-216" on="1"/>
        <pt x="114" y="352" on="1"/>
        <pt x="37" y="352" on="1"/>
        <pt x="37" y="359" on="1"/>
        <pt x="128" y="428" on="1"/>
        <pt x="150" y="536" on="1"/>
        <pt x="160" y="589" on="0"/>
        <pt x="189" y="665" on="0"/>
        <pt x="229" y="714" on="0"/>
        <pt x="285" y="737" on="0"/>
        <pt x="323" y="737" on="1"/>
        <pt x="342" y="737" on="0"/>
        <pt x="369" y="733" on="0"/>
        <pt x="386" y="728" on="1"/>
      </contour>
      <contour>
        <pt x="634" y="658" on="1"/>
        <pt x="614" y="663" on="0"/>
        <pt x="596" y="663" on="1"/>
        <pt x="572" y="663" on="0"/>
        <pt x="543" y="653" on="0"/>
        <pt x="524" y="628" on="0"/>
        <pt x="511" y="582" on="0"/>
        <pt x="504" y="546" on="1"/>
        <pt x="479" y="420" on="1"/>
        <pt x="584" y="420" on="1"/>
        <pt x="570" y="352" on="1"/>
        <pt x="466" y="352" on="1"/>
        <pt x="356" y="-216" on="1"/>
        <pt x="279" y="-216" on="1"/>
        <pt x="390" y="352" on="1"/>
        <pt x="313" y="352" on="1"/>
        <pt x="313" y="359" on="1"/>
        <pt x="404" y="428" on="1"/>
        <pt x="426" y="536" on="1"/>
        <pt x="436" y="589" on="0"/>
        <pt x="465" y="665" on="0"/>
        <pt x="505" y="714" on="0"/>
        <pt x="561" y="737" on="0"/>
        <pt x="599" y="737" on="1"/>
        <pt x="618" y="737" on="0"/>
        <pt x="645" y="733" on="0"/>
        <pt x="662" y="728" on="1"/>
      </contour>
      <contour>
        <pt x="652" y="0" on="1"/>
        <pt x="573" y="0" on="1"/>
        <pt x="655" y="420" on="1"/>
        <pt x="734" y="420" on="1"/>
      </contour>
      <contour>
        <pt x="772" y="564" on="1"/>
        <pt x="772" y="544" on="0"/>
        <pt x="743" y="515" on="0"/>
        <pt x="723" y="515" on="1"/>
        <pt x="702" y="515" on="0"/>
        <pt x="673" y="544" on="0"/>
        <pt x="673" y="564" on="1"/>
        <pt x="673" y="584" on="0"/>
        <pt x="702" y="614" on="0"/>
        <pt x="723" y="614" on="1"/>
        <pt x="743" y="614" on="0"/>
        <pt x="772" y="584" on="0"/>
      </contour>
    </TTGlyph>
    <TTGlyph name="f_f_l" xMin="3" yMin="-216" xMax="794" yMax="737">
      <contour>
        <pt x="358" y="658" on="1"/>
        <pt x="338" y="663" on="0"/>
        <pt x="320" y="663" on="1"/>
        <pt x="296" y="663" on="0"/>
        <pt x="267" y="653" on="0"/>
        <pt x="248" y="628" on="0"/>
        <pt x="235" y="582" on="0"/>
        <pt x="228" y="546" on="1"/>
        <pt x="203" y="420" on="1"/>
        <pt x="308" y="420" on="1"/>
        <pt x="294" y="352" on="1"/>
        <pt x="190" y="352" on="1"/>
        <pt x="80" y="-216" on="1"/>
        <pt x="3" y="-216" on="1"/>
        <pt x="114" y="352" on="1"/>
        <pt x="37" y="352" on="1"/>
        <pt x="37" y="359" on="1"/>
        <pt x="128" y="428" on="1"/>
        <pt x="150" y="536" on="1"/>
        <pt x="160" y="589" on="0"/>
        <pt x="189" y="665" on="0"/>
        <pt x="229" y="714" on="0"/>
        <pt x="285" y="737" on="0"/>
        <pt x="323" y="737" on="1"/>
        <pt x="342" y="737" on="0"/>
        <pt x="369" y="733" on="0"/>
        <pt x="386" y="728" on="1"/>
      </contour>
      <contour>
        <pt x="634" y="658" on="1"/>
        <pt x="614" y="663" on="0"/>
        <pt x="596" y="663" on="1"/>
        <pt x="572" y="663" on="0"/>
        <pt x="543" y="653" on="0"/>
        <pt x="524" y="628" on="0"/>
        <pt x="511" y="582" on="0"/>
        <pt x="504" y="546" on="1"/>
        <pt x="479" y="420" on="1"/>
        <pt x="584" y="420" on="1"/>
        <pt x="570" y="352" on="1"/>
        <pt x="466" y="352" on="1"/>
        <pt x="356" y="-216" on="1"/>
        <pt x="279" y="-216" on="1"/>
        <pt x="390" y="352" on="1"/>
        <pt x="313" y="352" on="1"/>
        <pt x="313" y="359" on="1"/>
        <pt x="404" y="428" on="1"/>
        <pt x="426" y="536" on="1"/>
        <pt x="436" y="589" on="0"/>
        <pt x="465" y="665" on="0"/>
        <pt x="505" y="714" on="0"/>
        <pt x="561" y="737" on="0"/>
        <pt x="599" y="737" on="1"/>
        <pt x="618" y="737" on="0"/>
        <pt x="645" y="733" on="0"/>
        <pt x="662" y="728" on="1"/>
      </contour>
      <contour>
        <pt x="652" y="0" on="1"/>
        <pt x="573" y="0" on="1"/>
        <pt x="715" y="733" on="1"/>
        <pt x="794" y="733" on="1"/>
      </contour>
    </TTGlyph>
    <TTGlyph name="fi" xMin="3" yMin="-216" xMax="496" yMax="737">
      <contour>
        <pt x="358" y="658" on="1"/>
        <pt x="338" y="663" on="0"/>
        <pt x="320" y="663" on="1"/>
        <pt x="296" y="663" on="0"/>
        <pt x="267" y="653" on="0"/>
        <pt x="248" y="628" on="0"/>
        <pt x="235" y="582" on="0"/>
        <pt x="228" y="546" on="1"/>
        <pt x="203" y="420" on="1"/>
        <pt x="308" y="420" on="1"/>
        <pt x="294" y="352" on="1"/>
        <pt x="190" y="352" on="1"/>
        <pt x="80" y="-216" on="1"/>
        <pt x="3" y="-216" on="1"/>
        <pt x="114" y="352" on="1"/>
        <pt x="37" y="352" on="1"/>
        <pt x="37" y="359" on="1"/>
        <pt x="128" y="428" on="1"/>
        <pt x="150" y="536" on="1"/>
        <pt x="160" y="589" on="0"/>
        <pt x="189" y="665" on="0"/>
        <pt x="229" y="714" on="0"/>
        <pt x="285" y="737" on="0"/>
        <pt x="323" y="737" on="1"/>
        <pt x="342" y="737" on="0"/>
        <pt x="369" y="733" on="0"/>
        <pt x="386" y="728" on="1"/>
      </contour>
      <contour>
        <pt x="376" y="0" on="1"/>
        <pt x="297" y="0" on="1"/>
        <pt x="379" y="420" on="1"/>
        <pt x="458" y="420" on="1"/>
      </contour>
      <contour>
        <pt x="496" y="564" on="1"/>
        <pt x="496" y="544" on="0"/>
        <pt x="467" y="515" on="0"/>
        <pt x="447" y="515" on="1"/>
        <pt x="426" y="515" on="0"/>
        <pt x="397" y="544" on="0"/>
        <pt x="397" y="564" on="1"/>
        <pt x="397" y="584" on="0"/>
        <pt x="426" y="614" on="0"/>
        <pt x="447" y="614" on="1"/>
        <pt x="467" y="614" on="0"/>
        <pt x="496" y="584" on="0"/>
      </contour>
    </TTGlyph>
    <TTGlyph name="fifteensixteenths" xMin="132" yMin="-15" xMax="1324" yMax="748">
      <component glyphName="one.num" x="15" y="0" flags="0x4"/>
      <component glyphName="five.num" x="289" y="0" flags="0x4"/>
      <component glyphName="fraction" x="639" y="0" flags="0x4"/>
      <component glyphName="one.den" x="734" y="0" flags="0x4"/>
      <component glyphName="six.den" x="1008" y="0" flags="0x4"/>
    </TTGlyph>
    <TTGlyph name="five" xMin="22" yMin="-10" xMax="452" yMax="576">
      <contour>
        <pt x="438" y="504" on="1"/>
        <pt x="214" y="504" on="1"/>
        <pt x="183" y="351" on="1"/>
        <pt x="184" y="351" on="1"/>
        <pt x="240" y="351" on="0"/>
        <pt x="323" y="323" on="0"/>
        <pt x="379" y="276" on="0"/>
        <pt x="406" y="215" on="0"/>
        <pt x="406" y="181" on="1"/>
        <pt x="406" y="141" on="0"/>
        <pt x="377" y="72" on="0"/>
        <pt x="323" y="20" on="0"/>
        <pt x="245" y="-10" on="0"/>
        <pt x="197" y="-10" on="1"/>
        <pt x="148" y="-10" on="0"/>
        <pt x="60" y="14" on="0"/>
        <pt x="22" y="32" on="1"/>
        <pt x="57" y="96" on="1"/>
        <pt x="89" y="80" on="0"/>
        <pt x="162" y="58" on="0"/>
        <pt x="196" y="58" on="1"/>
        <pt x="260" y="58" on="0"/>
        <pt x="326" y="123" on="0"/>
        <pt x="326" y="170" on="1"/>
        <pt x="326" y="226" on="0"/>
        <pt x="240" y="285" on="0"/>
        <pt x="161" y="285" on="1"/>
        <pt x="135" y="285" on="0"/>
        <pt x="107" y="282" on="1"/>
        <pt x="100" y="294" on="1"/>
        <pt x="154" y="576" on="1"/>
        <pt x="452" y="576" on="1"/>
      </contour>
    </TTGlyph>
    <TTGlyph name="five.den" xMin="6" yMin="-8" xMax="332" yMax="385">
      <contour>
        <pt x="34" y="84" on="1"/>
        <pt x="57" y="68" on="0"/>
        <pt x="111" y="52" on="0"/>
        <pt x="138" y="52" on="1"/>
        <pt x="181" y="52" on="0"/>
        <pt x="230" y="92" on="0"/>
        <pt x="230" y="124" on="1"/>
        <pt x="230" y="152" on="0"/>
        <pt x="181" y="184" on="0"/>
        <pt x="130" y="184" on="1"/>
        <pt x="113" y="184" on="0"/>
        <pt x="84" y="181" on="0"/>
        <pt x="70" y="179" on="1"/>
        <pt x="54" y="190" on="1"/>
        <pt x="91" y="385" on="1"/>
        <pt x="332" y="385" on="1"/>
        <pt x="321" y="325" on="1"/>
        <pt x="145" y="325" on="1"/>
        <pt x="129" y="243" on="1"/>
        <pt x="138" y="243" on="1"/>
        <pt x="226" y="243" on="0"/>
        <pt x="302" y="179" on="0"/>
        <pt x="302" y="129" on="1"/>
        <pt x="302" y="100" on="0"/>
        <pt x="280" y="50" on="0"/>
        <pt x="239" y="13" on="0"/>
        <pt x="179" y="-8" on="0"/>
        <pt x="141" y="-8" on="1"/>
        <pt x="106" y="-8" on="0"/>
        <pt x="34" y="11" on="0"/>
        <pt x="6" y="28" on="1"/>
      </contour>
    </TTGlyph>
    <TTGlyph name="five.lin" xMin="32" yMin="-12" xMax="555" yMax="733">
      <contour>
        <pt x="541" y="660" on="1"/>
        <pt x="252" y="660" on="1"/>
        <pt x="206" y="439" on="1"/>
        <pt x="224" y="439" on="1"/>
        <pt x="297" y="439" on="0"/>
        <pt x="401" y="403" on="0"/>
        <pt x="467" y="343" on="0"/>
        <pt x="498" y="267" on="0"/>
        <pt x="498" y="228" on="1"/>
        <pt x="498" y="178" on="0"/>
        <pt x="462" y="91" on="0"/>
        <pt x="395" y="26" on="0"/>
        <pt x="296" y="-12" on="0"/>
        <pt x="233" y="-12" on="1"/>
        <pt x="130" y="-12" on="0"/>
        <pt x="32" y="40" on="1"/>
        <pt x="64" y="106" on="1"/>
        <pt x="105" y="86" on="0"/>
        <pt x="194" y="57" on="0"/>
        <pt x="237" y="57" on="1"/>
        <pt x="322" y="57" on="0"/>
        <pt x="419" y="145" on="0"/>
        <pt x="419" y="216" on="1"/>
        <pt x="419" y="295" on="0"/>
        <pt x="296" y="374" on="0"/>
        <pt x="193" y="374" on="1"/>
        <pt x="159" y="374" on="0"/>
        <pt x="126" y="371" on="1"/>
        <pt x="121" y="380" on="1"/>
        <pt x="194" y="733" on="1"/>
        <pt x="555" y="733" on="1"/>
      </contour>
    </TTGlyph>
    <TTGlyph name="five.num" xMin="74" yMin="340" xMax="400" yMax="733">
      <contour>
        <pt x="102" y="432" on="1"/>
        <pt x="125" y="416" on="0"/>
        <pt x="179" y="400" on="0"/>
        <pt x="206" y="400" on="1"/>
        <pt x="249" y="400" on="0"/>
        <pt x="298" y="440" on="0"/>
        <pt x="298" y="472" on="1"/>
        <pt x="298" y="500" on="0"/>
        <pt x="249" y="532" on="0"/>
        <pt x="198" y="532" on="1"/>
        <pt x="181" y="532" on="0"/>
        <pt x="152" y="529" on="0"/>
        <pt x="138" y="527" on="1"/>
        <pt x="122" y="538" on="1"/>
        <pt x="159" y="733" on="1"/>
        <pt x="400" y="733" on="1"/>
        <pt x="389" y="673" on="1"/>
        <pt x="213" y="673" on="1"/>
        <pt x="197" y="591" on="1"/>
        <pt x="206" y="591" on="1"/>
        <pt x="294" y="591" on="0"/>
        <pt x="370" y="527" on="0"/>
        <pt x="370" y="477" on="1"/>
        <pt x="370" y="448" on="0"/>
        <pt x="348" y="398" on="0"/>
        <pt x="307" y="361" on="0"/>
        <pt x="247" y="340" on="0"/>
        <pt x="209" y="340" on="1"/>
        <pt x="174" y="340" on="0"/>
        <pt x="102" y="359" on="0"/>
        <pt x="74" y="376" on="1"/>
      </contour>
    </TTGlyph>
    <TTGlyph name="fiveeighths" xMin="77" yMin="-15" xMax="811" yMax="748">
      <component glyphName="five.num" x="15" y="0" flags="0x4"/>
      <component glyphName="fraction" x="365" y="0" flags="0x4"/>
      <component glyphName="eight.den" x="460" y="0" flags="0x4"/>
    </TTGlyph>
    <TTGlyph name="fivesixteenths" xMin="77" yMin="-15" xMax="1050" yMax="748">
      <component glyphName="five.num" x="15" y="0" flags="0x4"/>
      <component glyphName="fraction" x="365" y="0" flags="0x4"/>
      <component glyphName="one.den" x="460" y="0" flags="0x4"/>
      <component glyphName="six.den" x="734" y="0" flags="0x4"/>
    </TTGlyph>
    <TTGlyph name="fivesixths" xMin="87" yMin="-15" xMax="821" yMax="748">
      <component glyphName="five.num" x="25" y="0" flags="0x4"/>
      <component glyphName="fraction" x="375" y="0" flags="0x4"/>
      <component glyphName="six.den" x="450" y="0" flags="0x4"/>
    </TTGlyph>
    <TTGlyph name="fl" xMin="3" yMin="-216" xMax="518" yMax="737">
      <contour>
        <pt x="376" y="0" on="1"/>
        <pt x="297" y="0" on="1"/>
        <pt x="439" y="733" on="1"/>
        <pt x="518" y="733" on="1"/>
      </contour>
      <contour>
        <pt x="358" y="658" on="1"/>
        <pt x="338" y="663" on="0"/>
        <pt x="320" y="663" on="1"/>
        <pt x="296" y="663" on="0"/>
        <pt x="267" y="653" on="0"/>
        <pt x="248" y="628" on="0"/>
        <pt x="235" y="582" on="0"/>
        <pt x="228" y="546" on="1"/>
        <pt x="203" y="420" on="1"/>
        <pt x="308" y="420" on="1"/>
        <pt x="294" y="352" on="1"/>
        <pt x="190" y="352" on="1"/>
        <pt x="80" y="-216" on="1"/>
        <pt x="3" y="-216" on="1"/>
        <pt x="114" y="352" on="1"/>
        <pt x="37" y="352" on="1"/>
        <pt x="37" y="359" on="1"/>
        <pt x="128" y="428" on="1"/>
        <pt x="150" y="536" on="1"/>
        <pt x="160" y="589" on="0"/>
        <pt x="189" y="665" on="0"/>
        <pt x="229" y="714" on="0"/>
        <pt x="285" y="737" on="0"/>
        <pt x="323" y="737" on="1"/>
        <pt x="342" y="737" on="0"/>
        <pt x="369" y="733" on="0"/>
        <pt x="386" y="728" on="1"/>
      </contour>
    </TTGlyph>
    <TTGlyph name="florin" xMin="49" yMin="0" xMax="426" yMax="586">
      <contour>
        <pt x="398" y="506" on="1"/>
        <pt x="389" y="508" on="0"/>
        <pt x="366" y="511" on="0"/>
        <pt x="357" y="511" on="1"/>
        <pt x="316" y="511" on="0"/>
        <pt x="271" y="458" on="0"/>
        <pt x="251" y="394" on="1"/>
        <pt x="235" y="344" on="1"/>
        <pt x="322" y="344" on="1"/>
        <pt x="309" y="276" on="1"/>
        <pt x="214" y="276" on="1"/>
        <pt x="128" y="0" on="1"/>
        <pt x="49" y="0" on="1"/>
        <pt x="135" y="276" on="1"/>
        <pt x="77" y="276" on="1"/>
        <pt x="77" y="283" on="1"/>
        <pt x="157" y="345" on="1"/>
        <pt x="169" y="384" on="1"/>
        <pt x="185" y="437" on="0"/>
        <pt x="223" y="514" on="0"/>
        <pt x="271" y="563" on="0"/>
        <pt x="330" y="586" on="0"/>
        <pt x="368" y="586" on="1"/>
        <pt x="387" y="586" on="0"/>
        <pt x="410" y="582" on="0"/>
        <pt x="426" y="577" on="1"/>
      </contour>
    </TTGlyph>
    <TTGlyph name="florin.lin" xMin="19" yMin="0" xMax="538" yMax="745">
      <contour>
        <pt x="505" y="659" on="1"/>
        <pt x="485" y="666" on="0"/>
        <pt x="453" y="674" on="0"/>
        <pt x="429" y="674" on="1"/>
        <pt x="363" y="674" on="0"/>
        <pt x="285" y="601" on="0"/>
        <pt x="260" y="521" on="1"/>
        <pt x="229" y="421" on="1"/>
        <pt x="378" y="421" on="1"/>
        <pt x="364" y="349" on="1"/>
        <pt x="207" y="349" on="1"/>
        <pt x="98" y="0" on="1"/>
        <pt x="19" y="0" on="1"/>
        <pt x="127" y="349" on="1"/>
        <pt x="58" y="349" on="1"/>
        <pt x="59" y="358" on="1"/>
        <pt x="149" y="420" on="1"/>
        <pt x="181" y="525" on="1"/>
        <pt x="213" y="630" on="0"/>
        <pt x="348" y="745" on="0"/>
        <pt x="438" y="745" on="1"/>
        <pt x="467" y="745" on="0"/>
        <pt x="519" y="733" on="0"/>
        <pt x="538" y="723" on="1"/>
      </contour>
    </TTGlyph>
    <TTGlyph name="four" xMin="29" yMin="-2" xMax="462" yMax="587">
      <contour>
        <pt x="449" y="173" on="1"/>
        <pt x="353" y="173" on="1"/>
        <pt x="319" y="-2" on="1"/>
        <pt x="246" y="-2" on="1"/>
        <pt x="280" y="173" on="1"/>
        <pt x="29" y="173" on="1"/>
        <pt x="33" y="198" on="1"/>
        <pt x="409" y="587" on="1"/>
        <pt x="434" y="587" on="1"/>
        <pt x="366" y="240" on="1"/>
        <pt x="462" y="240" on="1"/>
      </contour>
      <contour>
        <pt x="327" y="416" on="1"/>
        <pt x="159" y="240" on="1"/>
        <pt x="293" y="240" on="1"/>
      </contour>
    </TTGlyph>
    <TTGlyph name="four.den" xMin="-13" yMin="0" xMax="323" yMax="403">
      <contour>
        <pt x="192" y="76" on="1"/>
        <pt x="-13" y="76" on="1"/>
        <pt x="-3" y="122" on="1"/>
        <pt x="267" y="403" on="1"/>
        <pt x="317" y="403" on="1"/>
        <pt x="264" y="129" on="1"/>
        <pt x="323" y="129" on="1"/>
        <pt x="312" y="76" on="1"/>
        <pt x="253" y="76" on="1"/>
        <pt x="239" y="0" on="1"/>
        <pt x="178" y="0" on="1"/>
      </contour>
      <contour>
        <pt x="203" y="129" on="1"/>
        <pt x="235" y="297" on="1"/>
        <pt x="74" y="129" on="1"/>
      </contour>
    </TTGlyph>
    <TTGlyph name="four.lin" xMin="24" yMin="0" xMax="581" yMax="740">
      <contour>
        <pt x="569" y="223" on="1"/>
        <pt x="439" y="223" on="1"/>
        <pt x="397" y="0" on="1"/>
        <pt x="318" y="0" on="1"/>
        <pt x="362" y="223" on="1"/>
        <pt x="24" y="223" on="1"/>
        <pt x="28" y="242" on="1"/>
        <pt x="504" y="740" on="1"/>
        <pt x="541" y="740" on="1"/>
        <pt x="452" y="291" on="1"/>
        <pt x="581" y="291" on="1"/>
      </contour>
      <contour>
        <pt x="434" y="577" on="1"/>
        <pt x="165" y="291" on="1"/>
        <pt x="375" y="291" on="1"/>
      </contour>
    </TTGlyph>
    <TTGlyph name="four.num" xMin="55" yMin="348" xMax="391" yMax="751">
      <contour>
        <pt x="260" y="424" on="1"/>
        <pt x="55" y="424" on="1"/>
        <pt x="65" y="470" on="1"/>
        <pt x="335" y="751" on="1"/>
        <pt x="385" y="751" on="1"/>
        <pt x="332" y="477" on="1"/>
        <pt x="391" y="477" on="1"/>
        <pt x="380" y="424" on="1"/>
        <pt x="321" y="424" on="1"/>
        <pt x="307" y="348" on="1"/>
        <pt x="246" y="348" on="1"/>
      </contour>
      <contour>
        <pt x="271" y="477" on="1"/>
        <pt x="303" y="645" on="1"/>
        <pt x="142" y="477" on="1"/>
      </contour>
    </TTGlyph>
    <TTGlyph name="fourfifths" xMin="70" yMin="-15" xMax="811" yMax="751">
      <component glyphName="four.num" x="15" y="0" flags="0x4"/>
      <component glyphName="fraction" x="365" y="0" flags="0x4"/>
      <component glyphName="five.den" x="460" y="0" flags="0x4"/>
    </TTGlyph>
    <TTGlyph name="fraction" xMin="-288" yMin="-15" xMax="446" yMax="748">
      <contour>
        <pt x="-288" y="25" on="1"/>
        <pt x="59" y="386" on="1"/>
        <pt x="399" y="748" on="1"/>
        <pt x="446" y="708" on="1"/>
        <pt x="99" y="347" on="1"/>
        <pt x="-243" y="-15" on="1"/>
      </contour>
    </TTGlyph>
    <TTGlyph name="g" xMin="20" yMin="-224" xMax="458" yMax="428">
      <contour>
        <pt x="369" y="-39" on="1"/>
        <pt x="350" y="-136" on="0"/>
        <pt x="236" y="-224" on="0"/>
        <pt x="155" y="-224" on="1"/>
        <pt x="90" y="-224" on="0"/>
        <pt x="20" y="-198" on="1"/>
        <pt x="45" y="-129" on="1"/>
        <pt x="74" y="-140" on="0"/>
        <pt x="130" y="-151" on="0"/>
        <pt x="158" y="-151" on="1"/>
        <pt x="215" y="-151" on="0"/>
        <pt x="278" y="-103" on="0"/>
        <pt x="289" y="-46" on="1"/>
        <pt x="302" y="19" on="1"/>
        <pt x="282" y="6" on="0"/>
        <pt x="238" y="-8" on="0"/>
        <pt x="207" y="-8" on="1"/>
        <pt x="171" y="-8" on="0"/>
        <pt x="108" y="20" on="0"/>
        <pt x="61" y="68" on="0"/>
        <pt x="33" y="132" on="0"/>
        <pt x="33" y="169" on="1"/>
        <pt x="33" y="221" on="0"/>
        <pt x="69" y="315" on="0"/>
        <pt x="132" y="386" on="0"/>
        <pt x="219" y="428" on="0"/>
        <pt x="271" y="428" on="1"/>
        <pt x="303" y="428" on="0"/>
        <pt x="360" y="407" on="0"/>
        <pt x="379" y="395" on="1"/>
        <pt x="384" y="420" on="1"/>
        <pt x="458" y="420" on="1"/>
      </contour>
      <contour>
        <pt x="362" y="330" on="1"/>
        <pt x="323" y="361" on="0"/>
        <pt x="268" y="361" on="1"/>
        <pt x="235" y="361" on="0"/>
        <pt x="177" y="335" on="0"/>
        <pt x="134" y="288" on="0"/>
        <pt x="110" y="222" on="0"/>
        <pt x="110" y="183" on="1"/>
        <pt x="110" y="124" on="0"/>
        <pt x="174" y="59" on="0"/>
        <pt x="225" y="59" on="1"/>
        <pt x="254" y="59" on="0"/>
        <pt x="295" y="77" on="0"/>
        <pt x="316" y="95" on="1"/>
      </contour>
    </TTGlyph>
    <TTGlyph name="gbreve" xMin="20" yMin="-224" xMax="473" yMax="629">
      <component glyphName="g" x="0" y="0" flags="0x204"/>
      <component glyphName="breve" x="43" y="0" flags="0x4"/>
    </TTGlyph>
    <TTGlyph name="gcommaaccent" xMin="20" yMin="-224" xMax="458" yMax="709">
      <contour>
        <pt x="270" y="549" on="1"/>
        <pt x="270" y="593" on="0"/>
        <pt x="342" y="675" on="0"/>
        <pt x="399" y="709" on="1"/>
        <pt x="410" y="693" on="1"/>
        <pt x="371" y="661" on="0"/>
        <pt x="336" y="615" on="0"/>
        <pt x="326" y="594" on="1"/>
        <pt x="346" y="589" on="0"/>
        <pt x="368" y="560" on="0"/>
        <pt x="368" y="543" on="1"/>
        <pt x="368" y="523" on="0"/>
        <pt x="339" y="494" on="0"/>
        <pt x="319" y="494" on="1"/>
        <pt x="299" y="494" on="0"/>
        <pt x="270" y="525" on="0"/>
      </contour>
      <contour>
        <pt x="369" y="-39" on="1"/>
        <pt x="350" y="-136" on="0"/>
        <pt x="236" y="-224" on="0"/>
        <pt x="155" y="-224" on="1"/>
        <pt x="90" y="-224" on="0"/>
        <pt x="20" y="-198" on="1"/>
        <pt x="45" y="-129" on="1"/>
        <pt x="74" y="-140" on="0"/>
        <pt x="130" y="-151" on="0"/>
        <pt x="158" y="-151" on="1"/>
        <pt x="215" y="-151" on="0"/>
        <pt x="278" y="-103" on="0"/>
        <pt x="289" y="-46" on="1"/>
        <pt x="302" y="19" on="1"/>
        <pt x="282" y="6" on="0"/>
        <pt x="238" y="-8" on="0"/>
        <pt x="207" y="-8" on="1"/>
        <pt x="171" y="-8" on="0"/>
        <pt x="108" y="20" on="0"/>
        <pt x="61" y="68" on="0"/>
        <pt x="33" y="132" on="0"/>
        <pt x="33" y="169" on="1"/>
        <pt x="33" y="221" on="0"/>
        <pt x="69" y="315" on="0"/>
        <pt x="132" y="386" on="0"/>
        <pt x="219" y="428" on="0"/>
        <pt x="271" y="428" on="1"/>
        <pt x="303" y="428" on="0"/>
        <pt x="360" y="407" on="0"/>
        <pt x="379" y="395" on="1"/>
        <pt x="384" y="420" on="1"/>
        <pt x="458" y="420" on="1"/>
      </contour>
      <contour>
        <pt x="362" y="330" on="1"/>
        <pt x="323" y="361" on="0"/>
        <pt x="268" y="361" on="1"/>
        <pt x="235" y="361" on="0"/>
        <pt x="177" y="335" on="0"/>
        <pt x="134" y="288" on="0"/>
        <pt x="110" y="222" on="0"/>
        <pt x="110" y="183" on="1"/>
        <pt x="110" y="124" on="0"/>
        <pt x="174" y="59" on="0"/>
        <pt x="225" y="59" on="1"/>
        <pt x="254" y="59" on="0"/>
        <pt x="295" y="77" on="0"/>
        <pt x="316" y="95" on="1"/>
      </contour>
    </TTGlyph>
    <TTGlyph name="gdotaccent" xMin="20" yMin="-224" xMax="458" yMax="588">
      <component glyphName="g" x="0" y="0" flags="0x204"/>
      <component glyphName="dotaccent" x="33" y="0" flags="0x4"/>
    </TTGlyph>
    <TTGlyph name="germandbls" xMin="-26" yMin="-216" xMax="500" yMax="740">
      <contour>
        <pt x="300" y="207" on="1"/>
        <pt x="354" y="187" on="0"/>
        <pt x="407" y="118" on="0"/>
        <pt x="406" y="71" on="1"/>
        <pt x="406" y="40" on="0"/>
        <pt x="384" y="-19" on="0"/>
        <pt x="340" y="-66" on="0"/>
        <pt x="274" y="-94" on="0"/>
        <pt x="229" y="-94" on="1"/>
        <pt x="203" y="-94" on="0"/>
        <pt x="153" y="-85" on="0"/>
        <pt x="133" y="-79" on="1"/>
        <pt x="149" y="-13" on="1"/>
        <pt x="172" y="-19" on="0"/>
        <pt x="211" y="-26" on="0"/>
        <pt x="233" y="-26" on="1"/>
        <pt x="279" y="-26" on="0"/>
        <pt x="327" y="27" on="0"/>
        <pt x="327" y="67" on="1"/>
        <pt x="327" y="112" on="0"/>
        <pt x="254" y="160" on="0"/>
        <pt x="187" y="162" on="1"/>
        <pt x="187" y="163" on="1"/>
        <pt x="183" y="176" on="1"/>
        <pt x="355" y="354" on="1"/>
        <pt x="162" y="354" on="1"/>
        <pt x="52" y="-216" on="1"/>
        <pt x="-26" y="-216" on="1"/>
        <pt x="124" y="554" on="1"/>
        <pt x="134" y="607" on="0"/>
        <pt x="168" y="679" on="0"/>
        <pt x="213" y="722" on="0"/>
        <pt x="268" y="740" on="0"/>
        <pt x="301" y="740" on="1"/>
        <pt x="324" y="740" on="0"/>
        <pt x="360" y="731" on="0"/>
        <pt x="374" y="726" on="1"/>
        <pt x="346" y="656" on="1"/>
        <pt x="335" y="661" on="0"/>
        <pt x="313" y="666" on="0"/>
        <pt x="297" y="666" on="1"/>
        <pt x="260" y="666" on="0"/>
        <pt x="213" y="616" on="0"/>
        <pt x="200" y="549" on="1"/>
        <pt x="175" y="420" on="1"/>
        <pt x="498" y="420" on="1"/>
        <pt x="500" y="408" on="1"/>
      </contour>
    </TTGlyph>
    <TTGlyph name="grave" xMin="186" yMin="474" xMax="382" yMax="645">
      <contour>
        <pt x="348" y="474" on="1"/>
        <pt x="186" y="580" on="1"/>
        <pt x="238" y="645" on="1"/>
        <pt x="382" y="516" on="1"/>
      </contour>
    </TTGlyph>
    <TTGlyph name="greater" xMin="13" yMin="49" xMax="372" yMax="527">
      <contour>
        <pt x="50" y="49" on="1"/>
        <pt x="13" y="104" on="1"/>
        <pt x="268" y="274" on="1"/>
        <pt x="88" y="485" on="1"/>
        <pt x="145" y="527" on="1"/>
        <pt x="372" y="262" on="1"/>
      </contour>
    </TTGlyph>
    <TTGlyph name="greater.lin" xMin="27" yMin="132" xMax="386" yMax="610">
      <component glyphName="greater" x="14" y="83" flags="0x204"/>
    </TTGlyph>
    <TTGlyph name="guillemotleft" xMin="42" yMin="9" xMax="402" yMax="336">
      <contour>
        <pt x="261" y="168" on="1"/>
        <pt x="339" y="9" on="1"/>
        <pt x="260" y="9" on="1"/>
        <pt x="187" y="173" on="1"/>
        <pt x="324" y="336" on="1"/>
        <pt x="402" y="336" on="1"/>
      </contour>
      <contour>
        <pt x="116" y="168" on="1"/>
        <pt x="194" y="9" on="1"/>
        <pt x="115" y="9" on="1"/>
        <pt x="42" y="173" on="1"/>
        <pt x="179" y="336" on="1"/>
        <pt x="257" y="336" on="1"/>
      </contour>
    </TTGlyph>
    <TTGlyph name="guillemotleft.cap" xMin="81" yMin="207" xMax="441" yMax="534">
      <component glyphName="guillemotleft" x="39" y="198" flags="0x204"/>
    </TTGlyph>
    <TTGlyph name="guillemotright" xMin="7" yMin="9" xMax="367" yMax="336">
      <contour>
        <pt x="230" y="9" on="1"/>
        <pt x="152" y="9" on="1"/>
        <pt x="293" y="177" on="1"/>
        <pt x="215" y="336" on="1"/>
        <pt x="294" y="336" on="1"/>
        <pt x="367" y="172" on="1"/>
      </contour>
      <contour>
        <pt x="85" y="9" on="1"/>
        <pt x="7" y="9" on="1"/>
        <pt x="148" y="177" on="1"/>
        <pt x="70" y="336" on="1"/>
        <pt x="149" y="336" on="1"/>
        <pt x="222" y="172" on="1"/>
      </contour>
    </TTGlyph>
    <TTGlyph name="guillemotright.cap" xMin="44" yMin="207" xMax="404" yMax="534">
      <component glyphName="guillemotright" x="37" y="198" flags="0x204"/>
    </TTGlyph>
    <TTGlyph name="guilsinglleft" xMin="42" yMin="9" xMax="257" yMax="336">
      <contour>
        <pt x="116" y="168" on="1"/>
        <pt x="194" y="9" on="1"/>
        <pt x="115" y="9" on="1"/>
        <pt x="42" y="173" on="1"/>
        <pt x="179" y="336" on="1"/>
        <pt x="257" y="336" on="1"/>
      </contour>
    </TTGlyph>
    <TTGlyph name="guilsinglleft.cap" xMin="82" yMin="207" xMax="297" yMax="534">
      <component glyphName="guilsinglleft" x="40" y="198" flags="0x204"/>
    </TTGlyph>
    <TTGlyph name="guilsinglright" xMin="7" yMin="9" xMax="222" yMax="336">
      <contour>
        <pt x="85" y="9" on="1"/>
        <pt x="7" y="9" on="1"/>
        <pt x="148" y="177" on="1"/>
        <pt x="70" y="336" on="1"/>
        <pt x="149" y="336" on="1"/>
        <pt x="222" y="172" on="1"/>
      </contour>
    </TTGlyph>
    <TTGlyph name="guilsinglright.cap" xMin="46" yMin="207" xMax="261" yMax="534">
      <component glyphName="guilsinglright" x="39" y="198" flags="0x204"/>
    </TTGlyph>
    <TTGlyph name="h" xMin="16" yMin="0" xMax="427" yMax="733">
      <contour>
        <pt x="427" y="318" on="1"/>
        <pt x="427" y="296" on="0"/>
        <pt x="423" y="276" on="1"/>
        <pt x="369" y="0" on="1"/>
        <pt x="290" y="0" on="1"/>
        <pt x="342" y="264" on="1"/>
        <pt x="344" y="274" on="0"/>
        <pt x="346" y="291" on="0"/>
        <pt x="346" y="299" on="1"/>
        <pt x="346" y="362" on="0"/>
        <pt x="282" y="362" on="1"/>
        <pt x="247" y="362" on="0"/>
        <pt x="180" y="320" on="0"/>
        <pt x="151" y="291" on="1"/>
        <pt x="95" y="0" on="1"/>
        <pt x="16" y="0" on="1"/>
        <pt x="158" y="733" on="1"/>
        <pt x="237" y="733" on="1"/>
        <pt x="163" y="353" on="1"/>
        <pt x="202" y="389" on="0"/>
        <pt x="283" y="428" on="0"/>
        <pt x="325" y="428" on="1"/>
        <pt x="378" y="428" on="0"/>
        <pt x="427" y="366" on="0"/>
      </contour>
    </TTGlyph>
    <TTGlyph name="hbar" xMin="16" yMin="0" xMax="427" yMax="733">
      <contour>
        <pt x="427" y="318" on="1"/>
        <pt x="427" y="296" on="0"/>
        <pt x="423" y="276" on="1"/>
        <pt x="369" y="0" on="1"/>
        <pt x="290" y="0" on="1"/>
        <pt x="342" y="264" on="1"/>
        <pt x="344" y="274" on="0"/>
        <pt x="346" y="291" on="0"/>
        <pt x="346" y="299" on="1"/>
        <pt x="346" y="362" on="0"/>
        <pt x="282" y="362" on="1"/>
        <pt x="247" y="362" on="0"/>
        <pt x="180" y="320" on="0"/>
        <pt x="151" y="291" on="1"/>
        <pt x="95" y="0" on="1"/>
        <pt x="16" y="0" on="1"/>
        <pt x="124" y="561" on="1"/>
        <pt x="68" y="561" on="1"/>
        <pt x="81" y="626" on="1"/>
        <pt x="137" y="626" on="1"/>
        <pt x="158" y="733" on="1"/>
        <pt x="237" y="733" on="1"/>
        <pt x="216" y="626" on="1"/>
        <pt x="360" y="626" on="1"/>
        <pt x="347" y="561" on="1"/>
        <pt x="203" y="561" on="1"/>
        <pt x="163" y="353" on="1"/>
        <pt x="202" y="389" on="0"/>
        <pt x="283" y="428" on="0"/>
        <pt x="325" y="428" on="1"/>
        <pt x="378" y="428" on="0"/>
        <pt x="427" y="366" on="0"/>
      </contour>
    </TTGlyph>
</ttFont>
